<svg width="40" height="40" viewBox="0 0 40 40" fill="none" xmlns="http://www.w3.org/2000/svg">
<path d="M2.33918 2.33918H8.65497V0H0V8.65497H2.33918V2.33918ZM31.345 0V2.33918H37.6608V8.65497H40V0H31.345ZM2.33918 31.2671H0V39.922H8.65497V37.5828H2.33918V31.2671ZM37.6608 37.5828H31.345V39.922H40V31.2671H37.6608V37.5828ZM37.5828 21.1306V18.7914H33.1298C32.57 12.4327 27.4893 7.35205 21.1306 6.7922V2.33918H18.7914V6.7922C12.4327 7.35205 7.35205 12.4327 6.7922 18.7914H2.33918V21.1306H6.7922C7.35205 27.4893 12.4327 32.57 18.7914 33.1298V37.5828H21.1306V33.1298C27.4893 32.57 32.57 27.4893 33.1298 21.1306H37.5828ZM21.1306 30.7797V26.6433C20.3747 26.7782 19.5474 26.7782 18.7914 26.6433V30.7797C13.724 30.2355 9.68655 26.1981 9.1423 21.1306H13.2788C13.1439 20.3747 13.1439 19.5474 13.2788 18.7914H9.1423C9.68655 13.724 13.724 9.68655 18.7914 9.1423V13.2788C19.5474 13.1439 20.3747 13.1439 21.1306 13.2788V9.1423C26.1981 9.68655 30.2355 13.724 30.7797 18.7914H26.6433C26.7782 19.5474 26.7782 20.3747 26.6433 21.1306H30.7797C30.2355 26.1981 26.1981 30.2355 21.1306 30.7797Z" fill="#00ECD4"/>
<path d="M26.6419 21.1292H21.1292V26.6419C23.9339 26.153 26.153 23.9339 26.6419 21.1292ZM18.79 18.79V13.2773C15.9853 13.7662 13.7662 15.9853 13.2773 18.79H18.79ZM18.79 21.1292H13.2773C13.7662 23.9339 15.9853 26.153 18.79 26.6419V21.1292ZM21.1292 18.79H26.6419C26.153 15.9853 23.9339 13.7662 21.1292 13.2773V18.79Z" fill="#00ECD4"/>
</svg>
