<svg width="40" height="36" viewBox="0 0 40 36" fill="none" xmlns="http://www.w3.org/2000/svg">
<path d="M30.8511 7.43092C31.3088 7.88858 32.0507 7.88858 32.5084 7.43092L35.2705 4.66881C35.7281 4.21115 35.7281 3.4692 35.2705 3.01154C34.8128 2.55389 34.0709 2.55389 33.6132 3.01154L30.8511 5.77365C30.3935 6.23131 30.3935 6.97326 30.8511 7.43092ZM32.2051 10.7726C32.3726 11.3977 33.0152 11.7687 33.6403 11.6012L37.4135 10.5902C38.0386 10.4227 38.4096 9.78014 38.2421 9.15498C38.0746 8.52983 37.432 8.15881 36.8069 8.32639L33.0338 9.3374C32.4085 9.50483 32.0376 10.1474 32.2051 10.7726ZM27.5095 6.07725C28.1346 6.24475 28.7772 5.87373 28.9447 5.24858L29.9557 1.47545C30.1232 0.850294 29.7522 0.207716 29.1271 0.040216C28.502 -0.127284 27.8594 0.243732 27.6919 0.868888L26.6809 4.64201C26.5133 5.26717 26.8843 5.90975 27.5095 6.07725Z" fill="#00ECD4"/>
<path d="M37.3633 14.0617H23.856C23.0855 14.0617 22.5246 13.3309 22.7241 12.5866L24.0845 7.50924C24.4614 6.10268 23.6266 4.65682 22.2201 4.27994C20.8135 3.90307 19.3677 4.73783 18.9908 6.14439L18.3433 8.5608C17.474 11.8055 14.5336 14.0617 11.1744 14.0617H7.8125V32.0305H9.96094L10.5469 32.8117C11.0927 33.5394 11.8004 34.1301 12.614 34.5369C13.4276 34.9437 14.3247 35.1555 15.2344 35.1555H25.4883C26.9445 35.1555 28.125 33.975 28.125 32.5188C28.125 31.0625 26.9445 29.882 25.4883 29.882H27.0508C28.507 29.882 29.6875 28.7016 29.6875 27.2453C29.6875 25.7891 28.507 24.6086 27.0508 24.6086H28.6133C30.0695 24.6086 31.25 23.4281 31.25 21.9719C31.25 20.5156 30.0695 19.3352 28.6133 19.3352H37.3633C38.8195 19.3352 40 18.1547 40 16.6985C40 15.2422 38.8195 14.0617 37.3633 14.0617ZM4.29688 11.718H1.17188C0.524687 11.718 0 12.2427 0 12.8899V33.2024C0 33.8495 0.524687 34.3742 1.17188 34.3742H4.29688C4.94406 34.3742 5.46875 33.8495 5.46875 33.2024V12.8899C5.46875 12.2427 4.94406 11.718 4.29688 11.718Z" fill="#00ECD4"/>
</svg>
