<svg width="40" height="40" viewBox="0 0 40 40" fill="none" xmlns="http://www.w3.org/2000/svg">
<path fill-rule="evenodd" clip-rule="evenodd" d="M18.9801 20.2416V8.84891H17.1802L20.0001 3.96484L22.8199 8.84891H21.0201V20.2416C20.3482 20.0931 19.6519 20.0931 18.9801 20.2416ZM27.117 32.7091C27.0371 30.5198 25.2535 29.1074 22.9747 28.4699C21.2452 29.8855 18.7549 29.8854 17.0254 28.4699C14.7467 29.1071 12.9629 30.5198 12.883 32.7091V36.0377H27.117V32.7091ZM15.0152 28.1959V28.2545C13.6542 28.9645 12.5455 30.0416 12.1249 31.5245H0.78125V28.1959C0.861094 26.0065 2.64492 24.5938 4.92359 23.9566C6.65312 25.3721 9.14336 25.3722 10.8729 23.9566C13.1517 24.5941 14.9353 26.0065 15.0152 28.1959V28.1959ZM32.1019 16.5546C30.0237 16.5546 28.3389 18.2394 28.3389 20.3176C28.3389 22.3958 30.0237 24.0805 32.1019 24.0805C34.1801 24.0805 35.8648 22.3958 35.8648 20.3176C35.8648 18.2394 34.1801 16.5546 32.1019 16.5546ZM7.89828 16.5546C5.82008 16.5546 4.13531 18.2394 4.13531 20.3176C4.13531 22.3958 5.82008 24.0805 7.89828 24.0805C9.97648 24.0805 11.6613 22.3958 11.6613 20.3176C11.6613 18.2394 9.97648 16.5546 7.89828 16.5546ZM20.0001 21.0678C22.0783 21.0678 23.763 22.7526 23.763 24.8308C23.763 26.909 22.0783 28.5938 20.0001 28.5938C17.9219 28.5938 16.2371 26.909 16.2371 24.8308C16.2371 22.7526 17.9219 21.0678 20.0001 21.0678ZM39.2188 28.1959V31.5245H27.8752C27.4545 30.0416 26.3459 28.9647 24.9849 28.2546V28.196C25.0648 26.0066 26.8486 24.594 29.1273 23.9568C30.8568 25.3723 33.347 25.3723 35.0766 23.9568C37.3554 24.5942 39.139 26.0066 39.2188 28.196V28.1959ZM23.9974 22.3573V14.8843L27.7999 12.6889L28.7011 14.2498L31.5209 9.3657H25.8812L26.7824 10.9266L22.5323 13.3803C22.1921 13.5457 21.9576 13.8945 21.9576 14.2983V20.5565C22.7995 20.9436 23.509 21.5699 23.9974 22.3574V22.3573ZM16.0028 22.3573C16.4913 21.5698 17.2007 20.9435 18.0427 20.5564V14.2982C18.0427 13.8945 17.808 13.5456 17.4679 13.3802L13.2178 10.9265L14.119 9.36562H8.4793L11.2991 14.2497L12.2003 12.6888L16.0028 14.8842V22.3573Z" fill="#00ECD4"/>
</svg>
