<svg width="40" height="40" viewBox="0 0 40 40" fill="none" xmlns="http://www.w3.org/2000/svg">
<path d="M39.8743 17.7799C39.8112 17.2176 39.1554 16.7947 38.5884 16.7947C36.7557 16.7947 35.1293 15.719 34.4472 14.0542C33.7509 12.3494 34.2002 10.3616 35.5656 9.109C35.7727 8.91944 35.9004 8.65851 35.923 8.37865C35.9456 8.09879 35.8615 7.82074 35.6875 7.60037C34.7565 6.4167 33.6935 5.34312 32.5191 4.40044C32.0636 4.03509 31.3943 4.08595 30.999 4.52343C29.807 5.84368 27.6655 6.33427 26.0107 5.64388C24.2893 4.91958 23.2028 3.17465 23.3095 1.3017C23.3264 1.01831 23.234 0.739228 23.0513 0.521874C22.8687 0.30452 22.6097 0.165415 22.3277 0.13317C20.8336 -0.0398175 19.3263 -0.0448342 17.8279 0.121407C17.549 0.152368 17.2921 0.287475 17.1085 0.499704C16.925 0.711933 16.8283 0.985637 16.8379 1.26607C16.9027 3.12067 15.8039 4.83481 14.0991 5.53316C12.4642 6.20107 10.3377 5.71411 9.14804 4.40546C8.95863 4.19816 8.69797 4.06997 8.41815 4.04653C8.13834 4.02309 7.85998 4.10611 7.63872 4.279C6.4414 5.21798 5.35583 6.29131 4.40332 7.4779C4.22608 7.69878 4.13973 7.97893 4.16187 8.26127C4.18402 8.54361 4.31299 8.80688 4.52251 8.99742C5.91489 10.2583 6.3638 12.2633 5.64088 13.988C4.95066 15.6322 3.24344 16.6914 1.28919 16.6914C0.65502 16.671 0.203694 17.0971 0.133634 17.6738C-0.0416635 19.1845 -0.0445073 20.7102 0.125157 22.2215C0.188298 22.7861 0.86347 23.2054 1.43675 23.2054C3.17874 23.1612 4.85015 24.2389 5.55231 25.9457C6.25101 27.6505 5.80124 29.6375 4.4336 30.8918C4.0058 31.285 3.95113 31.9419 4.31233 32.3984C5.24217 33.5818 6.30346 34.6557 7.47576 35.5995C7.69698 35.7775 7.9779 35.8642 8.26096 35.8418C8.54403 35.8194 8.8078 35.6896 8.99823 35.4789C10.195 34.1556 12.336 33.6659 13.9841 34.3576C15.7105 35.08 16.7965 36.8248 16.6905 38.6983C16.6737 38.9815 16.766 39.2605 16.9485 39.4778C17.131 39.6952 17.3898 39.8343 17.6717 39.8668C18.4363 39.9562 19.2049 40.0005 19.9759 40.0005C20.7076 40.0005 21.4395 39.9605 22.1714 39.8791C22.4504 39.8481 22.7074 39.7129 22.891 39.5005C23.0745 39.2881 23.171 39.0142 23.1611 38.7337C23.0942 36.88 24.1954 35.1657 25.8981 34.4687C27.5439 33.7965 29.661 34.2884 30.8513 35.5952C31.041 35.802 31.3016 35.9298 31.5813 35.9532C31.8609 35.9766 32.1392 35.8939 32.3606 35.7215C33.5578 34.7823 34.6433 33.7089 35.596 32.5224C35.7739 32.3016 35.8606 32.0212 35.8384 31.7386C35.8163 31.456 35.6869 31.1925 35.4768 31.0022C34.0848 29.7421 33.6335 27.7363 34.3564 26.0134C35.0359 24.3913 36.6796 23.3021 38.4475 23.3021L38.6949 23.3087C39.2689 23.3553 39.7963 22.9133 39.8657 22.3277C40.0418 20.817 40.0447 19.2912 39.8743 17.7799ZM19.9999 31.5307C13.6317 31.5307 8.46958 26.3685 8.46958 20.0005C8.46958 13.6325 13.6319 8.47033 19.9999 8.47033C26.368 8.47033 31.5303 13.6325 31.5303 20.0005C31.5303 22.162 30.9343 24.1837 29.8993 25.9125L24.8505 20.8635C25.2204 19.9903 25.4103 19.0515 25.4089 18.1032C25.4089 16.215 24.6735 14.44 23.3382 13.105C22.0033 11.7701 20.2283 11.0349 18.3404 11.0349C17.7104 11.0349 17.0833 11.1186 16.4767 11.2838C16.3442 11.3213 16.2237 11.3923 16.1267 11.49C16.0297 11.5877 15.9595 11.7088 15.9229 11.8415C15.8506 12.1138 15.9321 12.3928 16.1449 12.6058C16.1449 12.6058 18.6375 15.1176 19.4714 15.9514C19.5588 16.0387 19.5586 16.2472 19.5463 16.3223L19.5386 16.3771C19.4545 17.2939 19.2924 18.3945 19.1587 18.8174C19.1407 18.8353 19.1237 18.8503 19.1054 18.8686C19.0862 18.8878 19.0686 18.9063 19.05 18.9254C18.6216 19.0629 17.5041 19.2269 16.5727 19.3103L16.5729 19.3053L16.531 19.3158C16.5178 19.3172 16.5046 19.3178 16.4914 19.3177C16.3907 19.3177 16.2426 19.2895 16.108 19.1551C15.24 18.2871 12.8451 15.9093 12.8451 15.9093C12.6303 15.6952 12.4099 15.6502 12.263 15.6502C11.9207 15.6502 11.6142 15.8976 11.5176 16.2524C10.8584 18.692 11.5572 21.3162 13.342 23.1011C14.6773 24.4363 16.4525 25.1715 18.3406 25.1715C19.2889 25.1728 20.2276 24.9828 21.1008 24.6131L26.2045 29.7167C24.3529 30.9036 22.1992 31.5333 19.9999 31.5307Z" fill="#00ECD4"/>
</svg>
