<svg width="50" height="50" viewBox="0 0 50 50" fill="none" xmlns="http://www.w3.org/2000/svg">
<path d="M49.028 10.352C49.0265 10.352 49.025 10.3516 49.0234 10.3516H45.1477C44.6583 10.3516 44.2207 10.6987 44.1509 11.1832C44.0645 11.787 44.5305 12.3047 45.1172 12.3047H46.6301L33.1027 25.5481L23.7271 16.4459C23.5504 16.2743 23.3155 16.1758 23.0693 16.1701C22.8232 16.1644 22.5839 16.2519 22.3995 16.415L1.95312 34.5097V4.91338C1.95312 4.42393 1.60596 3.98633 1.12148 3.9165C0.517676 3.83008 0 4.2957 0 4.88281V49.0234C0 49.5628 0.437207 50 0.976562 50H49.0195C49.5331 50 49.9531 49.6036 49.9924 49.1001C49.997 49.0616 50 49.0223 50 48.9822V25C50 24.4606 49.5628 24.0234 49.0234 24.0234H43.1641C42.6247 24.0234 42.1875 24.4606 42.1875 25V48.0469H37.9883V32.8125C37.9883 32.2731 37.5511 31.8359 37.0117 31.8359H31.1523C30.613 31.8359 30.1758 32.2731 30.1758 32.8125V48.0469H25.9766V28.9062C25.9766 28.3669 25.5394 27.9297 25 27.9297H19.1406C18.6013 27.9297 18.1641 28.3669 18.1641 28.9062V48.0469H13.9648V40.625C13.9648 40.0856 13.5276 39.6484 12.9883 39.6484H7.12891C6.58955 39.6484 6.15234 40.0856 6.15234 40.625V48.0469H1.95312V37.1178L23.016 18.4775L32.4253 27.6126C32.8052 27.9814 33.4099 27.9804 33.7887 27.61L48.0469 13.6509V15.1631C48.0469 15.6524 48.394 16.09 48.8785 16.1595C49.482 16.2464 50 15.7803 50 15.1932V11.3281C50 10.7949 49.5697 10.3542 49.028 10.352ZM44.1406 25.9766H48.0469V48.0469H44.1406V25.9766ZM32.1289 33.7891H36.0352V48.0469H32.1289V33.7891ZM20.1172 29.8828H24.0234V48.0469H20.1172V29.8828ZM8.10547 41.6016H12.0117V48.0469H8.10547V41.6016ZM0.976562 0C0.4375 0 0 0.4375 0 0.976562C0 1.51562 0.4375 1.95312 0.976562 1.95312C1.51562 1.95312 1.95312 1.51562 1.95312 0.976562C1.95312 0.4375 1.51562 0 0.976562 0Z" fill="#00ECD4"/>
</svg>
