<svg width="50" height="38" viewBox="0 0 50 38" fill="none" xmlns="http://www.w3.org/2000/svg">
<path d="M48.5352 35.071H46.9727V2.1374C46.9727 1.52227 46.5879 0.972949 46.01 0.76123C45.4335 0.553808 44.7854 0.722558 44.3878 1.19326L43.488 2.26182C42.0003 4.02705 40.3795 5.70508 38.6686 7.2457C38.5159 7.38298 38.3938 7.55085 38.3103 7.73839C38.2267 7.92594 38.1835 8.12896 38.1836 8.33428V35.071H35.2539V12.9049C35.2537 12.6394 35.1815 12.3789 35.045 12.1512C34.9084 11.9234 34.7127 11.737 34.4786 11.6117C34.0022 11.36 33.42 11.3857 32.9723 11.689C31.1455 12.9153 29.2424 14.0238 27.2745 15.0077C27.0311 15.1293 26.8264 15.3163 26.6834 15.5478C26.5404 15.7792 26.4647 16.046 26.4648 16.3181V35.071H23.5352V18.8157C23.5351 18.581 23.4787 18.3498 23.3706 18.1414C23.2626 17.933 23.1061 17.7537 22.9144 17.6184C22.5267 17.3451 22.026 17.2793 21.5782 17.4367C19.7126 18.1017 17.8102 18.6586 15.8805 19.1047C15.5579 19.1796 15.2703 19.3614 15.0643 19.6206C14.8583 19.8799 14.7461 20.2012 14.7461 20.5323V35.071H11.8164V21.5423C11.8163 21.336 11.7727 21.132 11.6884 20.9437C11.6041 20.7553 11.481 20.5869 11.3271 20.4494C11.0139 20.1719 10.589 20.0303 10.1856 20.0875C8.29495 20.3027 6.39371 20.412 4.49082 20.415C3.68262 20.4165 3.02744 21.0717 3.02744 21.8799V35.071H1.46484C0.655176 35.071 0 35.7262 0 36.5358C0 37.3455 0.655176 38.0007 1.46484 38.0007H48.5352C49.3448 38.0007 50 37.3455 50 36.5358C50 35.7262 49.3448 35.071 48.5352 35.071Z" fill="#00ECD4"/>
</svg>
