<svg width="56" height="64" viewBox="0 0 56 64" fill="none" xmlns="http://www.w3.org/2000/svg">
<path d="M56 41.5C56 39.4375 54.32 37.75 52.2667 37.75C54.32 37.75 56 36.0625 56 34C56 31.9375 54.32 30.25 52.2667 30.25H36.9601C39.2373 23.3874 39.2 21.2 39.2 17C39.2 13.8799 36.6531 11.375 33.6 11.375H32.48C31.7707 11.375 30.8747 11.9376 30.6879 12.8C28.841 20.0226 25.9535 28.3105 18.6667 29.9893V57.122L25.1252 59.2749C27.0292 59.9123 29.008 60.2499 31.024 60.2499H48.5333C50.5953 60.25 52.2667 58.5709 52.2667 56.5C52.2667 54.4289 50.5953 52.75 48.5333 52.75H52.2667C54.32 52.75 56 51.0625 56 49C56 46.9375 54.32 45.25 52.2667 45.25C54.32 45.25 56 43.5625 56 41.5ZM9.33333 26.5H1.86667C0.834898 26.5 0 27.3386 0 28.375V62.125C0 63.1614 0.834898 64 1.86667 64H9.33333C12.4213 64 14.9333 61.4767 14.9333 58.375V32.125C14.9333 29.0233 12.4213 26.5 9.33333 26.5ZM9.33333 56.5C8.30244 56.5 7.46667 55.6605 7.46667 54.625C7.46667 53.5892 8.30244 52.75 9.33333 52.75C10.3642 52.75 11.2 53.5892 11.2 54.625C11.2 55.6605 10.3642 56.5 9.33333 56.5ZM25.6795 8.26775L23.0399 5.61637C22.3108 4.884 21.1294 4.884 20.4003 5.61637C19.6712 6.34875 19.6712 7.53537 20.4003 8.26775L23.0399 10.9191C23.769 11.6515 24.9502 11.6515 25.6795 10.9191C26.4086 10.1867 26.4086 9.00012 25.6795 8.26775ZM46.7997 5.61637C46.0706 4.884 44.8892 4.884 44.1601 5.61637L41.5205 8.26775C40.7914 9.00012 40.7914 10.1867 41.5205 10.9191C42.2496 11.6515 43.431 11.6515 44.1601 10.9191L46.7997 8.26775C47.5288 7.53537 47.5288 6.34875 46.7997 5.61637ZM33.6 0C32.5545 0 31.7333 0.824875 31.7333 1.875V5.75C31.7333 6.80013 32.5545 7.625 33.6 7.625C34.6455 7.625 35.4667 6.80013 35.4667 5.75V1.875C35.4667 0.824875 34.6455 0 33.6 0Z" fill="#011826"/>
</svg>
