<svg width="24" height="21" viewBox="0 0 24 21" fill="none" xmlns="http://www.w3.org/2000/svg">
<path d="M2.29197 2.8691H22.3757C23.2364 2.8691 23.8102 2.29528 23.8102 1.43455C23.8102 0.57382 23.2364 0 22.3757 0H2.29197C1.43124 0 0.857422 0.57382 0.857422 1.43455C0.857422 2.29528 1.43124 2.8691 2.29197 2.8691ZM2.29197 11.4764H22.3757C23.2364 11.4764 23.8102 10.9026 23.8102 10.0419C23.8102 9.18112 23.2364 8.6073 22.3757 8.6073H2.29197C1.43124 8.6073 0.857422 9.18112 0.857422 10.0419C0.857422 10.9026 1.43124 11.4764 2.29197 11.4764ZM2.29197 20.0837H22.3757C23.2364 20.0837 23.8102 19.5099 23.8102 18.6492C23.8102 17.7884 23.2364 17.2146 22.3757 17.2146H2.29197C1.43124 17.2146 0.857422 17.7884 0.857422 18.6492C0.857422 19.5099 1.43124 20.0837 2.29197 20.0837Z" fill="white"/>
</svg>
