<svg width="20" height="19" viewBox="0 0 20 19" fill="none" xmlns="http://www.w3.org/2000/svg">
<path d="M19.2209 6.33333H16.329L15.7127 2.64417C15.5885 2.08599 15.3158 1.57193 14.9234 1.15655C14.5311 0.741181 14.0339 0.440004 13.4845 0.285C12.9325 0.107073 12.3575 0.0110557 11.7778 0H8.23799C7.65826 0.0110557 7.08327 0.107073 6.5313 0.285C5.9819 0.440004 5.48465 0.741181 5.09234 1.15655C4.70003 1.57193 4.4273 2.08599 4.30312 2.64417L3.68682 6.33333H0.794928C0.670464 6.33258 0.547583 6.36129 0.436295 6.41714C0.325008 6.47298 0.228462 6.55438 0.154524 6.6547C0.0805862 6.75502 0.0313475 6.87142 0.01082 6.99442C-0.00970747 7.11742 -0.000943005 7.24354 0.036399 7.3625L3.0073 17.3375C3.15855 17.8194 3.45921 18.2404 3.8656 18.5394C4.27198 18.8383 4.76292 18.9997 5.26709 19H14.7487C15.2502 18.9963 15.7375 18.8334 16.1408 18.5347C16.544 18.236 16.8422 17.8168 16.9927 17.3375L19.9636 7.3625C20.0005 7.24481 20.0095 7.1201 19.9898 6.99831C19.9701 6.87652 19.9223 6.76103 19.8502 6.66105C19.778 6.56107 19.6835 6.47937 19.5743 6.42247C19.465 6.36558 19.344 6.33505 19.2209 6.33333ZM5.29869 6.33333L5.86759 2.8975C5.92995 2.61697 6.07463 2.36154 6.28301 2.16404C6.4914 1.96653 6.75397 1.83598 7.03699 1.78917C7.42573 1.66567 7.83028 1.59758 8.23799 1.58333H11.7778C12.1902 1.596 12.5995 1.66567 12.9946 1.78917C13.2776 1.83598 13.5402 1.96653 13.7486 2.16404C13.957 2.36154 14.1016 2.61697 14.164 2.8975L14.7171 6.33333H5.23548H5.29869Z" fill="#00D19D"/>
</svg>
