<svg width="56" height="47" viewBox="0 0 56 47" fill="none" xmlns="http://www.w3.org/2000/svg">
<path fill-rule="evenodd" clip-rule="evenodd" d="M26.514 23.7138V7.11563H23.8918L28.0001 0L32.1083 7.11563H29.4861V23.7138C28.5073 23.4974 27.4929 23.4974 26.514 23.7138ZM38.3687 41.8778C38.2524 38.6881 35.6538 36.6304 32.3338 35.7016C29.814 37.764 26.186 37.7638 23.6662 35.7016C20.3464 36.63 17.7475 38.6881 17.6312 41.8778V46.7272H38.3687V41.8778ZM20.7375 35.3025V35.3877C18.7547 36.4222 17.1395 37.9914 16.5267 40.1518H0V35.3023C0.116325 32.1126 2.7152 30.0545 6.03501 29.1262C8.55478 31.1884 12.1828 31.1885 14.7026 29.1262C18.0226 30.0549 20.6212 32.1126 20.7375 35.3023V35.3025ZM45.6313 18.3421C42.6035 18.3421 40.149 20.7967 40.149 23.8244C40.149 26.8522 42.6035 29.3067 45.6313 29.3067C48.659 29.3067 51.1136 26.8522 51.1136 23.8244C51.1136 20.7967 48.659 18.3421 45.6313 18.3421ZM10.3689 18.3421C7.34111 18.3421 4.88656 20.7967 4.88656 23.8244C4.88656 26.8522 7.34111 29.3067 10.3689 29.3067C13.3966 29.3067 15.8512 26.8522 15.8512 23.8244C15.8512 20.7967 13.3966 18.3421 10.3689 18.3421ZM28.0001 24.9174C31.0278 24.9174 33.4824 27.372 33.4824 30.3997C33.4824 33.4275 31.0278 35.882 28.0001 35.882C24.9723 35.882 22.5178 33.4275 22.5178 30.3997C22.5178 27.372 24.9723 24.9174 28.0001 24.9174ZM56 35.3025V40.1519H39.4733C38.8604 37.9915 37.2454 36.4225 35.2625 35.3879V35.3026C35.3788 32.1129 37.9777 30.0548 41.2975 29.1264C43.8173 31.1888 47.4453 31.1888 49.9651 29.1264C53.2851 30.0551 55.8837 32.1129 56 35.3026V35.3025ZM33.8238 26.7962V15.9086L39.3637 12.7102L40.6766 14.9842L44.7849 7.86855H36.5684L37.8813 10.1426L31.6893 13.7175C31.1936 13.9584 30.852 14.4666 30.852 15.0549V24.1725C32.0786 24.7365 33.1122 25.649 33.8238 26.7963V26.7962ZM22.1764 26.7962C22.8881 25.6489 23.9216 24.7363 25.1483 24.1724V15.0548C25.1483 14.4666 24.8065 13.9583 24.3109 13.7174L18.1189 10.1425L19.4318 7.86844H11.2153L15.3236 14.9841L16.6365 12.71L22.1764 15.9085V26.7962Z" fill="#011826"/>
</svg>
