<svg width="56" height="60" viewBox="0 0 56 60" fill="none" xmlns="http://www.w3.org/2000/svg">
<path d="M27.8777 3.32638C28.2975 3.32638 28.7374 2.98583 28.7374 2.56644V0.759936C28.7374 0.340547 28.2975 0 27.8777 0C27.4584 0 27.0181 0.340178 27.0181 0.759814V2.56644C27.0181 2.98571 27.4584 3.32638 27.8777 3.32638ZM34.0147 5.72494C34.1145 5.725 34.2133 5.70537 34.3055 5.66718C34.3977 5.629 34.4814 5.57301 34.552 5.50242L35.829 4.22484C35.8996 4.15431 35.9557 4.07056 35.9939 3.97837C36.0321 3.88617 36.0518 3.78736 36.0518 3.68756C36.0518 3.58776 36.0321 3.48894 35.9939 3.39675C35.9557 3.30456 35.8996 3.2208 35.829 3.15027C35.7585 3.07967 35.6748 3.02366 35.5826 2.98544C35.4904 2.94723 35.3916 2.92756 35.2918 2.92756C35.192 2.92756 35.0931 2.94723 35.0009 2.98544C34.9088 3.02366 34.825 3.07967 34.7545 3.15027L33.4774 4.42785C33.4068 4.49838 33.3508 4.58213 33.3126 4.67432C33.2743 4.76651 33.2547 4.86533 33.2547 4.96513C33.2547 5.06493 33.2743 5.16375 33.3126 5.25594C33.3508 5.34813 33.4068 5.43188 33.4774 5.50242C33.5479 5.57308 33.6316 5.62912 33.7238 5.6673C33.816 5.70549 33.9149 5.72508 34.0147 5.72494ZM21.3731 5.71868C21.4435 5.78947 21.5272 5.8456 21.6195 5.88382C21.7117 5.92204 21.8106 5.94159 21.9105 5.94133C22.0103 5.94147 22.1091 5.92188 22.2013 5.88366C22.2936 5.84545 22.3773 5.78938 22.4477 5.71868C22.5184 5.64815 22.5744 5.56439 22.6126 5.4722C22.6508 5.38001 22.6705 5.28119 22.6705 5.1814C22.6705 5.0816 22.6508 4.98278 22.6126 4.89059C22.5744 4.7984 22.5184 4.71464 22.4477 4.64411L21.1702 3.36715C21.0997 3.29656 21.016 3.24056 20.9238 3.20236C20.8317 3.16415 20.7329 3.14448 20.6331 3.14448C20.5334 3.14448 20.4346 3.16415 20.3425 3.20236C20.2503 3.24056 20.1666 3.29656 20.0961 3.36715C20.0255 3.43764 19.9695 3.52135 19.9313 3.61351C19.8931 3.70566 19.8734 3.80443 19.8734 3.90419C19.8734 4.00395 19.8931 4.10273 19.9313 4.19488C19.9695 4.28703 20.0255 4.37074 20.0961 4.44123L21.3731 5.71868ZM17.7853 13.9277C17.6535 13.2545 17.5874 12.5701 17.5881 11.8841C17.5881 11.1141 17.6726 10.3476 17.839 9.60482C17.8609 9.50746 17.8633 9.40675 17.8463 9.30844C17.8292 9.21014 17.7929 9.11615 17.7395 9.03187C17.6861 8.94759 17.6166 8.87465 17.535 8.81724C17.4534 8.75983 17.3613 8.71906 17.2639 8.69727C16.8575 8.60713 16.4485 8.86232 16.3563 9.2725C16.1647 10.1298 16.0681 11.0057 16.0684 11.8841C16.0684 12.678 16.1443 13.4647 16.2948 14.2228C16.3289 14.3953 16.4217 14.5506 16.5575 14.6623C16.6933 14.774 16.8636 14.8352 17.0394 14.8353C17.0878 14.8353 17.1376 14.8304 17.1876 14.8205C17.2855 14.8011 17.3786 14.7627 17.4617 14.7073C17.5447 14.652 17.616 14.5808 17.6715 14.4979C17.727 14.415 17.7656 14.322 17.7852 14.2241C17.8047 14.1263 17.8048 14.0255 17.7853 13.9277ZM38.2776 16.1536C38.1882 16.1091 38.0909 16.0827 37.9913 16.0758C37.8917 16.069 37.7917 16.0818 37.697 16.1137C37.6024 16.1455 37.515 16.1956 37.4397 16.2613C37.3645 16.3269 37.3029 16.4067 37.2585 16.4962C35.4918 20.0512 31.9299 22.2608 27.9626 22.2618C23.9953 22.2609 20.4338 20.0512 18.6671 16.4961C18.4799 16.12 18.0229 15.9665 17.6482 16.1536C17.2725 16.3402 17.119 16.7585 17.3055 17.1346C19.3305 21.2088 23.4106 23.7063 27.9568 23.7063H27.9688C32.5146 23.7063 36.5956 21.2088 38.62 17.1346C38.8062 16.7585 38.6531 16.3402 38.2775 16.1536H38.2776ZM39.6265 14.2241C39.7796 13.4535 39.8568 12.6698 39.8568 11.8841C39.8568 11.0009 39.7589 10.1188 39.5665 9.26292C39.4744 8.85323 39.0676 8.59509 38.6584 8.68818C38.4618 8.73245 38.2908 8.85298 38.183 9.02328C38.0753 9.19358 38.0395 9.3997 38.0837 9.59635C38.4028 11.0204 38.4205 12.4955 38.1355 13.9268C38.1135 14.0371 38.1162 14.151 38.1436 14.2601C38.1709 14.3692 38.2221 14.4709 38.2935 14.5579C38.3649 14.6448 38.4548 14.7148 38.5565 14.7628C38.6583 14.8107 38.7694 14.8355 38.8819 14.8353C39.0575 14.835 39.2276 14.774 39.3633 14.6626C39.499 14.5512 39.592 14.3963 39.6265 14.2241ZM35.3042 26.408H20.5068C20.0511 26.408 19.5268 26.9468 19.5268 27.4054V58.7637C19.5268 59.2199 20.0515 59.5662 20.5068 59.5662H35.3042C35.7599 59.5662 36.1058 59.2199 36.1058 58.7637V27.4054C36.1058 26.9468 35.7599 26.408 35.3042 26.408Z" fill="#011826"/>
<path d="M22.1477 11.2072L24.8589 13.2253C25.06 13.3712 25.1438 13.6543 25.0672 13.8902L24.0315 17.09C23.8603 17.618 24.4647 18.0633 24.9137 17.7372L27.6251 15.7698C27.7231 15.6987 27.8412 15.6605 27.9623 15.6608C28.0834 15.661 28.2013 15.6997 28.299 15.7713L31.0104 17.742C31.4599 18.0686 32.0643 17.6297 31.8926 17.1015L30.8569 13.9143C30.8195 13.7991 30.8195 13.6751 30.8569 13.5599C30.8943 13.4448 30.9672 13.3444 31.0652 13.2732L33.777 11.2072C34.2265 10.8805 33.9952 10.0741 33.4398 10.0741H30.0883C29.8399 10.0741 29.6197 10.0102 29.5431 9.7738L28.5073 6.63446C28.336 6.10589 27.5887 6.13033 27.4168 6.65853L26.3815 9.76189C26.3044 9.9978 26.0843 10.0741 25.8362 10.0741H22.4844C21.9293 10.0741 21.6986 10.8805 22.1476 11.2072H22.1477ZM16.5791 43.3244C16.5791 43.1045 16.4918 42.8937 16.3363 42.7382C16.1808 42.5827 15.97 42.4954 15.7501 42.4954H0.828955C0.609122 42.4955 0.398312 42.5828 0.242867 42.7383C0.087422 42.8937 6.51066e-05 43.1045 0 43.3244V58.8596C6.51066e-05 59.0794 0.087422 59.2902 0.242867 59.4457C0.398312 59.6011 0.609122 59.6885 0.828955 59.6885H15.7501C15.97 59.6885 16.1808 59.6012 16.3363 59.4457C16.4918 59.2903 16.5791 59.0794 16.5791 58.8596V43.3244ZM6.65129 33.3333C6.71347 33.3784 6.75977 33.4421 6.78355 33.5152C6.80734 33.5882 6.80738 33.667 6.78367 33.74L6.42532 34.842C6.31688 35.1773 6.70016 35.4555 6.9852 35.2487L7.92247 34.5675C7.98458 34.5224 8.05938 34.4981 8.13616 34.4981C8.21293 34.4981 8.28774 34.5224 8.34984 34.5675L9.28736 35.2487C9.57228 35.4555 9.95556 35.1773 9.84712 34.842L9.48877 33.74C9.4652 33.667 9.46527 33.5884 9.48894 33.5153C9.51262 33.4423 9.55871 33.3786 9.62066 33.3333L10.5585 32.6222C10.8431 32.4156 10.6967 31.9339 10.3446 31.9339H9.18604C9.02885 31.9339 8.88873 31.8629 8.84022 31.7132L8.48235 30.6267C8.37342 30.2915 7.89951 30.2991 7.79058 30.6339L7.43271 31.7094C7.38384 31.8591 7.2442 31.9339 7.0864 31.9339H5.92832C5.57622 31.9339 5.42947 32.4156 5.71438 32.6224L6.65129 33.3333Z" fill="#011826"/>
<path d="M8.13614 39.7943C11.8366 39.7943 14.8469 36.7839 14.8469 33.0838C14.8469 29.3838 11.8366 26.373 8.13614 26.373C4.43593 26.373 1.42578 29.3838 1.42578 33.0838C1.42578 36.784 4.43605 39.7941 8.13601 39.7941L8.13614 39.7943ZM8.13614 27.8928C11.0033 27.8928 13.3272 30.2171 13.3272 33.0839C13.3272 35.9507 11.0033 38.2744 8.13614 38.2744C5.2698 38.2744 2.94553 35.9506 2.94553 33.0838C2.94553 30.2169 5.2698 27.8928 8.13614 27.8928ZM56.0006 43.3244C56.0006 43.1045 55.9133 42.8937 55.7578 42.7382C55.6023 42.5828 55.3915 42.4954 55.1716 42.4954H40.2505C40.0306 42.4955 39.8198 42.5828 39.6644 42.7383C39.5089 42.8937 39.4216 43.1045 39.4215 43.3244V58.8596C39.4216 59.0794 39.5089 59.2902 39.6644 59.4457C39.8198 59.6011 40.0306 59.6885 40.2505 59.6885H55.1716C55.3915 59.6885 55.6023 59.6012 55.7578 59.4458C55.9133 59.2903 56.0006 59.0794 56.0006 58.8596V43.3244ZM46.1893 33.3333C46.2514 33.3785 46.2977 33.4422 46.3214 33.5152C46.3452 33.5883 46.3453 33.667 46.3217 33.7401L45.9639 34.842C45.8549 35.1773 46.2382 35.4556 46.5232 35.2488L47.4606 34.5675C47.5227 34.5224 47.5975 34.4981 47.6743 34.4981C47.7511 34.4981 47.8259 34.5224 47.888 34.5675L48.8254 35.2488C49.1103 35.4556 49.4936 35.1773 49.3852 34.842L49.0273 33.7401C49.0035 33.6671 49.0034 33.5884 49.027 33.5154C49.0506 33.4423 49.0967 33.3786 49.1587 33.3333L50.0966 32.6223C50.3811 32.4156 50.2347 31.9339 49.8827 31.9339H48.7237C48.5663 31.9339 48.4268 31.8629 48.3783 31.7132L48.0204 30.6268C47.9115 30.2915 47.4375 30.2991 47.3286 30.6339L46.9708 31.7094C46.9219 31.8591 46.7822 31.9339 46.6249 31.9339H45.4664C45.1143 31.9339 44.9675 32.4156 45.2524 32.6224L46.1893 33.3333Z" fill="#011826"/>
<path d="M47.6731 39.7943C51.3737 39.7943 54.3843 36.7839 54.3843 33.0838C54.3843 29.3838 51.3737 26.373 47.6731 26.373C43.9729 26.373 40.9629 29.3838 40.9629 33.0838C40.9629 36.784 43.9729 39.7941 47.6731 39.7941V39.7943ZM47.6731 27.8928C50.54 27.8928 52.8646 30.2171 52.8646 33.0839C52.8646 35.9507 50.5398 38.2744 47.6731 38.2744C44.8068 38.2744 42.4825 35.9506 42.4825 33.0838C42.4825 30.2169 44.8068 27.8928 47.6731 27.8928Z" fill="#011826"/>
</svg>
