<svg width="56" height="56" viewBox="0 0 56 56" fill="none" xmlns="http://www.w3.org/2000/svg">
<path fill-rule="evenodd" clip-rule="evenodd" d="M56 27.981C56 26.4078 55.005 24.9258 53.5178 23.6234C52.7598 22.9566 51.8847 22.3185 51.1423 21.6647C50.7021 21.2767 50.2724 20.9328 50.1395 20.5031C49.9963 20.0342 50.1395 19.4534 50.2828 18.8309C50.5094 17.8411 50.8532 16.7888 51.0928 15.7965C51.5643 13.8378 51.5252 12.051 50.6761 10.8294C49.7931 9.55833 48.1313 8.95405 46.1466 8.8134C45.1699 8.74568 44.1072 8.76391 43.1382 8.68577C42.5808 8.64149 42.0547 8.62847 41.7109 8.3654L41.7083 8.36279C41.3514 8.09191 41.1743 7.55535 40.9529 6.98754C40.5857 6.04726 40.2757 4.97935 39.9085 4.02344C39.1818 2.11423 38.1034 0.663443 36.6813 0.178978C35.2722 -0.300278 33.5714 0.215443 31.8783 1.33805C31.0553 1.88242 30.2113 2.54921 29.3805 3.07795C28.8908 3.39051 28.4454 3.70568 28 3.70568C27.5546 3.70568 27.1092 3.39051 26.6195 3.07795C25.7887 2.54921 24.9447 1.88242 24.1217 1.33805C22.4286 0.215443 20.7278 -0.300278 19.3187 0.178978C17.8966 0.663443 16.8182 2.11423 16.0915 4.02344C15.7243 4.97935 15.4143 6.04726 15.0471 6.98754C14.8257 7.55535 14.6486 8.09191 14.2917 8.36279L14.2891 8.3654C13.9453 8.62847 13.4192 8.64149 12.8618 8.68577C11.8928 8.76391 10.8327 8.74568 9.8534 8.8134C7.86865 8.95144 6.20688 9.55572 5.32391 10.8268C4.47479 12.0484 4.43572 13.8378 4.90716 15.7965C5.14679 16.7888 5.4906 17.8411 5.71721 18.8309C5.86047 19.4534 6.00372 20.0342 5.86047 20.5031C5.72763 20.9328 5.29786 21.2767 4.85767 21.6647C4.11535 22.3185 3.24019 22.9566 2.48223 23.6234C0.994977 24.9258 0 26.4078 0 27.981C0 29.5542 0.994977 31.0363 2.48223 32.3386C3.24019 33.0028 4.11535 33.6435 4.85767 34.2973C5.29786 34.6854 5.72763 35.0292 5.86047 35.459C6.00372 35.9278 5.86047 36.5086 5.71721 37.1312C5.4906 38.1209 5.14679 39.1732 4.90716 40.1656C4.43572 42.1243 4.47479 43.9111 5.32391 45.1326C6.20688 46.4037 7.86865 47.008 9.8534 47.1486C10.8301 47.2164 11.8928 47.1981 12.8618 47.2763C13.4192 47.3206 13.9453 47.3336 14.2891 47.5966L14.2917 47.5993C14.6486 47.8701 14.8257 48.4067 15.0471 48.9745C15.4143 49.9148 15.7243 50.9827 16.0915 51.9386C16.8182 53.8452 17.8966 55.2986 19.3187 55.7831C20.7278 56.2623 22.4286 55.7466 24.1217 54.624C24.9447 54.0796 25.7887 53.4128 26.6195 52.8841C27.1092 52.5715 27.5546 52.2564 28 52.2564C28.4454 52.2564 28.8908 52.5715 29.3805 52.8841C30.2113 53.4128 31.0553 54.0796 31.8783 54.624C33.5714 55.7466 35.2722 56.2623 36.6813 55.7831C38.1034 55.2986 39.1818 53.8452 39.9085 51.9386C40.2757 50.9827 40.5857 49.9148 40.9529 48.9745C41.1743 48.4067 41.3514 47.8701 41.7083 47.5993L41.7109 47.5966C42.0547 47.3336 42.5808 47.3206 43.1382 47.2763C44.1072 47.1981 45.1673 47.2164 46.1466 47.1486C48.1313 47.0106 49.7931 46.4063 50.6761 45.1353C51.5252 43.9111 51.5643 42.1243 51.0928 40.1656C50.8532 39.1732 50.5094 38.1209 50.2828 37.1312C50.1395 36.5086 49.9963 35.9278 50.1395 35.459C50.2724 35.0292 50.7021 34.6854 51.1423 34.2973C51.8847 33.6435 52.7598 33.0028 53.5178 32.3386C55.005 31.0363 56 29.5542 56 27.981ZM18.8056 29.3615L24.0149 34.5708C24.1961 34.7522 24.4113 34.8962 24.6481 34.9944C24.885 35.0926 25.1389 35.1432 25.3953 35.1432C25.6518 35.1432 25.9057 35.0926 26.1426 34.9944C26.3794 34.8962 26.5946 34.7522 26.7758 34.5708L37.1944 24.1522C37.3757 23.9709 37.5195 23.7557 37.6176 23.5188C37.7157 23.282 37.7662 23.0281 37.7662 22.7717C37.7662 22.5153 37.7157 22.2615 37.6176 22.0246C37.5195 21.7878 37.3757 21.5725 37.1944 21.3913C37.0131 21.21 36.7979 21.0662 36.5611 20.9681C36.3242 20.8699 36.0703 20.8194 35.814 20.8194C35.5576 20.8194 35.3037 20.8699 35.0669 20.9681C34.83 21.0662 34.6148 21.21 34.4335 21.3913L25.3953 30.4268L21.5665 26.6006C21.3852 26.4193 21.17 26.2755 20.9331 26.1774C20.6963 26.0792 20.4424 26.0287 20.186 26.0287C19.9297 26.0287 19.6758 26.0792 19.4389 26.1774C19.2021 26.2755 18.9869 26.4193 18.8056 26.6006C18.6243 26.7818 18.4805 26.9971 18.3824 27.2339C18.2843 27.4708 18.2338 27.7246 18.2338 27.981C18.2338 28.2374 18.2843 28.4913 18.3824 28.7281C18.4805 28.965 18.6243 29.1802 18.8056 29.3615Z" fill="#011826"/>
</svg>
