<svg width="56" height="56" viewBox="0 0 56 56" fill="none" xmlns="http://www.w3.org/2000/svg">
<path fill-rule="evenodd" clip-rule="evenodd" d="M5.6785 22.6339L16.6566 13.0257C16.5005 12.5988 16.421 12.1478 16.4215 11.6932C16.4215 9.55265 18.1568 7.81747 20.2973 7.81747C22.3969 7.81747 24.1064 9.48696 24.1712 11.5709L32.8479 14.6086C33.5587 13.7741 34.6171 13.2448 35.7992 13.2448C36.4426 13.2438 37.0759 13.4037 37.6417 13.7099L47.6446 5.16354C47.499 4.74981 47.4249 4.31436 47.4253 3.87578C47.4253 1.7353 49.1605 0 51.301 0C53.4417 0 55.177 1.7353 55.177 3.87578C55.177 6.01649 53.4417 7.75178 51.301 7.75178C50.6577 7.75278 50.0244 7.59288 49.4586 7.28663L39.4558 15.833C39.6013 16.2468 39.6755 16.6822 39.6751 17.1208C39.6751 19.2613 37.9398 20.9966 35.7991 20.9966C33.6996 20.9966 31.9902 19.3271 31.9254 17.2433L23.2487 14.2055C22.5377 15.0401 21.4795 15.5694 20.2973 15.5694C19.6692 15.5702 19.0504 15.4178 18.4947 15.1252L7.51658 24.7334C7.67263 25.1603 7.75221 25.6113 7.75167 26.0658C7.75167 28.2066 6.01637 29.9416 3.87566 29.9416C1.7353 29.9414 0 28.2063 0 26.0656C0 23.9249 1.7353 22.1898 3.87578 22.1898C4.50387 22.1889 5.12269 22.3413 5.6785 22.6339ZM48.3526 15.4059C47.3889 15.4059 46.6026 16.192 46.6026 17.1559V52.8708C46.6026 53.8347 47.3889 54.6208 48.3526 54.6208H54.2499C55.2139 54.6208 56 53.8347 56 52.8708V17.1559C56 16.192 55.214 15.4059 54.2499 15.4059H48.3526ZM32.8506 29.6777C31.8867 29.6777 31.1007 30.4638 31.1007 31.4277V53.2366C31.1007 54.2006 31.8868 54.9866 32.8506 54.9866H38.7481C39.712 54.9866 40.4979 54.2005 40.4979 53.2366V31.4277C40.4979 30.4638 39.712 29.6777 38.7481 29.6777H32.8506ZM17.3488 24.5541C16.3847 24.5541 15.5987 25.3402 15.5987 26.3041V53.6025C15.5987 54.5664 16.3846 55.3525 17.3488 55.3525H23.246C24.2098 55.3525 24.996 54.5664 24.996 53.6025V26.3041C24.996 25.3402 24.2098 24.5541 23.246 24.5541H17.3488ZM1.84683 39.6177H7.74397C8.70786 39.6177 9.49408 40.4038 9.49408 41.3677V53.9683C9.49408 54.9321 8.70786 55.7182 7.74397 55.7182H1.84683C0.882931 55.7182 0.0967165 54.9321 0.0967165 53.9683V41.3677C0.0968332 40.4037 0.883048 39.6177 1.84683 39.6177Z" fill="#011826"/>
</svg>
