<svg width="56" height="60" viewBox="0 0 56 60" fill="none" xmlns="http://www.w3.org/2000/svg">
<path fill-rule="evenodd" clip-rule="evenodd" d="M20.5003 37.4991C20.5003 33.364 17.1361 29.9993 13.0005 29.9993C8.86492 29.9993 5.50026 33.364 5.50026 37.4991C5.50026 41.6347 8.86504 44.9994 13.0005 44.9994C17.136 44.9994 20.5003 41.6347 20.5003 37.4991ZM13 44.9994C5.82036 44.9994 0 50.8197 0 57.9994C0 58.9663 0.783634 59.7499 1.75049 59.7499H24.2501C25.217 59.7499 26.0005 58.9663 26.0005 57.9994C26.0005 50.8197 20.1803 44.9994 13 44.9994ZM43 29.9993C38.8644 29.9993 35.4997 33.364 35.4997 37.4991C35.4997 41.6347 38.8644 44.9994 43 44.9994C47.1355 44.9994 50.4996 41.6347 50.4996 37.4991C50.4996 33.364 47.1354 29.9993 43 29.9993ZM43 44.9994C35.8202 44.9994 29.9993 50.8197 29.9993 57.9994C29.9993 58.9663 30.7836 59.7499 31.7498 59.7499H54.2495C55.2164 59.7499 56 58.9663 56 57.9994C56 50.8197 50.1796 44.9994 43 44.9994ZM43 26.0005C46.0327 26.0005 48.5003 23.5331 48.5003 20.5003V5.50037C48.5003 2.43551 46.0136 0 43 0H13.0005C9.93365 0 7.49978 2.48849 7.49978 5.50037V20.5003C7.49978 23.5331 9.96726 26.0007 13.0005 26.0007H21.779L26.4347 35.3115C26.58 35.6023 26.8034 35.847 27.0799 36.0179C27.3565 36.1889 27.6752 36.2795 28.0003 36.2795C28.3254 36.2795 28.6441 36.1889 28.9206 36.0179C29.1972 35.847 29.4206 35.6023 29.5659 35.3115L34.2211 26.0007L43 26.0005ZM31.7498 7.49989C32.7163 7.49989 33.5003 8.28435 33.5003 9.25038C33.5003 10.2166 32.7163 11.0009 31.7498 11.0009C30.7839 11.0009 29.9993 10.2166 29.9993 9.25038C29.9993 8.28435 30.7839 7.49989 31.7498 7.49989ZM24.2502 7.49989C25.2166 7.49989 26.0007 8.28435 26.0007 9.25038C26.0007 10.2166 25.2166 11.0009 24.2502 11.0009C23.2838 11.0009 22.4997 10.2166 22.4997 9.25038C22.4997 8.28435 23.2838 7.49989 24.2502 7.49989ZM28.0001 19.4382C25.2498 19.4382 22.6232 18.1249 20.9743 15.9254C20.3946 15.1517 20.5519 14.0546 21.3253 13.4748C22.0991 12.8949 23.1963 13.0517 23.7756 13.8253C24.767 15.1478 26.3462 15.9372 28.0001 15.9372C29.6539 15.9372 31.233 15.1478 32.2244 13.8253C32.8043 13.0516 33.9014 12.8944 34.6751 13.4748C35.4487 14.0546 35.6054 15.1517 35.0257 15.9254C33.3767 18.1249 30.7502 19.4382 28.0001 19.4382Z" fill="#011826"/>
</svg>
