<svg width="14" height="10" viewBox="0 0 14 10" fill="none" xmlns="http://www.w3.org/2000/svg">
<path d="M10.9266 6.11888C10.3215 6.11888 9.72996 5.93945 9.22684 5.60327C8.72372 5.26709 8.33158 4.78928 8.10002 4.23024C7.86846 3.6712 7.80787 3.05605 7.92592 2.46257C8.04397 1.8691 8.33535 1.32396 8.76322 0.89609C9.19109 0.46822 9.73623 0.176837 10.3297 0.0587876C10.9232 -0.0592615 11.5383 0.0013256 12.0974 0.232887C12.6564 0.464449 13.1342 0.856585 13.4704 1.35971C13.8066 1.86283 13.986 2.45434 13.986 3.05944L14 3.4965C14 4.30005 13.8417 5.09572 13.5342 5.8381C13.2267 6.58047 12.776 7.25501 12.2078 7.8232C11.6396 8.39139 10.9651 8.84211 10.2227 9.14961C9.48034 9.45711 8.68466 9.61538 7.88112 9.61538V7.86713C8.45533 7.86867 9.02415 7.75637 9.55469 7.53671C10.0852 7.31705 10.567 6.9944 10.972 6.58741C11.1295 6.43027 11.2747 6.26137 11.4065 6.08217C11.2477 6.10711 11.0873 6.11968 10.9266 6.11975V6.11888ZM3.05944 6.11888C2.45434 6.11888 1.86283 5.93945 1.35971 5.60327C0.856585 5.26709 0.464449 4.78928 0.232887 4.23024C0.00132563 3.6712 -0.0592615 3.05605 0.0587877 2.46257C0.176837 1.8691 0.46822 1.32396 0.896091 0.89609C1.32396 0.46822 1.8691 0.176837 2.46257 0.0587876C3.05605 -0.0592615 3.6712 0.0013256 4.23024 0.232887C4.78928 0.464449 5.2671 0.856585 5.60327 1.35971C5.93945 1.86283 6.11888 2.45434 6.11888 3.05944L6.13287 3.4965C6.13287 5.11933 5.4882 6.67569 4.34069 7.8232C3.19318 8.97071 1.63682 9.61538 0.0139874 9.61538V7.86713C0.588199 7.86867 1.15702 7.75637 1.68756 7.53671C2.2181 7.31705 2.69983 6.9944 3.1049 6.58741C3.26233 6.43027 3.40756 6.26137 3.53934 6.08217C3.38059 6.10711 3.22014 6.11968 3.05944 6.11975V6.11888Z" fill="white"/>
</svg>
