<svg width="579" height="150" viewBox="0 0 579 150" fill="none" xmlns="http://www.w3.org/2000/svg">
<mask id="path-1-inside-1_1859_922" fill="white">
<path fill-rule="evenodd" clip-rule="evenodd" d="M75 0C33.5786 0 0 33.5786 0 75C0 116.421 33.5786 150 74.9999 150H493.005C534.426 150 568.005 116.421 568.005 75C568.005 64.8701 565.997 55.2093 562.357 46.394L578.122 24.2267L553.777 31.0383C540.149 12.2323 518.006 0 493.005 0H75Z"/>
</mask>
<path fill-rule="evenodd" clip-rule="evenodd" d="M75 0C33.5786 0 0 33.5786 0 75C0 116.421 33.5786 150 74.9999 150H493.005C534.426 150 568.005 116.421 568.005 75C568.005 64.8701 565.997 55.2093 562.357 46.394L578.122 24.2267L553.777 31.0383C540.149 12.2323 518.006 0 493.005 0H75Z" fill="#011826"/>
<path d="M562.357 46.394L560.727 45.2349L560.086 46.1357L560.508 47.1573L562.357 46.394ZM578.122 24.2267L579.752 25.3859L583.029 20.7768L577.583 22.3007L578.122 24.2267ZM553.777 31.0383L552.157 32.2119L552.974 33.3396L554.316 32.9644L553.777 31.0383ZM2 75C2 34.6832 34.6832 2 75 2V-2C32.4741 -2 -2 32.4741 -2 75H2ZM74.9999 148C34.6831 148 2 115.317 2 75H-2C-2 117.526 32.474 152 74.9999 152V148ZM493.005 148H74.9999V152H493.005V148ZM566.005 75C566.005 115.317 533.322 148 493.005 148V152C535.531 152 570.005 117.526 570.005 75H566.005ZM560.508 47.1573C564.05 55.7348 566.005 65.1366 566.005 75H570.005C570.005 64.6037 567.944 54.6838 564.205 45.6306L560.508 47.1573ZM576.492 23.0676L560.727 45.2349L563.987 47.5531L579.752 25.3859L576.492 23.0676ZM554.316 32.9644L578.661 26.1528L577.583 22.3007L553.238 29.1123L554.316 32.9644ZM493.005 2C517.337 2 538.889 13.9027 552.157 32.2119L555.396 29.8648C541.408 10.562 518.674 -2 493.005 -2V2ZM75 2H493.005V-2H75V2Z" fill="white" mask="url(#path-1-inside-1_1859_922)"/>
<circle cx="495" cy="75" r="62" fill="white"/>
<path fill-rule="evenodd" clip-rule="evenodd" d="M493.514 75.7138V59.1156H490.892L495 52L499.108 59.1156H496.486V75.7138C495.507 75.4974 494.493 75.4974 493.514 75.7138ZM505.369 93.8778C505.252 90.6881 502.654 88.6304 499.334 87.7016C496.814 89.764 493.186 89.7638 490.666 87.7016C487.346 88.63 484.748 90.6881 484.631 93.8778V98.7272H505.369V93.8778ZM487.737 87.3025V87.3877C485.755 88.4222 484.139 89.9914 483.527 92.1518H467V87.3024C467.116 84.1126 469.715 82.0545 473.035 81.1262C475.555 83.1884 479.183 83.1885 481.703 81.1262C485.023 82.0549 487.621 84.1126 487.737 87.3024V87.3025ZM512.631 70.3421C509.604 70.3421 507.149 72.7967 507.149 75.8244C507.149 78.8522 509.604 81.3067 512.631 81.3067C515.659 81.3067 518.114 78.8522 518.114 75.8244C518.114 72.7967 515.659 70.3421 512.631 70.3421ZM477.369 70.3421C474.341 70.3421 471.887 72.7967 471.887 75.8244C471.887 78.8522 474.341 81.3067 477.369 81.3067C480.397 81.3067 482.851 78.8522 482.851 75.8244C482.851 72.7967 480.397 70.3421 477.369 70.3421ZM495 76.9174C498.028 76.9174 500.482 79.372 500.482 82.3997C500.482 85.4275 498.028 87.882 495 87.882C491.972 87.882 489.518 85.4275 489.518 82.3997C489.518 79.372 491.972 76.9174 495 76.9174ZM523 87.3025V92.1519H506.473C505.86 89.9915 504.245 88.4225 502.263 87.3879V87.3026C502.379 84.1129 504.978 82.0548 508.298 81.1264C510.817 83.1888 514.445 83.1888 516.965 81.1264C520.285 82.0551 522.884 84.1129 523 87.3026V87.3025ZM500.824 78.7962V67.9086L506.364 64.7102L507.677 66.9842L511.785 59.8686H503.568L504.881 62.1426L498.689 65.7175C498.194 65.9584 497.852 66.4666 497.852 67.0549V76.1725C499.079 76.7365 500.112 77.649 500.824 78.7963V78.7962ZM489.176 78.7962C489.888 77.6489 490.922 76.7363 492.148 76.1724V67.0548C492.148 66.4666 491.806 65.9583 491.311 65.7174L485.119 62.1425L486.432 59.8684H478.215L482.324 66.9841L483.637 64.71L489.176 67.9085V78.7962Z" fill="#011826"/>
</svg>
