<svg width="524" height="150" viewBox="0 0 524 150" fill="none" xmlns="http://www.w3.org/2000/svg">
<mask id="path-1-inside-1_1864_1305" fill="white">
<path fill-rule="evenodd" clip-rule="evenodd" d="M75 0C33.5786 0 0 33.5786 0 75C0 116.421 33.5787 150 75 150H420.772C458.849 150 490.299 121.624 495.129 84.8644L523.551 75.0742L495.149 65.291C490.388 28.4562 458.903 0 420.772 0H75Z"/>
</mask>
<path fill-rule="evenodd" clip-rule="evenodd" d="M75 0C33.5786 0 0 33.5786 0 75C0 116.421 33.5787 150 75 150H420.772C458.849 150 490.299 121.624 495.129 84.8644L523.551 75.0742L495.149 65.291C490.388 28.4562 458.903 0 420.772 0H75Z" fill="#011826"/>
<path d="M495.129 84.8644L494.477 82.9734L493.307 83.3765L493.146 84.6038L495.129 84.8644ZM523.551 75.0742L524.202 76.9652L529.692 75.0742L524.202 73.1833L523.551 75.0742ZM495.149 65.291L493.165 65.5474L493.324 66.7779L494.498 67.182L495.149 65.291ZM2 75C2 34.6832 34.6832 2 75 2V-2C32.4741 -2 -2 32.4741 -2 75H2ZM75 148C34.6832 148 2 115.317 2 75H-2C-2 117.526 32.4741 152 75 152V148ZM420.772 148H75V152H420.772V148ZM493.146 84.6038C488.445 120.381 457.832 148 420.772 148V152C459.866 152 492.153 122.867 497.112 85.1249L493.146 84.6038ZM522.899 73.1833L494.477 82.9734L495.78 86.7553L524.202 76.9652L522.899 73.1833ZM494.498 67.182L522.899 76.9652L524.202 73.1833L495.8 63.4001L494.498 67.182ZM420.772 2C457.884 2 488.531 29.6968 493.165 65.5474L497.132 65.0347C492.244 27.2155 459.921 -2 420.772 -2V2ZM75 2H420.772V-2H75V2Z" fill="white" mask="url(#path-1-inside-1_1864_1305)"/>
<circle cx="423" cy="75" r="62" fill="white"/>
<path fill-rule="evenodd" clip-rule="evenodd" d="M400.679 69.6339L411.657 60.0257C411.501 59.5988 411.421 59.1478 411.421 58.6932C411.421 56.5526 413.157 54.8175 415.297 54.8175C417.397 54.8175 419.106 56.487 419.171 58.5709L427.848 61.6086C428.559 60.7741 429.617 60.2448 430.799 60.2448C431.443 60.2438 432.076 60.4037 432.642 60.7099L442.645 52.1635C442.499 51.7498 442.425 51.3144 442.425 50.8758C442.425 48.7353 444.161 47 446.301 47C448.442 47 450.177 48.7353 450.177 50.8758C450.177 53.0165 448.442 54.7518 446.301 54.7518C445.658 54.7528 445.024 54.5929 444.459 54.2866L434.456 62.833C434.601 63.2468 434.675 63.6822 434.675 64.1208C434.675 66.2613 432.94 67.9966 430.799 67.9966C428.7 67.9966 426.99 66.3271 426.925 64.2433L418.249 61.2055C417.538 62.0401 416.479 62.5694 415.297 62.5694C414.669 62.5702 414.05 62.4178 413.495 62.1252L402.517 71.7334C402.673 72.1603 402.752 72.6113 402.752 73.0658C402.752 75.2066 401.016 76.9416 398.876 76.9416C396.735 76.9414 395 75.2063 395 73.0656C395 70.9249 396.735 69.1898 398.876 69.1898C399.504 69.1889 400.123 69.3413 400.679 69.6339ZM443.353 62.4059C442.389 62.4059 441.603 63.192 441.603 64.1559V99.8708C441.603 100.835 442.389 101.621 443.353 101.621H449.25C450.214 101.621 451 100.835 451 99.8708V64.1559C451 63.192 450.214 62.4059 449.25 62.4059H443.353ZM427.851 76.6777C426.887 76.6777 426.101 77.4638 426.101 78.4277V100.237C426.101 101.201 426.887 101.987 427.851 101.987H433.748C434.712 101.987 435.498 101.201 435.498 100.237V78.4277C435.498 77.4638 434.712 76.6777 433.748 76.6777H427.851ZM412.349 71.5541C411.385 71.5541 410.599 72.3402 410.599 73.3041V100.602C410.599 101.566 411.385 102.352 412.349 102.352H418.246C419.21 102.352 419.996 101.566 419.996 100.602V73.3041C419.996 72.3402 419.21 71.5541 418.246 71.5541H412.349ZM396.847 86.6177H402.744C403.708 86.6177 404.494 87.4038 404.494 88.3677V100.968C404.494 101.932 403.708 102.718 402.744 102.718H396.847C395.883 102.718 395.097 101.932 395.097 100.968V88.3677C395.097 87.4037 395.883 86.6177 396.847 86.6177Z" fill="#011826"/>
</svg>
