<svg width="581" height="150" viewBox="0 0 581 150" fill="none" xmlns="http://www.w3.org/2000/svg">
<mask id="path-1-inside-1_1864_1273" fill="white">
<path fill-rule="evenodd" clip-rule="evenodd" d="M75 0C33.5786 0 0 33.5786 0 75C0 116.421 33.5787 150 75 150H492.409C516.064 150 537.161 139.049 550.907 121.94L580.607 127.119L560.821 105.783C565.053 96.3909 567.409 85.9705 567.409 75C567.409 33.5786 533.83 0 492.409 0H75Z"/>
</mask>
<path fill-rule="evenodd" clip-rule="evenodd" d="M75 0C33.5786 0 0 33.5786 0 75C0 116.421 33.5787 150 75 150H492.409C516.064 150 537.161 139.049 550.907 121.94L580.607 127.119L560.821 105.783C565.053 96.3909 567.409 85.9705 567.409 75C567.409 33.5786 533.83 0 492.409 0H75Z" fill="#011826"/>
<path d="M550.907 121.94L551.251 119.97L550.087 119.767L549.348 120.687L550.907 121.94ZM580.607 127.119L580.263 129.089L586.106 130.108L582.073 125.759L580.607 127.119ZM560.821 105.783L558.997 104.961L558.452 106.17L559.354 107.143L560.821 105.783ZM2 75C2 34.6832 34.6832 2 75 2V-2C32.4741 -2 -2 32.4741 -2 75H2ZM75 148C34.6833 148 2 115.317 2 75H-2C-2 117.526 32.4741 152 75 152V148ZM492.409 148H75V152H492.409V148ZM549.348 120.687C535.965 137.344 515.432 148 492.409 148V152C516.695 152 538.357 140.754 552.466 123.193L549.348 120.687ZM580.95 125.149L551.251 119.97L550.563 123.91L580.263 129.089L580.95 125.149ZM559.354 107.143L579.14 128.479L582.073 125.759L562.287 104.423L559.354 107.143ZM565.409 75C565.409 85.6816 563.116 95.8223 558.997 104.961L562.644 106.605C566.991 96.9594 569.409 86.2594 569.409 75H565.409ZM492.409 2C532.726 2 565.409 34.6832 565.409 75H569.409C569.409 32.4741 534.935 -2 492.409 -2V2ZM75 2H492.409V-2H75V2Z" fill="white" mask="url(#path-1-inside-1_1864_1273)"/>
<circle cx="495" cy="75" r="62" fill="white"/>
<path d="M523 84.5C523 82.4375 521.32 80.75 519.267 80.75C521.32 80.75 523 79.0625 523 77C523 74.9375 521.32 73.25 519.267 73.25H503.96C506.237 66.3874 506.2 64.2 506.2 60C506.2 56.8799 503.653 54.375 500.6 54.375H499.48C498.771 54.375 497.875 54.9376 497.688 55.8C495.841 63.0226 492.954 71.3105 485.667 72.9893V100.122L492.125 102.275C494.029 102.912 496.008 103.25 498.024 103.25H515.533C517.595 103.25 519.267 101.571 519.267 99.5C519.267 97.4289 517.595 95.75 515.533 95.75H519.267C521.32 95.75 523 94.0625 523 92C523 89.9375 521.32 88.25 519.267 88.25C521.32 88.25 523 86.5625 523 84.5ZM476.333 69.5H468.867C467.835 69.5 467 70.3386 467 71.375V105.125C467 106.161 467.835 107 468.867 107H476.333C479.421 107 481.933 104.477 481.933 101.375V75.125C481.933 72.0233 479.421 69.5 476.333 69.5ZM476.333 99.5C475.302 99.5 474.467 98.6605 474.467 97.625C474.467 96.5892 475.302 95.75 476.333 95.75C477.364 95.75 478.2 96.5892 478.2 97.625C478.2 98.6605 477.364 99.5 476.333 99.5ZM492.679 51.2677L490.04 48.6164C489.311 47.884 488.129 47.884 487.4 48.6164C486.671 49.3487 486.671 50.5354 487.4 51.2677L490.04 53.9191C490.769 54.6515 491.95 54.6515 492.679 53.9191C493.409 53.1867 493.409 52.0001 492.679 51.2677ZM513.8 48.6164C513.071 47.884 511.889 47.884 511.16 48.6164L508.521 51.2677C507.791 52.0001 507.791 53.1867 508.521 53.9191C509.25 54.6515 510.431 54.6515 511.16 53.9191L513.8 51.2677C514.529 50.5354 514.529 49.3487 513.8 48.6164ZM500.6 43C499.555 43 498.733 43.8249 498.733 44.875V48.75C498.733 49.8001 499.555 50.625 500.6 50.625C501.645 50.625 502.467 49.8001 502.467 48.75V44.875C502.467 43.8249 501.645 43 500.6 43Z" fill="#011826"/>
</svg>
