<svg width="580" height="150" viewBox="0 0 580 150" fill="none" xmlns="http://www.w3.org/2000/svg">
<mask id="path-1-inside-1_1864_1283" fill="white">
<path fill-rule="evenodd" clip-rule="evenodd" d="M505 0C546.421 0 580 33.5786 580 75C580 116.421 546.421 150 505 150H88.1816C64.5257 150 43.4277 139.048 29.6816 121.938L0.000244141 127.119L19.7684 105.78C15.5365 96.3886 13.1816 85.9693 13.1816 75C13.1816 33.5786 46.7602 0 88.1816 0H505Z"/>
</mask>
<path fill-rule="evenodd" clip-rule="evenodd" d="M505 0C546.421 0 580 33.5786 580 75C580 116.421 546.421 150 505 150H88.1816C64.5257 150 43.4277 139.048 29.6816 121.938L0.000244141 127.119L19.7684 105.78C15.5365 96.3886 13.1816 85.9693 13.1816 75C13.1816 33.5786 46.7602 0 88.1816 0H505Z" fill="#011826"/>
<path d="M29.6816 121.938L29.3377 119.968L30.5011 119.765L31.2408 120.685L29.6816 121.938ZM0.000244141 127.119L0.344171 129.089L-5.49557 130.109L-1.46695 125.76L0.000244141 127.119ZM19.7684 105.78L21.5918 104.958L22.1363 106.167L21.2356 107.139L19.7684 105.78ZM578 75C578 34.6832 545.317 2 505 2V-2C547.526 -2 582 32.4741 582 75H578ZM505 148C545.317 148 578 115.317 578 75H582C582 117.526 547.526 152 505 152V148ZM88.1816 148H505V152H88.1816V148ZM31.2408 120.685C44.6236 137.343 65.1574 148 88.1816 148V152C63.894 152 42.2319 140.753 28.1225 123.19L31.2408 120.685ZM-0.343683 125.149L29.3377 119.968L30.0256 123.908L0.344171 129.089L-0.343683 125.149ZM21.2356 107.139L1.46743 128.478L-1.46695 125.76L18.3012 104.421L21.2356 107.139ZM15.1816 75C15.1816 85.6805 17.474 95.8202 21.5918 104.958L17.9449 106.602C13.599 96.9571 11.1816 86.2582 11.1816 75H15.1816ZM88.1816 2C47.8648 2 15.1816 34.6832 15.1816 75H11.1816C11.1816 32.4741 45.6556 -2 88.1816 -2V2ZM505 2H88.1816V-2H505V2Z" fill="white" mask="url(#path-1-inside-1_1864_1283)"/>
<circle cx="90" cy="75" r="62" fill="white"/>
<path d="M89.8777 48.3264C90.2975 48.3264 90.7374 47.9858 90.7374 47.5664V45.7599C90.7374 45.3405 90.2975 45 89.8777 45C89.4584 45 89.0181 45.3402 89.0181 45.7598V47.5664C89.0181 47.9857 89.4584 48.3264 89.8777 48.3264ZM96.0147 50.7249C96.1145 50.725 96.2133 50.7054 96.3055 50.6672C96.3977 50.629 96.4814 50.573 96.552 50.5024L97.829 49.2248C97.8996 49.1543 97.9557 49.0706 97.9939 48.9784C98.0321 48.8862 98.0518 48.7874 98.0518 48.6876C98.0518 48.5878 98.0321 48.4889 97.9939 48.3968C97.9557 48.3046 97.8996 48.2208 97.829 48.1503C97.7585 48.0797 97.6748 48.0237 97.5826 47.9854C97.4904 47.9472 97.3916 47.9276 97.2918 47.9276C97.192 47.9276 97.0931 47.9472 97.0009 47.9854C96.9088 48.0237 96.825 48.0797 96.7545 48.1503L95.4774 49.4278C95.4068 49.4984 95.3508 49.5821 95.3126 49.6743C95.2743 49.7665 95.2547 49.8653 95.2547 49.9651C95.2547 50.0649 95.2743 50.1637 95.3126 50.2559C95.3508 50.3481 95.4068 50.4319 95.4774 50.5024C95.5479 50.5731 95.6316 50.6291 95.7238 50.6673C95.816 50.7055 95.9149 50.7251 96.0147 50.7249ZM83.3731 50.7187C83.4435 50.7895 83.5272 50.8456 83.6195 50.8838C83.7117 50.922 83.8106 50.9416 83.9105 50.9413C84.0103 50.9415 84.1091 50.9219 84.2013 50.8837C84.2936 50.8455 84.3773 50.7894 84.4477 50.7187C84.5184 50.6481 84.5744 50.5644 84.6126 50.4722C84.6508 50.38 84.6705 50.2812 84.6705 50.1814C84.6705 50.0816 84.6508 49.9828 84.6126 49.8906C84.5744 49.7984 84.5184 49.7146 84.4477 49.6441L83.1702 48.3672C83.0997 48.2966 83.016 48.2406 82.9238 48.2024C82.8317 48.1641 82.7329 48.1445 82.6331 48.1445C82.5334 48.1445 82.4346 48.1641 82.3425 48.2024C82.2503 48.2406 82.1666 48.2966 82.0961 48.3672C82.0255 48.4376 81.9695 48.5214 81.9313 48.6135C81.8931 48.7057 81.8734 48.8044 81.8734 48.9042C81.8734 49.0039 81.8931 49.1027 81.9313 49.1949C81.9695 49.287 82.0255 49.3707 82.0961 49.4412L83.3731 50.7187ZM79.7853 58.9277C79.6535 58.2545 79.5874 57.5701 79.5881 56.8841C79.5881 56.1141 79.6726 55.3476 79.839 54.6048C79.8609 54.5075 79.8633 54.4068 79.8463 54.3084C79.8292 54.2101 79.7929 54.1162 79.7395 54.0319C79.6861 53.9476 79.6166 53.8747 79.535 53.8172C79.4534 53.7598 79.3613 53.7191 79.2639 53.6973C78.8575 53.6071 78.4485 53.8623 78.3563 54.2725C78.1647 55.1298 78.0681 56.0057 78.0684 56.8841C78.0684 57.678 78.1443 58.4647 78.2948 59.2228C78.3289 59.3953 78.4217 59.5506 78.5575 59.6623C78.6933 59.774 78.8636 59.8352 79.0394 59.8353C79.0878 59.8353 79.1376 59.8304 79.1876 59.8205C79.2855 59.8011 79.3786 59.7627 79.4617 59.7073C79.5447 59.652 79.616 59.5808 79.6715 59.4979C79.727 59.415 79.7656 59.322 79.7852 59.2241C79.8047 59.1263 79.8048 59.0255 79.7853 58.9277ZM100.278 61.1536C100.188 61.1091 100.091 61.0827 99.9913 61.0758C99.8917 61.069 99.7917 61.0818 99.697 61.1137C99.6024 61.1455 99.515 61.1956 99.4397 61.2613C99.3645 61.3269 99.3029 61.4067 99.2585 61.4962C97.4918 65.0512 93.9299 67.2608 89.9626 67.2618C85.9953 67.2609 82.4338 65.0512 80.6671 61.4961C80.4799 61.12 80.0229 60.9665 79.6482 61.1536C79.2725 61.3402 79.119 61.7585 79.3055 62.1346C81.3305 66.2088 85.4106 68.7063 89.9568 68.7063H89.9688C94.5146 68.7063 98.5956 66.2088 100.62 62.1346C100.806 61.7585 100.653 61.3402 100.277 61.1536H100.278ZM101.627 59.2241C101.78 58.4535 101.857 57.6698 101.857 56.8841C101.857 56.0009 101.759 55.1188 101.566 54.2629C101.474 53.8532 101.068 53.5951 100.658 53.6882C100.462 53.7324 100.291 53.853 100.183 54.0233C100.075 54.1936 100.04 54.3997 100.084 54.5963C100.403 56.0204 100.42 57.4955 100.135 58.9268C100.113 59.0371 100.116 59.151 100.144 59.2601C100.171 59.3692 100.222 59.4709 100.294 59.5579C100.365 59.6448 100.455 59.7148 100.557 59.7628C100.658 59.8107 100.769 59.8355 100.882 59.8353C101.057 59.835 101.228 59.774 101.363 59.6626C101.499 59.5512 101.592 59.3963 101.627 59.2241ZM97.3042 71.408H82.5068C82.0511 71.408 81.5268 71.9468 81.5268 72.4054V103.764C81.5268 104.22 82.0515 104.566 82.5068 104.566H97.3042C97.7599 104.566 98.1058 104.22 98.1058 103.764V72.4054C98.1058 71.9468 97.7599 71.408 97.3042 71.408Z" fill="#011826"/>
<path d="M84.1477 56.2072L86.8589 58.2253C87.06 58.3712 87.1438 58.6543 87.0672 58.8902L86.0315 62.09C85.8603 62.618 86.4647 63.0633 86.9137 62.7372L89.6251 60.7698C89.7231 60.6987 89.8412 60.6605 89.9623 60.6608C90.0834 60.661 90.2013 60.6997 90.299 60.7713L93.0104 62.742C93.4599 63.0686 94.0643 62.6297 93.8926 62.1015L92.8569 58.9143C92.8195 58.7991 92.8195 58.6751 92.8569 58.5599C92.8943 58.4448 92.9672 58.3444 93.0652 58.2732L95.777 56.2072C96.2265 55.8805 95.9952 55.0741 95.4398 55.0741H92.0883C91.8399 55.0741 91.6197 55.0102 91.5431 54.7738L90.5073 51.6345C90.336 51.1059 89.5887 51.1303 89.4168 51.6585L88.3815 54.7619C88.3044 54.9978 88.0843 55.0741 87.8362 55.0741H84.4844C83.9293 55.0741 83.6986 55.8805 84.1476 56.2072H84.1477ZM78.5791 88.3244C78.5791 88.1045 78.4918 87.8937 78.3363 87.7382C78.1808 87.5827 77.97 87.4954 77.7501 87.4954H62.829C62.6091 87.4955 62.3983 87.5828 62.2429 87.7383C62.0874 87.8937 62.0001 88.1045 62 88.3244V103.86C62.0001 104.079 62.0874 104.29 62.2429 104.446C62.3983 104.601 62.6091 104.688 62.829 104.689H77.7501C77.97 104.689 78.1808 104.601 78.3363 104.446C78.4918 104.29 78.5791 104.079 78.5791 103.86V88.3244ZM68.6513 78.3333C68.7135 78.3784 68.7598 78.4421 68.7836 78.5152C68.8073 78.5882 68.8074 78.667 68.7837 78.74L68.4253 79.842C68.3169 80.1773 68.7002 80.4555 68.9852 80.2487L69.9225 79.5675C69.9846 79.5224 70.0594 79.4981 70.1362 79.4981C70.2129 79.4981 70.2877 79.5224 70.3498 79.5675L71.2874 80.2487C71.5723 80.4555 71.9556 80.1773 71.8471 79.842L71.4888 78.74C71.4652 78.667 71.4653 78.5884 71.4889 78.5153C71.5126 78.4423 71.5587 78.3786 71.6207 78.3333L72.5585 77.6222C72.8431 77.4156 72.6967 76.9339 72.3446 76.9339H71.186C71.0289 76.9339 70.8887 76.8629 70.8402 76.7132L70.4824 75.6267C70.3734 75.2915 69.8995 75.2991 69.7906 75.6339L69.4327 76.7094C69.3838 76.8591 69.2442 76.9339 69.0864 76.9339H67.9283C67.5762 76.9339 67.4295 77.4156 67.7144 77.6224L68.6513 78.3333Z" fill="#011826"/>
<path d="M70.1361 84.7943C73.8366 84.7943 76.8469 81.7839 76.8469 78.0838C76.8469 74.3838 73.8366 71.373 70.1361 71.373C66.4359 71.373 63.4258 74.3838 63.4258 78.0838C63.4258 81.784 66.4361 84.7941 70.136 84.7941L70.1361 84.7943ZM70.1361 72.8928C73.0033 72.8928 75.3272 75.2171 75.3272 78.0839C75.3272 80.9507 73.0033 83.2744 70.1361 83.2744C67.2698 83.2744 64.9455 80.9506 64.9455 78.0838C64.9455 75.2169 67.2698 72.8928 70.1361 72.8928ZM118.001 88.3244C118.001 88.1045 117.913 87.8937 117.758 87.7382C117.602 87.5828 117.391 87.4954 117.172 87.4954H102.25C102.031 87.4955 101.82 87.5828 101.664 87.7383C101.509 87.8937 101.422 88.1045 101.421 88.3244V103.86C101.422 104.079 101.509 104.29 101.664 104.446C101.82 104.601 102.031 104.688 102.25 104.689H117.172C117.391 104.689 117.602 104.601 117.758 104.446C117.913 104.29 118.001 104.079 118.001 103.86V88.3244ZM108.189 78.3333C108.251 78.3785 108.298 78.4422 108.321 78.5152C108.345 78.5883 108.345 78.667 108.322 78.7401L107.964 79.842C107.855 80.1773 108.238 80.4556 108.523 80.2488L109.461 79.5675C109.523 79.5224 109.598 79.4981 109.674 79.4981C109.751 79.4981 109.826 79.5224 109.888 79.5675L110.825 80.2488C111.11 80.4556 111.494 80.1773 111.385 79.842L111.027 78.7401C111.004 78.6671 111.003 78.5884 111.027 78.5154C111.051 78.4423 111.097 78.3786 111.159 78.3333L112.097 77.6223C112.381 77.4156 112.235 76.9339 111.883 76.9339H110.724C110.566 76.9339 110.427 76.8629 110.378 76.7132L110.02 75.6268C109.911 75.2915 109.438 75.2991 109.329 75.6339L108.971 76.7094C108.922 76.8591 108.782 76.9339 108.625 76.9339H107.466C107.114 76.9339 106.968 77.4156 107.252 77.6224L108.189 78.3333Z" fill="#011826"/>
<path d="M109.673 84.7943C113.374 84.7943 116.384 81.7839 116.384 78.0838C116.384 74.3838 113.374 71.373 109.673 71.373C105.973 71.373 102.963 74.3838 102.963 78.0838C102.963 81.784 105.973 84.7941 109.673 84.7941V84.7943ZM109.673 72.8928C112.54 72.8928 114.865 75.2171 114.865 78.0839C114.865 80.9507 112.54 83.2744 109.673 83.2744C106.807 83.2744 104.483 80.9506 104.483 78.0838C104.483 75.2169 106.807 72.8928 109.673 72.8928Z" fill="#011826"/>
</svg>
