<svg width="527" height="150" viewBox="0 0 527 150" fill="none" xmlns="http://www.w3.org/2000/svg">
<mask id="path-1-inside-1_1864_1291" fill="white">
<path fill-rule="evenodd" clip-rule="evenodd" d="M452 0C493.421 0 527 33.5786 527 75C527 116.421 493.421 150 452 150H102.962C64.8842 150 33.4338 121.623 28.605 84.8629L0 75.0742L28.5847 65.2925C33.3452 28.4569 64.8304 0 102.962 0H452Z"/>
</mask>
<path fill-rule="evenodd" clip-rule="evenodd" d="M452 0C493.421 0 527 33.5786 527 75C527 116.421 493.421 150 452 150H102.962C64.8842 150 33.4338 121.623 28.605 84.8629L0 75.0742L28.5847 65.2925C33.3452 28.4569 64.8304 0 102.962 0H452Z" fill="#011826"/>
<path d="M28.605 84.8629L29.2525 82.9706L30.4264 83.3723L30.5879 84.6024L28.605 84.8629ZM0 75.0742L-0.647536 76.9665L-6.17726 75.0742L-0.647536 73.1819L0 75.0742ZM28.5847 65.2925L30.5683 65.5489L30.4089 66.7822L29.2323 67.1848L28.5847 65.2925ZM525 75C525 34.6832 492.317 2 452 2V-2C494.526 -2 529 32.4741 529 75H525ZM452 148C492.317 148 525 115.317 525 75H529C529 117.526 494.526 152 452 152V148ZM102.962 148H452V152H102.962V148ZM30.5879 84.6024C35.2877 120.38 65.9012 148 102.962 148V152C63.8672 152 31.5798 122.866 26.622 85.1233L30.5879 84.6024ZM0.647536 73.1819L29.2525 82.9706L27.9574 86.7551L-0.647536 76.9665L0.647536 73.1819ZM29.2323 67.1848L0.647536 76.9665L-0.647536 73.1819L27.9372 63.4002L29.2323 67.1848ZM102.962 2C65.8489 2 35.2015 29.6976 30.5683 65.5489L26.6012 65.0362C31.4889 27.2163 63.812 -2 102.962 -2V2ZM452 2H102.962V-2H452V2Z" fill="white" mask="url(#path-1-inside-1_1864_1291)"/>
<circle cx="101" cy="75" r="62" fill="white"/>
<path fill-rule="evenodd" clip-rule="evenodd" d="M93.5003 82.4991C93.5003 78.364 90.1361 74.9993 86.0005 74.9993C81.8649 74.9993 78.5003 78.364 78.5003 82.4991C78.5003 86.6347 81.865 89.9994 86.0005 89.9994C90.136 89.9994 93.5003 86.6347 93.5003 82.4991ZM86 89.9994C78.8204 89.9994 73 95.8197 73 102.999C73 103.966 73.7836 104.75 74.7505 104.75H97.2501C98.217 104.75 99.0005 103.966 99.0005 102.999C99.0005 95.8197 93.1803 89.9994 86 89.9994ZM116 74.9993C111.864 74.9993 108.5 78.364 108.5 82.4991C108.5 86.6347 111.864 89.9994 116 89.9994C120.136 89.9994 123.5 86.6347 123.5 82.4991C123.5 78.364 120.135 74.9993 116 74.9993ZM116 89.9994C108.82 89.9994 102.999 95.8197 102.999 102.999C102.999 103.966 103.784 104.75 104.75 104.75H127.25C128.216 104.75 129 103.966 129 102.999C129 95.8197 123.18 89.9994 116 89.9994ZM116 71.0005C119.033 71.0005 121.5 68.5331 121.5 65.5003V50.5004C121.5 47.4355 119.014 45 116 45H86.0005C82.9337 45 80.4998 47.4885 80.4998 50.5004V65.5003C80.4998 68.5331 82.9673 71.0007 86.0005 71.0007H94.779L99.4347 80.3115C99.58 80.6023 99.8034 80.847 100.08 81.0179C100.356 81.1889 100.675 81.2795 101 81.2795C101.325 81.2795 101.644 81.1889 101.921 81.0179C102.197 80.847 102.421 80.6023 102.566 80.3115L107.221 71.0007L116 71.0005ZM104.75 52.4999C105.716 52.4999 106.5 53.2843 106.5 54.2504C106.5 55.2166 105.716 56.0009 104.75 56.0009C103.784 56.0009 102.999 55.2166 102.999 54.2504C102.999 53.2843 103.784 52.4999 104.75 52.4999ZM97.2502 52.4999C98.2166 52.4999 99.0007 53.2843 99.0007 54.2504C99.0007 55.2166 98.2166 56.0009 97.2502 56.0009C96.2838 56.0009 95.4997 55.2166 95.4997 54.2504C95.4997 53.2843 96.2838 52.4999 97.2502 52.4999ZM101 64.4382C98.2498 64.4382 95.6232 63.1249 93.9743 60.9254C93.3946 60.1517 93.5519 59.0546 94.3253 58.4748C95.0991 57.8949 96.1963 58.0517 96.7756 58.8253C97.767 60.1478 99.3462 60.9372 101 60.9372C102.654 60.9372 104.233 60.1478 105.224 58.8253C105.804 58.0516 106.901 57.8944 107.675 58.4748C108.449 59.0546 108.605 60.1517 108.026 60.9254C106.377 63.1249 103.75 64.4382 101 64.4382Z" fill="#011826"/>
</svg>
