<svg width="589" height="150" viewBox="0 0 589 150" fill="none" xmlns="http://www.w3.org/2000/svg">
<mask id="path-1-inside-1_1864_1298" fill="white">
<path fill-rule="evenodd" clip-rule="evenodd" d="M514 0C555.421 0 589 33.5786 589 75C589 116.421 555.421 150 514 150H85.3063C43.885 150 10.3063 116.421 10.3063 75C10.3063 64.8344 12.3289 55.1411 15.9933 46.3007L-0.000671387 24.2267L24.5792 30.977C38.2107 12.2057 60.3331 0 85.3064 0H514Z"/>
</mask>
<path fill-rule="evenodd" clip-rule="evenodd" d="M514 0C555.421 0 589 33.5786 589 75C589 116.421 555.421 150 514 150H85.3063C43.885 150 10.3063 116.421 10.3063 75C10.3063 64.8344 12.3289 55.1411 15.9933 46.3007L-0.000671387 24.2267L24.5792 30.977C38.2107 12.2057 60.3331 0 85.3064 0H514Z" fill="#011826"/>
<path d="M15.9933 46.3007L17.6129 45.1272L18.2693 46.0331L17.8409 47.0665L15.9933 46.3007ZM-0.000671387 24.2267L-1.62023 25.4002L-4.96013 20.7907L0.528974 22.2981L-0.000671387 24.2267ZM24.5792 30.977L26.1975 32.1522L25.3842 33.2722L24.0496 32.9056L24.5792 30.977ZM587 75C587 34.6832 554.317 2 514 2V-2C556.526 -2 591 32.4741 591 75H587ZM514 148C554.317 148 587 115.317 587 75H591C591 117.526 556.526 152 514 152V148ZM85.3063 148H514V152H85.3063V148ZM12.3063 75C12.3063 115.317 44.9896 148 85.3063 148V152C42.7804 152 8.30634 117.526 8.30634 75H12.3063ZM17.8409 47.0665C14.2753 55.6685 12.3063 65.1018 12.3063 75H8.30634C8.30634 64.567 10.3824 54.6138 14.1458 45.5349L17.8409 47.0665ZM1.61888 23.0533L17.6129 45.1272L14.3738 47.4742L-1.62023 25.4002L1.61888 23.0533ZM24.0496 32.9056L-0.530317 26.1553L0.528974 22.2981L25.1089 29.0485L24.0496 32.9056ZM85.3064 2C61.0006 2 39.4689 13.8768 26.1975 32.1522L22.9609 29.8019C36.9525 10.5347 59.6657 -2 85.3064 -2V2ZM514 2H85.3064V-2H514V2Z" fill="white" mask="url(#path-1-inside-1_1864_1298)"/>
<circle cx="84" cy="75" r="62" fill="white"/>
<path fill-rule="evenodd" clip-rule="evenodd" d="M112 74.981C112 73.4078 111.005 71.9258 109.518 70.6234C108.76 69.9567 107.885 69.3185 107.142 68.6647C106.702 68.2767 106.272 67.9328 106.14 67.5031C105.996 67.0342 106.14 66.4534 106.283 65.8309C106.509 64.8411 106.853 63.7888 107.093 62.7965C107.564 60.8378 107.525 59.051 106.676 57.8294C105.793 56.5583 104.131 55.954 102.147 55.8134C101.17 55.7457 100.107 55.7639 99.1382 55.6858C98.5808 55.6415 98.0547 55.6285 97.7109 55.3654L97.7083 55.3628C97.3514 55.0919 97.1743 54.5553 96.9529 53.9875C96.5857 53.0473 96.2757 51.9793 95.9085 51.0234C95.1818 49.1142 94.1034 47.6634 92.6813 47.179C91.2722 46.6997 89.5714 47.2154 87.8783 48.338C87.0553 48.8824 86.2113 49.5492 85.3805 50.078C84.8908 50.3905 84.4454 50.7057 84 50.7057C83.5546 50.7057 83.1092 50.3905 82.6195 50.078C81.7887 49.5492 80.9447 48.8824 80.1217 48.338C78.4287 47.2154 76.7278 46.6997 75.3187 47.179C73.8966 47.6634 72.8182 49.1142 72.0915 51.0234C71.7243 51.9793 71.4143 53.0473 71.0471 53.9875C70.8257 54.5553 70.6486 55.0919 70.2917 55.3628L70.2891 55.3654C69.9453 55.6285 69.4192 55.6415 68.8618 55.6858C67.8928 55.7639 66.8327 55.7457 65.8534 55.8134C63.8687 55.9514 62.2069 56.5557 61.3239 57.8268C60.4748 59.0484 60.4357 60.8378 60.9072 62.7965C61.1468 63.7888 61.4906 64.8411 61.7172 65.8309C61.8605 66.4534 62.0037 67.0342 61.8605 67.5031C61.7276 67.9328 61.2979 68.2767 60.8577 68.6647C60.1153 69.3185 59.2402 69.9567 58.4822 70.6234C56.995 71.9258 56 73.4078 56 74.981C56 76.5542 56.995 78.0363 58.4822 79.3386C59.2402 80.0028 60.1153 80.6435 60.8577 81.2973C61.2979 81.6854 61.7276 82.0292 61.8605 82.459C62.0037 82.9278 61.8605 83.5086 61.7172 84.1312C61.4906 85.1209 61.1468 86.1732 60.9072 87.1656C60.4357 89.1243 60.4748 90.9111 61.3239 92.1326C62.2069 93.4037 63.8687 94.008 65.8534 94.1486C66.8301 94.2164 67.8928 94.1981 68.8618 94.2763C69.4192 94.3206 69.9453 94.3336 70.2891 94.5966L70.2917 94.5993C70.6486 94.8701 70.8257 95.4067 71.0471 95.9745C71.4143 96.9148 71.7243 97.9827 72.0915 98.9386C72.8182 100.845 73.8966 102.299 75.3187 102.783C76.7278 103.262 78.4287 102.747 80.1217 101.624C80.9447 101.08 81.7887 100.413 82.6195 99.8841C83.1092 99.5715 83.5546 99.2564 84 99.2564C84.4454 99.2564 84.8908 99.5715 85.3805 99.8841C86.2113 100.413 87.0553 101.08 87.8783 101.624C89.5714 102.747 91.2722 103.262 92.6813 102.783C94.1034 102.299 95.1818 100.845 95.9085 98.9386C96.2757 97.9827 96.5857 96.9148 96.9529 95.9745C97.1743 95.4067 97.3514 94.8701 97.7083 94.5993L97.7109 94.5966C98.0547 94.3336 98.5808 94.3206 99.1382 94.2763C100.107 94.1981 101.167 94.2164 102.147 94.1486C104.131 94.0106 105.793 93.4063 106.676 92.1353C107.525 90.9111 107.564 89.1243 107.093 87.1656C106.853 86.1732 106.509 85.1209 106.283 84.1312C106.14 83.5086 105.996 82.9278 106.14 82.459C106.272 82.0292 106.702 81.6854 107.142 81.2973C107.885 80.6435 108.76 80.0028 109.518 79.3386C111.005 78.0363 112 76.5542 112 74.981ZM74.8056 76.3615L80.0149 81.5708C80.1961 81.7522 80.4113 81.8962 80.6481 81.9944C80.885 82.0926 81.1389 82.1432 81.3953 82.1432C81.6518 82.1432 81.9057 82.0926 82.1426 81.9944C82.3794 81.8962 82.5946 81.7522 82.7758 81.5708L93.1944 71.1522C93.3757 70.9709 93.5195 70.7557 93.6176 70.5188C93.7157 70.282 93.7662 70.0281 93.7662 69.7717C93.7662 69.5153 93.7157 69.2615 93.6176 69.0246C93.5195 68.7878 93.3757 68.5725 93.1944 68.3913C93.0131 68.21 92.7979 68.0662 92.5611 67.9681C92.3242 67.8699 92.0703 67.8194 91.814 67.8194C91.5576 67.8194 91.3037 67.8699 91.0669 67.9681C90.83 68.0662 90.6148 68.21 90.4335 68.3913L81.3953 77.4268L77.5665 73.6006C77.3852 73.4193 77.17 73.2755 76.9331 73.1774C76.6963 73.0792 76.4424 73.0287 76.186 73.0287C75.9297 73.0287 75.6758 73.0792 75.4389 73.1774C75.2021 73.2755 74.9869 73.4193 74.8056 73.6006C74.6243 73.7818 74.4805 73.9971 74.3824 74.2339C74.2843 74.4708 74.2338 74.7246 74.2338 74.981C74.2338 75.2374 74.2843 75.4913 74.3824 75.7281C74.4805 75.965 74.6243 76.1802 74.8056 76.3615Z" fill="#011826"/>
</svg>
