<svg width="14" height="10" viewBox="0 0 14 10" fill="none" xmlns="http://www.w3.org/2000/svg">
<path d="M3.07343 3.54545C3.67853 3.54545 4.27004 3.7274 4.77316 4.06828C5.27628 4.40916 5.66842 4.89367 5.89998 5.46054C6.13154 6.02741 6.19213 6.65117 6.07408 7.25295C5.95603 7.85473 5.66465 8.40751 5.23678 8.84137C4.80891 9.27523 4.26377 9.57069 3.67029 9.69039C3.07682 9.81009 2.46167 9.74866 1.90263 9.51385C1.34359 9.27905 0.86577 8.88142 0.529595 8.37126C0.193419 7.86109 0.013986 7.2613 0.013986 6.64773L0 6.20455C0 4.559 0.644666 2.98085 1.79218 1.81727C2.93969 0.653691 4.49605 0 6.11888 0V1.77273C5.54467 1.77116 4.97585 1.88504 4.44531 2.10777C3.91477 2.3305 3.43304 2.65767 3.02797 3.07036C2.87054 3.2297 2.7253 3.40097 2.59353 3.58268C2.75 3.55786 2.90997 3.54457 3.07255 3.54457L3.07343 3.54545ZM10.9406 3.54545C11.5457 3.54545 12.1372 3.7274 12.6403 4.06828C13.1434 4.40916 13.5356 4.89367 13.7671 5.46054C13.9987 6.02741 14.0593 6.65117 13.9412 7.25295C13.8232 7.85473 13.5318 8.40751 13.1039 8.84137C12.676 9.27523 12.1309 9.57069 11.5374 9.69039C10.944 9.81009 10.3288 9.74866 9.76976 9.51385C9.21072 9.27905 8.7329 8.88142 8.39673 8.37126C8.06055 7.86109 7.88112 7.2613 7.88112 6.64773L7.86713 6.20455C7.86713 4.559 8.5118 2.98085 9.65931 1.81727C10.8068 0.653691 12.3632 0 13.986 0V1.77273C13.4118 1.77116 12.843 1.88504 12.3124 2.10777C11.7819 2.3305 11.3002 2.65767 10.8951 3.07036C10.7377 3.2297 10.5924 3.40097 10.4607 3.58268C10.6171 3.55786 10.7771 3.54545 10.9406 3.54545Z" fill="white"/>
</svg>
