<svg width="50" height="51" viewBox="0 0 50 51" fill="none" xmlns="http://www.w3.org/2000/svg">
<path d="M19.7353 21.9277C25.7905 21.9277 30.6992 17.019 30.6992 10.9639C30.6992 4.90869 25.7905 0 19.7353 0C13.6802 0 8.77148 4.90869 8.77148 10.9639C8.77148 17.019 13.6802 21.9277 19.7353 21.9277Z" fill="white"/>
<path d="M25.2914 45.6089C24.7445 44.6579 24.4947 43.565 24.574 42.4709C24.6533 41.3767 25.0582 40.3313 25.7366 39.4691C25.0579 38.6071 24.6529 37.5617 24.5735 36.4674C24.4942 35.3732 24.7442 34.2803 25.2914 33.3294L27.0654 30.2595C27.6157 29.3102 28.4374 28.5473 29.4249 28.069C30.4125 27.5907 31.5205 27.4188 32.6065 27.5755C32.6789 27.3957 32.771 27.2269 32.8609 27.0558C31.6502 26.5702 30.3586 26.318 29.0542 26.3125H10.4157C7.65433 26.316 5.00708 27.4145 3.05452 29.367C1.10196 31.3196 0.00348141 33.9668 0 36.7282L0 44.4029C0 45.3107 0.736771 46.0474 1.64458 46.0474H25.5436L25.2914 45.6089Z" fill="white"/>
<path d="M47.5892 40.4981C47.633 40.1582 47.6922 39.8206 47.6922 39.4697C47.6922 39.1167 47.6308 38.7812 47.5892 38.4413L49.5648 36.9458C49.778 36.7845 49.9249 36.5507 49.9778 36.2886C50.0307 36.0266 49.986 35.7542 49.8521 35.5227L48.0782 32.4528C47.9447 32.2215 47.7313 32.0468 47.4782 31.9616C47.225 31.8764 46.9495 31.8866 46.7033 31.9902L44.4294 32.9484C43.8791 32.5168 43.2755 32.1579 42.6335 31.8805L42.3309 29.4663C42.2978 29.2012 42.169 28.9573 41.9687 28.7804C41.7684 28.6036 41.5105 28.5059 41.2433 28.5059H37.6976C37.4304 28.5059 37.1724 28.6036 36.9722 28.7804C36.7719 28.9573 36.6431 29.2012 36.61 29.4663L36.3074 31.8805C35.6655 32.1583 35.062 32.5172 34.5115 32.9484L32.2376 31.9902C31.9914 31.8866 31.7158 31.8764 31.4627 31.9616C31.2095 32.0468 30.9962 32.2215 30.8627 32.4528L29.0888 35.5227C28.9549 35.7542 28.9102 36.0266 28.9631 36.2886C29.016 36.5507 29.1628 36.7845 29.376 36.9458L31.3517 38.4413C31.3078 38.7812 31.2486 39.1189 31.2486 39.4697C31.2486 39.8228 31.31 40.1582 31.3517 40.4981L29.376 41.9936C29.1628 42.155 29.016 42.3887 28.9631 42.6508C28.9102 42.9129 28.9549 43.1853 29.0888 43.4167L30.8627 46.4888C30.9962 46.7201 31.2095 46.8948 31.4627 46.98C31.7158 47.0652 31.9914 47.055 32.2376 46.9515L34.5115 45.991C35.0662 46.4142 35.6561 46.787 36.3074 47.0589L36.61 49.4731C36.6779 50.0213 37.1428 50.4336 37.6954 50.4336H41.2411C41.5083 50.4335 41.7662 50.3359 41.9665 50.159C42.1668 49.9822 42.2956 49.7383 42.3287 49.4731L42.6313 47.0589C43.2826 46.787 43.8746 46.412 44.4272 45.991L46.7011 46.9493C46.9473 47.0528 47.2228 47.063 47.476 46.9778C47.7291 46.8926 47.9425 46.7179 48.076 46.4866L49.8499 43.4145C49.9838 43.1831 50.0285 42.9107 49.9756 42.6486C49.9227 42.3865 49.7758 42.1528 49.5627 41.9914L47.5892 40.4981ZM39.4693 43.8553C38.8853 43.8685 38.3045 43.7649 37.7611 43.5505C37.2177 43.3362 36.7225 43.0154 36.3048 42.6071C35.887 42.1988 35.555 41.7111 35.3283 41.1727C35.1016 40.6344 34.9848 40.0561 34.9846 39.4719C34.9845 38.8878 35.1011 38.3095 35.3275 37.771C35.5539 37.2325 35.8857 36.7446 36.3032 36.3361C36.7208 35.9276 37.2157 35.6066 37.7591 35.392C38.3024 35.1773 38.8831 35.0735 39.4671 35.0864C40.613 35.1117 41.7034 35.5846 42.5049 36.4039C43.3065 37.2231 43.7554 38.3236 43.7557 39.4697C43.756 40.6159 43.3076 41.7166 42.5065 42.5362C41.7053 43.3559 40.6152 43.8293 39.4693 43.8553Z" fill="white"/>
</svg>
