<svg width="50" height="50" viewBox="0 0 50 50" fill="none" xmlns="http://www.w3.org/2000/svg">
<path d="M1.46484 10.6206C2.27383 10.6206 2.92969 9.96475 2.92969 9.15576V2.92969H9.15576C9.96475 2.92969 10.6206 2.27383 10.6206 1.46484C10.6206 0.655859 9.96475 0 9.15576 0H2.92969C1.31426 0 0 1.31426 0 2.92969V9.15576C0 9.96484 0.655859 10.6206 1.46484 10.6206ZM47.0703 0H40.8442C40.0353 0 39.3794 0.655859 39.3794 1.46484C39.3794 2.27383 40.0353 2.92969 40.8442 2.92969H47.0703V9.15576C47.0703 9.96475 47.7262 10.6206 48.5352 10.6206C49.3441 10.6206 50 9.96475 50 9.15576V2.92969C50 1.31426 48.6857 0 47.0703 0ZM48.5352 39.3794C47.7262 39.3794 47.0703 40.0353 47.0703 40.8442V47.0703H40.8442C40.0353 47.0703 39.3794 47.7262 39.3794 48.5352C39.3794 49.3441 40.0353 50 40.8442 50H47.0703C48.6857 50 50 48.6857 50 47.0703V40.8442C50 40.0352 49.3441 39.3794 48.5352 39.3794ZM9.15576 47.0703H2.92969V40.8442C2.92969 40.0353 2.27383 39.3794 1.46484 39.3794C0.655859 39.3794 0 40.0353 0 40.8442V47.0703C0 48.6857 1.31426 50 2.92969 50H9.15576C9.96475 50 10.6206 49.3441 10.6206 48.5352C10.6206 47.7262 9.96475 47.0703 9.15576 47.0703ZM13.4688 14.7566C7.71689 17.1002 2.72949 21.3486 0.0322266 25.3406C-0.0107422 25.4051 -0.0107422 25.4881 0.0322266 25.5525C3.20996 30.2596 8.09375 33.7703 13.9258 35.7195C8.31504 29.9323 8.10537 20.7956 13.4688 14.7566ZM36.5312 14.7566C41.9464 20.8539 41.6292 30.049 36.1045 35.7049C41.9248 33.7527 46.7979 30.2479 49.9678 25.5525C50.0107 25.4881 50.0107 25.4051 49.9678 25.3406C47.2311 21.2889 42.235 17.0806 36.5312 14.7566Z" fill="white"/>
<path d="M25 12.4961C18.1133 12.4961 12.5078 18.0984 12.5078 24.9883C12.5078 34.4137 22.632 40.5905 31.0625 35.9023C35.0889 33.6621 37.4922 29.582 37.4922 24.9883C37.4922 18.1007 31.8891 12.4961 25 12.4961ZM27.7422 32.2246C22.7722 34.1021 17.2646 30.506 17.2646 24.9883C17.2646 18.8549 24.0135 15.372 28.8223 18.2607C34.4947 21.4935 33.8682 29.9094 27.7422 32.2246Z" fill="white"/>
<path d="M27.3799 20.8084C24.0938 18.9928 20.1953 21.3614 20.1953 24.9871C20.1953 28.3923 23.5896 30.6648 26.7061 29.4832C30.5749 28.0201 30.8403 22.789 27.3799 20.8084Z" fill="white"/>
</svg>
