<svg width="40" height="40" viewBox="0 0 40 40" fill="none" xmlns="http://www.w3.org/2000/svg">
<g clip-path="url(#clip0_1517_891)">
<path d="M1.17188 8.49648C1.81906 8.49648 2.34375 7.9718 2.34375 7.32461V2.34375H7.32461C7.9718 2.34375 8.49648 1.81906 8.49648 1.17188C8.49648 0.524687 7.9718 0 7.32461 0H2.34375C1.05141 0 0 1.05141 0 2.34375V7.32461C0 7.97187 0.524687 8.49648 1.17188 8.49648ZM37.6562 0H32.6754C32.0282 0 31.5035 0.524687 31.5035 1.17188C31.5035 1.81906 32.0282 2.34375 32.6754 2.34375H37.6562V7.32461C37.6562 7.9718 38.1809 8.49648 38.8281 8.49648C39.4753 8.49648 40 7.9718 40 7.32461V2.34375C40 1.05141 38.9486 0 37.6562 0ZM38.8281 31.5035C38.1809 31.5035 37.6562 32.0282 37.6562 32.6754V37.6562H32.6754C32.0282 37.6562 31.5035 38.1809 31.5035 38.8281C31.5035 39.4753 32.0282 40 32.6754 40H37.6562C38.9486 40 40 38.9486 40 37.6562V32.6754C40 32.0281 39.4753 31.5035 38.8281 31.5035ZM7.32461 37.6562H2.34375V32.6754C2.34375 32.0282 1.81906 31.5035 1.17188 31.5035C0.524687 31.5035 0 32.0282 0 32.6754V37.6562C0 38.9486 1.05141 40 2.34375 40H7.32461C7.9718 40 8.49648 39.4753 8.49648 38.8281C8.49648 38.1809 7.9718 37.6562 7.32461 37.6562ZM10.775 11.8053C6.17352 13.6802 2.18359 17.0789 0.0257813 20.2725C-0.00859375 20.3241 -0.00859375 20.3905 0.0257813 20.442C2.56797 24.2077 6.475 27.0163 11.1406 28.5756C6.65203 23.9459 6.4843 16.6365 10.775 11.8053ZM29.225 11.8053C33.5571 16.6831 33.3034 24.0392 28.8836 28.5639C33.5398 27.0022 37.4383 24.1983 39.9742 20.442C40.0086 20.3905 40.0086 20.3241 39.9742 20.2725C37.7848 17.0311 33.788 13.6645 29.225 11.8053Z" fill="#00ECD4"/>
<path d="M19.9996 9.99609C14.4902 9.99609 10.0059 14.478 10.0059 19.9898C10.0059 27.5302 18.1052 32.4716 24.8496 28.7211C28.0707 26.9289 29.9934 23.6648 29.9934 19.9898C29.9934 14.4798 25.5109 9.99609 19.9996 9.99609ZM22.1934 25.7789C18.2173 27.2809 13.8113 24.404 13.8113 19.9898C13.8113 15.0831 19.2104 12.2968 23.0574 14.6078C27.5954 17.194 27.0941 23.9267 22.1934 25.7789Z" fill="#00ECD4"/>
<path d="M21.9039 16.6463C19.2751 15.1938 16.1562 17.0887 16.1562 19.9893C16.1562 22.7134 18.8717 24.5315 21.3648 23.5862C24.4599 22.4157 24.6723 18.2308 21.9039 16.6463Z" fill="#00ECD4"/>
</g>
<defs>
<clipPath id="clip0_1517_891">
<rect width="40" height="40" fill="white"/>
</clipPath>
</defs>
</svg>
