<svg width="40" height="38" viewBox="0 0 40 38" fill="none" xmlns="http://www.w3.org/2000/svg">
<path d="M1.11125 24.4452H5.55542C6.16896 24.4452 6.66667 24.9424 6.66667 25.5561V36.6673C6.66667 37.2809 6.16906 37.7786 5.55542 37.7786H1.11125C0.497708 37.7786 0 37.281 0 36.6673V25.5561C0 24.9425 0.497604 24.4452 1.11125 24.4452ZM12.2221 15.5561H16.6667C17.2802 15.5561 17.7779 16.0537 17.7779 16.6673V36.6673C17.7779 37.2809 17.2803 37.7786 16.6667 37.7786H12.2221C11.6085 37.7786 11.1112 37.281 11.1112 36.6673V16.6673C11.1112 16.0538 11.6084 15.5561 12.2221 15.5561ZM23.3333 20.0007H27.7779C28.3915 20.0007 28.8887 20.4983 28.8887 21.1119V36.6673C28.8887 37.2809 28.3916 37.7786 27.7779 37.7786H23.3333C22.7198 37.7786 22.2221 37.281 22.2221 36.6673V21.1119C22.2221 20.4984 22.7197 20.0007 23.3333 20.0007ZM34.4446 13.334H38.8887C39.5023 13.334 40 13.8316 40 14.4452V36.6673C40 37.2809 39.5024 37.7786 38.8887 37.7786H34.4446C33.831 37.7786 33.3333 37.281 33.3333 36.6673V14.4452C33.3333 13.8317 33.8309 13.334 34.4446 13.334Z" fill="#011826"/>
<path d="M36.6667 0C34.8267 0.00208333 33.3354 1.49333 33.3333 3.33333C33.3378 3.69625 33.4021 4.05604 33.5237 4.39781L27.9615 7.70417C27.6016 7.3225 27.156 7.03197 26.6616 6.85662C26.1672 6.68126 25.6381 6.62612 25.1182 6.69574C24.5983 6.76536 24.1024 6.95775 23.6715 7.257C23.2406 7.55625 22.8872 7.95376 22.6404 8.41667L17.7344 5.98677C17.7583 5.84396 17.7726 5.6999 17.7779 5.55542C17.7792 4.89568 17.5846 4.25041 17.2189 3.70131C16.8532 3.15221 16.3328 2.72398 15.7236 2.47084C15.1143 2.2177 14.4437 2.15105 13.7965 2.27931C13.1494 2.40757 12.5549 2.72498 12.0882 3.19135C11.6215 3.65762 11.3036 4.25194 11.175 4.89902C11.0463 5.54609 11.1126 6.21679 11.3655 6.82615L5.00167 11.5755C4.4969 11.2748 3.92089 11.1145 3.33333 11.1113C1.4925 11.1113 0 12.6033 0 14.4446C0 16.2854 1.4925 17.7779 3.33333 17.7779C5.17417 17.7779 6.66667 16.2854 6.66667 14.4446C6.66383 14.0436 6.58812 13.6466 6.44323 13.2727L12.8707 8.47583C14.128 9.17688 15.6962 8.97135 16.7301 7.96958L22.3092 10.7328C22.681 12.3894 24.2399 13.5009 25.9273 13.313C27.6148 13.125 28.8908 11.698 28.8887 10C28.8887 9.91531 28.87 9.83563 28.864 9.7526L34.9137 6.15604C35.4384 6.48771 36.046 6.66469 36.6667 6.66667C38.5075 6.66667 40 5.17417 40 3.33333C40 1.4925 38.5075 0 36.6667 0Z" fill="#011826"/>
</svg>
