<svg width="234" height="62" viewBox="0 0 234 62" fill="none" xmlns="http://www.w3.org/2000/svg">
<mask id="path-1-inside-1_1753_1301" fill="white">
<path d="M0 30.9301C0 13.8479 13.8479 0 30.9301 0H203.07C220.152 0 234 13.8479 234 30.9301C234 48.0123 220.152 61.8602 203.07 61.8602H30.9301C13.8479 61.8602 0 48.0123 0 30.9301Z"/>
</mask>
<path d="M0 30.9301C0 13.8479 13.8479 0 30.9301 0H203.07C220.152 0 234 13.8479 234 30.9301C234 48.0123 220.152 61.8602 203.07 61.8602H30.9301C13.8479 61.8602 0 48.0123 0 30.9301Z" fill="#011826"/>
<path d="M30.9301 0.824802H203.07V-0.824802H30.9301V0.824802ZM203.07 61.0354H30.9301V62.685H203.07V61.0354ZM30.9301 61.0354C14.3034 61.0354 0.824802 47.5568 0.824802 30.9301H-0.824802C-0.824802 48.4678 13.3923 62.685 30.9301 62.685V61.0354ZM233.175 30.9301C233.175 47.5568 219.697 61.0354 203.07 61.0354V62.685C220.608 62.685 234.825 48.4678 234.825 30.9301H233.175ZM203.07 0.824802C219.697 0.824802 233.175 14.3034 233.175 30.9301H234.825C234.825 13.3923 220.608 -0.824802 203.07 -0.824802V0.824802ZM30.9301 -0.824802C13.3923 -0.824802 -0.824802 13.3923 -0.824802 30.9301H0.824802C0.824802 14.3034 14.3034 0.824802 30.9301 0.824802V-0.824802Z" fill="white" mask="url(#path-1-inside-1_1753_1301)"/>
<circle cx="204.139" cy="30.9282" r="25.5689" fill="white"/>
<path d="M215.688 34.8451C215.688 33.9945 214.995 33.2986 214.149 33.2986C214.995 33.2986 215.688 32.6027 215.688 31.7521C215.688 30.9015 214.995 30.2056 214.149 30.2056H207.836C208.775 27.3754 208.76 26.4734 208.76 24.7413C208.76 23.4545 207.71 22.4215 206.45 22.4215H205.989C205.696 22.4215 205.326 22.6536 205.249 23.0092C204.488 25.9878 203.297 29.4057 200.292 30.0981V41.2876L202.955 42.1755C203.741 42.4383 204.557 42.5776 205.388 42.5776H212.609C213.459 42.5776 214.149 41.8852 214.149 41.0311C214.149 40.177 213.459 39.4846 212.609 39.4846H214.149C214.995 39.4846 215.688 38.7887 215.688 37.9381C215.688 37.0875 214.995 36.3916 214.149 36.3916C214.995 36.3916 215.688 35.6957 215.688 34.8451ZM196.443 28.6591H193.364C192.938 28.6591 192.594 29.0049 192.594 29.4323V43.3509C192.594 43.7783 192.938 44.1241 193.364 44.1241H196.443C197.716 44.1241 198.752 43.0835 198.752 41.8044V30.9789C198.752 29.6997 197.716 28.6591 196.443 28.6591ZM196.443 41.0311C196.018 41.0311 195.673 40.6849 195.673 40.2579C195.673 39.8307 196.018 39.4846 196.443 39.4846C196.868 39.4846 197.213 39.8307 197.213 40.2579C197.213 40.6849 196.868 41.0311 196.443 41.0311ZM203.184 21.1401L202.095 20.0467C201.795 19.7446 201.308 19.7446 201.007 20.0467C200.706 20.3487 200.706 20.8381 201.007 21.1401L202.095 22.2335C202.396 22.5356 202.883 22.5356 203.184 22.2335C203.485 21.9315 203.485 21.4421 203.184 21.1401ZM211.894 20.0467C211.593 19.7446 211.106 19.7446 210.805 20.0467L209.717 21.1401C209.416 21.4421 209.416 21.9315 209.717 22.2335C210.018 22.5356 210.505 22.5356 210.805 22.2335L211.894 21.1401C212.195 20.8381 212.195 20.3487 211.894 20.0467ZM206.45 17.7305C206.019 17.7305 205.681 18.0706 205.681 18.5037V20.1018C205.681 20.5348 206.019 20.875 206.45 20.875C206.882 20.875 207.22 20.5348 207.22 20.1018V18.5037C207.22 18.0706 206.882 17.7305 206.45 17.7305Z" fill="#011826"/>
</svg>
