<svg width="234" height="71" viewBox="0 0 234 71" fill="none" xmlns="http://www.w3.org/2000/svg">
<mask id="path-1-inside-1_1753_1310" fill="white">
<path d="M0 35.3994C0 15.8488 15.8488 0 35.3994 0H198.601C218.151 0 234 15.8488 234 35.3994C234 54.9499 218.151 70.7987 198.601 70.7987H35.3994C15.8488 70.7987 0 54.9499 0 35.3994Z"/>
</mask>
<path d="M0 35.3994C0 15.8488 15.8488 0 35.3994 0H198.601C218.151 0 234 15.8488 234 35.3994C234 54.9499 218.151 70.7987 198.601 70.7987H35.3994C15.8488 70.7987 0 54.9499 0 35.3994Z" fill="#011826"/>
<path d="M35.3994 0.943983H198.601V-0.943983H35.3994V0.943983ZM198.601 69.8548H35.3994V71.7427H198.601V69.8548ZM35.3994 69.8548C16.3702 69.8548 0.943983 54.4286 0.943983 35.3994H-0.943983C-0.943983 55.4713 15.3275 71.7427 35.3994 71.7427V69.8548ZM233.056 35.3994C233.056 54.4286 217.63 69.8548 198.601 69.8548V71.7427C218.673 71.7427 234.944 55.4713 234.944 35.3994H233.056ZM198.601 0.943983C217.63 0.943983 233.056 16.3702 233.056 35.3994H234.944C234.944 15.3275 218.673 -0.943983 198.601 -0.943983V0.943983ZM35.3994 -0.943983C15.3275 -0.943983 -0.943983 15.3275 -0.943983 35.3994H0.943983C0.943983 16.3702 16.3702 0.943983 35.3994 0.943983V-0.943983Z" fill="white" mask="url(#path-1-inside-1_1753_1310)"/>
<circle cx="199.654" cy="35.4002" r="29.2635" fill="white"/>
<path fill-rule="evenodd" clip-rule="evenodd" d="M189.118 32.8666L194.299 28.3316C194.226 28.1301 194.188 27.9172 194.188 27.7027C194.188 26.6924 195.007 25.8734 196.018 25.8734C197.009 25.8734 197.816 26.6614 197.846 27.6449L201.941 29.0787C202.277 28.6849 202.777 28.435 203.334 28.435C203.638 28.4346 203.937 28.51 204.204 28.6546L208.925 24.6207C208.857 24.4255 208.822 24.2199 208.822 24.0129C208.822 23.0026 209.641 22.1836 210.651 22.1836C211.662 22.1836 212.481 23.0026 212.481 24.0129C212.481 25.0233 211.662 25.8424 210.651 25.8424C210.348 25.8428 210.049 25.7674 209.782 25.6228L205.06 29.6567C205.129 29.8519 205.164 30.0575 205.164 30.2645C205.164 31.2748 204.345 32.0938 203.334 32.0938C202.343 32.0938 201.537 31.3058 201.506 30.3223L197.411 28.8885C197.075 29.2824 196.576 29.5322 196.018 29.5322C195.721 29.5326 195.429 29.4607 195.167 29.3226L189.985 33.8576C190.059 34.059 190.096 34.2719 190.096 34.4865C190.096 35.4969 189.277 36.3158 188.267 36.3158C187.257 36.3157 186.438 35.4967 186.438 34.4863C186.438 33.4759 187.257 32.657 188.267 32.657C188.563 32.6566 188.855 32.7285 189.118 32.8666ZM209.26 29.4551C208.805 29.4551 208.434 29.8261 208.434 30.281V47.1382C208.434 47.5931 208.805 47.9641 209.26 47.9641H212.043C212.498 47.9641 212.869 47.5931 212.869 47.1382V30.281C212.869 29.8261 212.498 29.4551 212.043 29.4551H209.26ZM201.943 36.1912C201.488 36.1912 201.117 36.5623 201.117 37.0172V47.3108C201.117 47.7658 201.488 48.1368 201.943 48.1368H204.726C205.181 48.1368 205.552 47.7658 205.552 47.3108V37.0172C205.552 36.5623 205.181 36.1912 204.726 36.1912H201.943ZM194.626 33.7729C194.171 33.7729 193.8 34.1439 193.8 34.5989V47.4835C193.8 47.9385 194.171 48.3095 194.626 48.3095H197.409C197.864 48.3095 198.235 47.9385 198.235 47.4835V34.5989C198.235 34.1439 197.864 33.7729 197.409 33.7729H194.626ZM187.309 40.8828H190.093C190.548 40.8828 190.919 41.2538 190.919 41.7088V47.6562C190.919 48.1111 190.548 48.4821 190.093 48.4821H187.309C186.854 48.4821 186.483 48.1111 186.483 47.6562V41.7088C186.483 41.2538 186.854 40.8828 187.309 40.8828Z" fill="#011826"/>
</svg>
