<svg width="238" height="63" viewBox="0 0 238 63" fill="none" xmlns="http://www.w3.org/2000/svg">
<mask id="path-1-inside-1_1753_1319" fill="white">
<path d="M0 31.4258C0 14.0698 14.0698 0 31.4258 0H206.574C223.93 0 238 14.0698 238 31.4258C238 48.7817 223.93 62.8515 206.574 62.8515H31.4258C14.0698 62.8515 0 48.7817 0 31.4258Z"/>
</mask>
<path d="M0 31.4258C0 14.0698 14.0698 0 31.4258 0H206.574C223.93 0 238 14.0698 238 31.4258C238 48.7817 223.93 62.8515 206.574 62.8515H31.4258C14.0698 62.8515 0 48.7817 0 31.4258Z" fill="#011826"/>
<path d="M31.4258 0.838021H206.574V-0.838021H31.4258V0.838021ZM206.574 62.0135H31.4258V63.6896H206.574V62.0135ZM31.4258 62.0135C14.5326 62.0135 0.838021 48.3189 0.838021 31.4258H-0.838021C-0.838021 49.2446 13.607 63.6896 31.4258 63.6896V62.0135ZM237.162 31.4258C237.162 48.3189 223.467 62.0135 206.574 62.0135V63.6896C224.393 63.6896 238.838 49.2446 238.838 31.4258H237.162ZM206.574 0.838021C223.467 0.838021 237.162 14.5326 237.162 31.4258H238.838C238.838 13.607 224.393 -0.838021 206.574 -0.838021V0.838021ZM31.4258 -0.838021C13.607 -0.838021 -0.838021 13.607 -0.838021 31.4258H0.838021C0.838021 14.5326 14.5326 0.838021 31.4258 0.838021V-0.838021Z" fill="white" mask="url(#path-1-inside-1_1753_1319)"/>
<circle cx="207.408" cy="31.424" r="25.9786" fill="white"/>
<path fill-rule="evenodd" clip-rule="evenodd" d="M206.785 31.7254V24.7706H205.687L207.408 21.7891L209.129 24.7706H208.031V31.7254C207.621 31.6347 207.196 31.6347 206.785 31.7254ZM211.753 39.3363C211.704 37.9998 210.615 37.1376 209.224 36.7484C208.168 37.6125 206.648 37.6125 205.592 36.7484C204.201 37.1374 203.112 37.9998 203.063 39.3363V41.3683H211.753V39.3363ZM204.365 36.5812V36.6169C203.534 37.0504 202.857 37.7078 202.601 38.6131H195.676V36.5811C195.725 35.2446 196.813 34.3822 198.205 33.9932C199.26 34.8573 200.781 34.8574 201.836 33.9932C203.227 34.3824 204.316 35.2446 204.365 36.5811V36.5812ZM214.796 29.4746C213.527 29.4746 212.499 30.5031 212.499 31.7717C212.499 33.0404 213.527 34.0689 214.796 34.0689C216.064 34.0689 217.093 33.0404 217.093 31.7717C217.093 30.5031 216.064 29.4746 214.796 29.4746ZM200.02 29.4746C198.752 29.4746 197.723 30.5031 197.723 31.7717C197.723 33.0404 198.752 34.0689 200.02 34.0689C201.289 34.0689 202.318 33.0404 202.318 31.7717C202.318 30.5031 201.289 29.4746 200.02 29.4746ZM207.408 32.2297C208.677 32.2297 209.705 33.2582 209.705 34.5269C209.705 35.7955 208.677 36.824 207.408 36.824C206.139 36.824 205.111 35.7955 205.111 34.5269C205.111 33.2582 206.139 32.2297 207.408 32.2297ZM219.14 36.5812V38.6131H212.216C211.959 37.7079 211.282 37.0504 210.451 36.617V36.5812C210.5 35.2447 211.589 34.3823 212.98 33.9933C214.036 34.8575 215.556 34.8575 216.612 33.9933C218.003 34.3825 219.092 35.2447 219.14 36.5812V36.5812ZM209.848 33.0169V28.4549L212.17 27.1147L212.72 28.0676L214.441 25.0861H210.998L211.548 26.0389L208.954 27.5368C208.746 27.6378 208.603 27.8507 208.603 28.0972V31.9176C209.117 32.1539 209.55 32.5362 209.848 33.017V33.0169ZM204.968 33.0169C205.266 32.5362 205.699 32.1538 206.213 31.9175V28.0972C206.213 27.8507 206.07 27.6377 205.862 27.5368L203.268 26.0389L203.818 25.086H200.375L202.097 28.0675L202.647 27.1147L204.968 28.4549V33.0169Z" fill="#011826"/>
</svg>
