<svg width="237" height="63" viewBox="0 0 237 63" fill="none" xmlns="http://www.w3.org/2000/svg">
<mask id="path-1-inside-1_1753_1333" fill="white">
<path d="M237 31.3592C237 14.04 222.96 0 205.641 0H31.3593C14.04 0 0 14.04 0 31.3592C0 48.6785 14.04 62.7185 31.3593 62.7185H205.641C222.96 62.7185 237 48.6785 237 31.3592Z"/>
</mask>
<path d="M237 31.3592C237 14.04 222.96 0 205.641 0H31.3593C14.04 0 0 14.04 0 31.3592C0 48.6785 14.04 62.7185 31.3593 62.7185H205.641C222.96 62.7185 237 48.6785 237 31.3592Z" fill="#011826"/>
<path d="M205.641 0.836247H31.3593V-0.836247H205.641V0.836247ZM31.3593 61.8823H205.641V63.5547H31.3593V61.8823ZM205.641 61.8823C222.498 61.8823 236.164 48.2166 236.164 31.3592H237.836C237.836 49.1403 223.422 63.5547 205.641 63.5547V61.8823ZM0.836243 31.3592C0.836243 48.2166 14.5019 61.8823 31.3593 61.8823V63.5547C13.5782 63.5547 -0.836243 49.1403 -0.836243 31.3592H0.836243ZM31.3593 0.836247C14.5019 0.836247 0.836243 14.5019 0.836243 31.3592H-0.836243C-0.836243 13.5782 13.5782 -0.836247 31.3593 -0.836247V0.836247ZM205.641 -0.836247C223.422 -0.836247 237.836 13.5782 237.836 31.3592H236.164C236.164 14.5019 222.498 0.836247 205.641 0.836247V-0.836247Z" fill="white" mask="url(#path-1-inside-1_1753_1333)"/>
<circle cx="32.119" cy="31.3572" r="25.9236" fill="white"/>
<path d="M32.0667 20.2072C32.2422 20.2072 32.4261 20.0649 32.4261 19.8895V19.1342C32.4261 18.9588 32.2422 18.8164 32.0667 18.8164C31.8914 18.8164 31.7072 18.9586 31.7072 19.1341V19.8895C31.7072 20.0648 31.8914 20.2072 32.0667 20.2072ZM34.6327 21.2101C34.6744 21.2102 34.7157 21.202 34.7543 21.186C34.7928 21.17 34.8278 21.1466 34.8573 21.1171L35.3913 20.5829C35.4208 20.5534 35.4442 20.5184 35.4602 20.4799C35.4762 20.4413 35.4844 20.4 35.4844 20.3583C35.4844 20.3165 35.4762 20.2752 35.4602 20.2367C35.4442 20.1981 35.4208 20.1631 35.3913 20.1336C35.3618 20.1041 35.3268 20.0807 35.2882 20.0647C35.2497 20.0487 35.2084 20.0405 35.1667 20.0405C35.1249 20.0405 35.0836 20.0487 35.0451 20.0647C35.0065 20.0807 34.9715 20.1041 34.942 20.1336L34.408 20.6678C34.3785 20.6973 34.3551 20.7323 34.3391 20.7708C34.3231 20.8094 34.3149 20.8507 34.3149 20.8924C34.3149 20.9342 34.3231 20.9755 34.3391 21.014C34.3551 21.0526 34.3785 21.0876 34.408 21.1171C34.4375 21.1466 34.4725 21.1701 34.5111 21.186C34.5496 21.202 34.5909 21.2102 34.6327 21.2101ZM29.3469 21.2075C29.3764 21.2371 29.4114 21.2606 29.45 21.2766C29.4885 21.2925 29.5299 21.3007 29.5716 21.3006C29.6134 21.3007 29.6547 21.2925 29.6932 21.2765C29.7318 21.2605 29.7668 21.2371 29.7963 21.2075C29.8258 21.178 29.8492 21.143 29.8652 21.1045C29.8812 21.0659 29.8894 21.0246 29.8894 20.9829C29.8894 20.9411 29.8812 20.8998 29.8652 20.8613C29.8492 20.8227 29.8258 20.7877 29.7963 20.7582L29.2621 20.2243C29.2326 20.1948 29.1976 20.1714 29.1591 20.1554C29.1206 20.1394 29.0793 20.1312 29.0375 20.1312C28.9958 20.1312 28.9545 20.1394 28.916 20.1554C28.8775 20.1714 28.8425 20.1948 28.813 20.2243C28.7835 20.2538 28.7601 20.2888 28.7441 20.3273C28.7281 20.3658 28.7199 20.4071 28.7199 20.4488C28.7199 20.4906 28.7281 20.5319 28.7441 20.5704C28.7601 20.6089 28.7835 20.6439 28.813 20.6734L29.3469 21.2075ZM27.8468 24.6399C27.7917 24.3584 27.7641 24.0723 27.7643 23.7854C27.7643 23.4635 27.7997 23.143 27.8693 22.8324C27.8784 22.7917 27.8794 22.7496 27.8723 22.7085C27.8652 22.6674 27.85 22.6281 27.8277 22.5928C27.8053 22.5576 27.7763 22.5271 27.7421 22.5031C27.708 22.4791 27.6695 22.462 27.6288 22.4529C27.4589 22.4152 27.2878 22.5219 27.2493 22.6935C27.1692 23.0519 27.1288 23.4181 27.1289 23.7854C27.1289 24.1174 27.1606 24.4463 27.2236 24.7633C27.2378 24.8354 27.2766 24.9004 27.3334 24.9471C27.3902 24.9938 27.4614 25.0193 27.5349 25.0194C27.5552 25.0194 27.576 25.0174 27.5969 25.0132C27.6378 25.0051 27.6768 24.989 27.7115 24.9659C27.7462 24.9427 27.776 24.913 27.7992 24.8783C27.8224 24.8437 27.8386 24.8048 27.8467 24.7638C27.8549 24.7229 27.8549 24.6808 27.8468 24.6399ZM36.4151 25.5706C36.3777 25.552 36.337 25.5409 36.2954 25.5381C36.2537 25.5352 36.2119 25.5406 36.1724 25.5539C36.1328 25.5672 36.0962 25.5882 36.0648 25.6156C36.0333 25.6431 36.0076 25.6764 35.989 25.7138C35.2503 27.2003 33.761 28.1242 32.1022 28.1246C30.4433 28.1242 28.9542 27.2003 28.2155 25.7138C28.1372 25.5566 27.9461 25.4924 27.7895 25.5706C27.6324 25.6486 27.5682 25.8235 27.6462 25.9808C28.4929 27.6843 30.1989 28.7285 32.0997 28.7285H32.1048C34.0055 28.7285 35.7118 27.6843 36.5583 25.9808C36.6361 25.8235 36.5721 25.6486 36.4151 25.5706H36.4151ZM36.9791 24.7638C37.0431 24.4416 37.0754 24.1139 37.0754 23.7854C37.0754 23.4161 37.0345 23.0473 36.954 22.6894C36.9155 22.5181 36.7454 22.4102 36.5743 22.4491C36.4921 22.4676 36.4206 22.518 36.3756 22.5892C36.3305 22.6605 36.3156 22.7466 36.334 22.8289C36.4675 23.4243 36.4748 24.0411 36.3557 24.6395C36.3465 24.6857 36.3476 24.7333 36.3591 24.7789C36.3705 24.8245 36.3919 24.867 36.4218 24.9034C36.4516 24.9397 36.4892 24.969 36.5317 24.9891C36.5743 25.0091 36.6208 25.0195 36.6678 25.0194C36.7412 25.0193 36.8123 24.9937 36.869 24.9472C36.9258 24.9006 36.9647 24.8358 36.9791 24.7638ZM35.1718 29.8582H28.9847C28.7942 29.8582 28.5749 30.0835 28.5749 30.2752V43.3869C28.5749 43.5776 28.7944 43.7224 28.9847 43.7224H35.1718C35.3624 43.7224 35.507 43.5776 35.507 43.3869V30.2752C35.507 30.0835 35.3624 29.8582 35.1718 29.8582Z" fill="#011826"/>
<path d="M29.6706 23.5024L30.8043 24.3462C30.8883 24.4072 30.9234 24.5256 30.8913 24.6242L30.4583 25.9621C30.3867 26.1829 30.6394 26.3691 30.8272 26.2327L31.9608 25.4101C32.0018 25.3804 32.0512 25.3644 32.1018 25.3646C32.1525 25.3647 32.2018 25.3808 32.2426 25.4107L33.3763 26.2347C33.5643 26.3713 33.817 26.1878 33.7452 25.967L33.3121 24.6343C33.2965 24.5861 33.2965 24.5343 33.3121 24.4861C33.3278 24.438 33.3583 24.396 33.3992 24.3663L34.5331 23.5024C34.721 23.3658 34.6244 23.0286 34.3921 23.0286H32.9908C32.8869 23.0286 32.7948 23.0019 32.7628 22.9031L32.3297 21.5904C32.2581 21.3694 31.9456 21.3797 31.8738 21.6005L31.4409 22.8981C31.4086 22.9967 31.3166 23.0286 31.2129 23.0286H29.8114C29.5793 23.0286 29.4828 23.3658 29.6706 23.5024H29.6706ZM27.3423 36.9313C27.3423 36.8394 27.3057 36.7513 27.2407 36.6863C27.1757 36.6213 27.0876 36.5847 26.9957 36.5847H20.7568C20.6648 36.5848 20.5767 36.6213 20.5117 36.6863C20.4467 36.7513 20.4102 36.8394 20.4102 36.9313V43.427C20.4102 43.5189 20.4467 43.607 20.5117 43.672C20.5767 43.737 20.6648 43.7736 20.7568 43.7736H26.9957C27.0876 43.7736 27.1757 43.7371 27.2407 43.6721C27.3057 43.6071 27.3423 43.5189 27.3423 43.427V36.9313ZM23.1912 32.7538C23.2172 32.7727 23.2366 32.7993 23.2465 32.8299C23.2565 32.8604 23.2565 32.8934 23.2466 32.9239L23.0967 33.3847C23.0514 33.5249 23.2117 33.6412 23.3308 33.5547L23.7227 33.2699C23.7487 33.251 23.78 33.2409 23.8121 33.2409C23.8442 33.2409 23.8755 33.251 23.9014 33.2699L24.2934 33.5547C24.4125 33.6412 24.5728 33.5249 24.5275 33.3847L24.3776 32.9239C24.3678 32.8934 24.3678 32.8605 24.3777 32.83C24.3876 32.7994 24.4069 32.7728 24.4328 32.7538L24.8249 32.4565C24.9439 32.3701 24.8827 32.1687 24.7355 32.1687H24.2511C24.1853 32.1687 24.1267 32.139 24.1065 32.0765L23.9568 31.6222C23.9113 31.482 23.7131 31.4852 23.6676 31.6251L23.5179 32.0749C23.4975 32.1375 23.4391 32.1687 23.3731 32.1687H22.8889C22.7417 32.1687 22.6803 32.3701 22.7995 32.4566L23.1912 32.7538Z" fill="#011826"/>
<path d="M23.8136 35.4555C25.3608 35.4555 26.6195 34.1968 26.6195 32.6497C26.6195 31.1026 25.3608 29.8438 23.8136 29.8438C22.2664 29.8438 21.0078 31.1026 21.0078 32.6497C21.0078 34.1968 22.2665 35.4554 23.8135 35.4554L23.8136 35.4555ZM23.8136 30.4792C25.0124 30.4792 25.9841 31.451 25.9841 32.6497C25.9841 33.8484 25.0124 34.82 23.8136 34.82C22.6151 34.82 21.6433 33.8484 21.6433 32.6497C21.6433 31.451 22.6151 30.4792 23.8136 30.4792ZM43.8268 36.9315C43.8268 36.8396 43.7903 36.7514 43.7253 36.6864C43.6603 36.6214 43.5721 36.5849 43.4802 36.5849H37.2413C37.1494 36.5849 37.0613 36.6214 36.9963 36.6864C36.9313 36.7514 36.8947 36.8396 36.8947 36.9315V43.4271C36.8947 43.5191 36.9313 43.6072 36.9963 43.6722C37.0613 43.7372 37.1494 43.7737 37.2413 43.7737H43.4802C43.5721 43.7737 43.6603 43.7372 43.7253 43.6722C43.7903 43.6072 43.8268 43.5191 43.8268 43.4271V36.9315ZM39.7245 32.754C39.7505 32.7729 39.7698 32.7995 39.7797 32.8301C39.7897 32.8606 39.7897 32.8935 39.7798 32.9241L39.6302 33.3848C39.5847 33.525 39.7449 33.6414 39.8641 33.5549L40.2561 33.2701C40.282 33.2512 40.3133 33.241 40.3454 33.241C40.3775 33.241 40.4088 33.2512 40.4348 33.2701L40.8267 33.5549C40.9458 33.6414 41.1061 33.525 41.0607 33.3848L40.9111 32.9241C40.9012 32.8935 40.9011 32.8607 40.911 32.8301C40.9209 32.7996 40.9401 32.7729 40.9661 32.754L41.3582 32.4567C41.4772 32.3703 41.416 32.1689 41.2688 32.1689H40.7842C40.7184 32.1689 40.66 32.1392 40.6397 32.0766L40.4901 31.6223C40.4446 31.4821 40.2464 31.4853 40.2009 31.6253L40.0512 32.075C40.0308 32.1376 39.9724 32.1689 39.9066 32.1689H39.4222C39.275 32.1689 39.2136 32.3703 39.3328 32.4567L39.7245 32.754Z" fill="#011826"/>
<path d="M40.3409 35.4555C41.8882 35.4555 43.147 34.1968 43.147 32.6497C43.147 31.1026 41.8882 29.8438 40.3409 29.8438C38.7937 29.8438 37.5352 31.1026 37.5352 32.6497C37.5352 34.1968 38.7937 35.4554 40.3409 35.4554V35.4555ZM40.3409 30.4792C41.5395 30.4792 42.5115 31.451 42.5115 32.6497C42.5115 33.8484 41.5395 34.82 40.3409 34.82C39.1424 34.82 38.1705 33.8484 38.1705 32.6497C38.1705 31.451 39.1424 30.4792 40.3409 30.4792Z" fill="#011826"/>
</svg>
