<svg width="231" height="71" viewBox="0 0 231 71" fill="none" xmlns="http://www.w3.org/2000/svg">
<mask id="path-1-inside-1_1753_1345" fill="white">
<path d="M231 35.4356C231 16.262 215.457 0.71875 196.283 0.71875H34.7168C15.5432 0.71875 0 16.262 0 35.4356C0 54.6091 15.5432 70.1524 34.7168 70.1524H196.283C215.457 70.1524 231 54.6091 231 35.4356Z"/>
</mask>
<path d="M231 35.4356C231 16.262 215.457 0.71875 196.283 0.71875H34.7168C15.5432 0.71875 0 16.262 0 35.4356C0 54.6091 15.5432 70.1524 34.7168 70.1524H196.283C215.457 70.1524 231 54.6091 231 35.4356Z" fill="#011826"/>
<path d="M196.283 1.64453H34.7168V-0.207032H196.283V1.64453ZM34.7168 69.2266H196.283V71.0782H34.7168V69.2266ZM196.283 69.2266C214.945 69.2266 230.074 54.0978 230.074 35.4356H231.926C231.926 55.1204 215.968 71.0782 196.283 71.0782V69.2266ZM0.925781 35.4356C0.925781 54.0978 16.0545 69.2266 34.7168 69.2266V71.0782C15.032 71.0782 -0.925781 55.1204 -0.925781 35.4356H0.925781ZM34.7168 1.64453C16.0546 1.64453 0.925781 16.7733 0.925781 35.4356H-0.925781C-0.925781 15.7507 15.032 -0.207032 34.7168 -0.207032V1.64453ZM196.283 -0.207032C215.968 -0.207032 231.926 15.7507 231.926 35.4356H230.074C230.074 16.7733 214.945 1.64453 196.283 1.64453V-0.207032Z" fill="white" mask="url(#path-1-inside-1_1753_1345)"/>
<circle cx="33.8086" cy="35.4336" r="28.6992" fill="white"/>
<path fill-rule="evenodd" clip-rule="evenodd" d="M30.337 38.9049C30.337 36.9908 28.7798 35.4333 26.8655 35.4333C24.9511 35.4333 23.3937 36.9908 23.3937 38.9049C23.3937 40.8192 24.9512 42.3767 26.8655 42.3767C28.7797 42.3767 30.337 40.8192 30.337 38.9049ZM26.8653 42.3767C23.5418 42.3767 20.8477 45.0709 20.8477 48.3943C20.8477 48.8418 21.2104 49.2046 21.6579 49.2046H32.0728C32.5204 49.2046 32.8831 48.8418 32.8831 48.3943C32.8831 45.0709 30.1889 42.3767 26.8653 42.3767ZM40.7519 35.4333C38.8376 35.4333 37.2802 36.9908 37.2802 38.9049C37.2802 40.8192 38.8376 42.3767 40.7519 42.3767C42.6663 42.3767 44.2235 40.8192 44.2235 38.9049C44.2235 36.9908 42.6662 35.4333 40.7519 35.4333ZM40.7519 42.3767C37.4285 42.3767 34.7341 45.0709 34.7341 48.3943C34.7341 48.8418 35.0971 49.2046 35.5444 49.2046H45.9593C46.4068 49.2046 46.7695 48.8418 46.7695 48.3943C46.7695 45.0709 44.0753 42.3767 40.7519 42.3767ZM40.7519 33.5823C42.1558 33.5823 43.298 32.4401 43.298 31.0363V24.0929C43.298 22.6742 42.1469 21.5469 40.7519 21.5469H26.8655C25.4459 21.5469 24.3192 22.6988 24.3192 24.0929V31.0363C24.3192 32.4401 25.4614 33.5823 26.8655 33.5823H30.9289L33.084 37.8922C33.1513 38.0269 33.2547 38.1401 33.3827 38.2192C33.5107 38.2984 33.6582 38.3403 33.8087 38.3403C33.9592 38.3403 34.1068 38.2984 34.2348 38.2192C34.3628 38.1401 34.4662 38.0269 34.5335 37.8922L36.6883 33.5823L40.7519 33.5823ZM35.5444 25.0185C35.9917 25.0185 36.3546 25.3816 36.3546 25.8288C36.3546 26.2761 35.9917 26.6391 35.5444 26.6391C35.0972 26.6391 34.7341 26.2761 34.7341 25.8288C34.7341 25.3816 35.0972 25.0185 35.5444 25.0185ZM32.0728 25.0185C32.5202 25.0185 32.8831 25.3816 32.8831 25.8288C32.8831 26.2761 32.5202 26.6391 32.0728 26.6391C31.6255 26.6391 31.2626 26.2761 31.2626 25.8288C31.2626 25.3816 31.6255 25.0185 32.0728 25.0185ZM33.8086 30.5446C32.5356 30.5446 31.3197 29.9367 30.5565 28.9186C30.2881 28.5605 30.3609 28.0526 30.719 27.7842C31.0771 27.5158 31.585 27.5884 31.8531 27.9465C32.3121 28.5586 33.0431 28.9241 33.8086 28.9241C34.5742 28.9241 35.3051 28.5586 35.7641 27.9465C36.0325 27.5883 36.5403 27.5156 36.8985 27.7842C37.2565 28.0526 37.3291 28.5605 37.0607 28.9186C36.2974 29.9367 35.0816 30.5446 33.8086 30.5446Z" fill="#011826"/>
</svg>
