<svg width="234" height="61" viewBox="0 0 234 61" fill="none" xmlns="http://www.w3.org/2000/svg">
<mask id="path-1-inside-1_1753_1355" fill="white">
<path d="M234 30.4793C234 13.7302 220.422 0.152344 203.673 0.152344H30.3269C13.5778 0.152344 0 13.7302 0 30.4793C0 47.2284 13.5778 60.8062 30.3269 60.8062H203.673C220.422 60.8062 234 47.2284 234 30.4793Z"/>
</mask>
<path d="M234 30.4793C234 13.7302 220.422 0.152344 203.673 0.152344H30.3269C13.5778 0.152344 0 13.7302 0 30.4793C0 47.2284 13.5778 60.8062 30.3269 60.8062H203.673C220.422 60.8062 234 47.2284 234 30.4793Z" fill="#011826"/>
<path d="M203.673 0.961062H30.3269V-0.656374H203.673V0.961062ZM30.3269 59.9975H203.673V61.6149H30.3269V59.9975ZM203.673 59.9975C219.976 59.9975 233.191 46.7817 233.191 30.4793H234.809C234.809 47.675 220.869 61.6149 203.673 61.6149V59.9975ZM0.808716 30.4793C0.808716 46.7817 14.0245 59.9975 30.3269 59.9975V61.6149C13.1312 61.6149 -0.808716 47.675 -0.808716 30.4793H0.808716ZM30.3269 0.961062C14.0245 0.961062 0.808716 14.1768 0.808716 30.4793H-0.808716C-0.808716 13.2835 13.1312 -0.656374 30.3269 -0.656374V0.961062ZM203.673 -0.656374C220.869 -0.656374 234.809 13.2835 234.809 30.4793H233.191C233.191 14.1768 219.976 0.961062 203.673 0.961062V-0.656374Z" fill="white" mask="url(#path-1-inside-1_1753_1355)"/>
<circle cx="29.7968" cy="30.4765" r="25.0703" fill="white"/>
<path fill-rule="evenodd" clip-rule="evenodd" d="M41.1207 30.4667C41.1207 29.8306 40.7183 29.2313 40.117 28.7047C39.8105 28.4351 39.4566 28.177 39.1564 27.9127C38.9784 27.7557 38.8046 27.6167 38.7509 27.4429C38.693 27.2534 38.7509 27.0185 38.8089 26.7668C38.9005 26.3666 39.0395 25.9411 39.1364 25.5398C39.327 24.7478 39.3112 24.0253 38.9679 23.5313C38.6109 23.0173 37.9389 22.773 37.1364 22.7161C36.7414 22.6887 36.3117 22.6961 35.9199 22.6645C35.6945 22.6466 35.4818 22.6413 35.3427 22.535L35.3417 22.5339C35.1974 22.4244 35.1258 22.2074 35.0362 21.9778C34.8877 21.5976 34.7624 21.1658 34.6139 20.7793C34.3201 20.0073 33.884 19.4206 33.309 19.2247C32.7392 19.0309 32.0514 19.2395 31.3669 19.6934C31.034 19.9135 30.6928 20.1831 30.3568 20.3969C30.1588 20.5233 29.9787 20.6508 29.7986 20.6508C29.6185 20.6508 29.4384 20.5233 29.2404 20.3969C28.9044 20.1831 28.5632 19.9135 28.2304 19.6934C27.5458 19.2395 26.858 19.0309 26.2883 19.2247C25.7132 19.4206 25.2772 20.0073 24.9833 20.7793C24.8348 21.1658 24.7095 21.5976 24.561 21.9778C24.4715 22.2074 24.3998 22.4244 24.2555 22.5339L24.2545 22.535C24.1155 22.6413 23.9027 22.6466 23.6773 22.6645C23.2855 22.6961 22.8569 22.6887 22.4609 22.7161C21.6583 22.7719 20.9864 23.0163 20.6293 23.5303C20.286 24.0242 20.2702 24.7478 20.4608 25.5398C20.5577 25.9411 20.6967 26.3666 20.7884 26.7668C20.8463 27.0185 20.9042 27.2534 20.8463 27.4429C20.7926 27.6167 20.6188 27.7557 20.4408 27.9127C20.1406 28.177 19.7868 28.4351 19.4803 28.7047C18.8789 29.2313 18.4766 29.8306 18.4766 30.4667C18.4766 31.1029 18.8789 31.7021 19.4803 32.2287C19.7868 32.4973 20.1406 32.7564 20.4408 33.0208C20.6188 33.1777 20.7926 33.3167 20.8463 33.4905C20.9042 33.6801 20.8463 33.9149 20.7884 34.1667C20.6967 34.5669 20.5577 34.9924 20.4608 35.3937C20.2702 36.1857 20.286 36.9082 20.6293 37.4021C20.9864 37.9161 21.6583 38.1604 22.4609 38.2173C22.8558 38.2447 23.2855 38.2373 23.6773 38.2689C23.9027 38.2868 24.1155 38.2921 24.2545 38.3985L24.2555 38.3995C24.3998 38.5091 24.4715 38.726 24.561 38.9556C24.7095 39.3358 24.8348 39.7677 24.9833 40.1542C25.2772 40.9251 25.7132 41.5128 26.2883 41.7087C26.858 41.9025 27.5458 41.694 28.2304 41.24C28.5632 41.0199 28.9044 40.7503 29.2404 40.5365C29.4384 40.4101 29.6185 40.2827 29.7986 40.2827C29.9787 40.2827 30.1588 40.4101 30.3568 40.5365C30.6928 40.7503 31.034 41.0199 31.3669 41.24C32.0514 41.694 32.7392 41.9025 33.309 41.7087C33.884 41.5128 34.3201 40.9251 34.6139 40.1542C34.7624 39.7677 34.8877 39.3358 35.0362 38.9556C35.1258 38.726 35.1974 38.5091 35.3417 38.3995L35.3427 38.3985C35.4818 38.2921 35.6945 38.2868 35.9199 38.2689C36.3117 38.2373 36.7403 38.2447 37.1364 38.2173C37.9389 38.1615 38.6109 37.9172 38.9679 37.4032C39.3112 36.9082 39.327 36.1857 39.1364 35.3937C39.0395 34.9924 38.9005 34.5669 38.8089 34.1667C38.7509 33.9149 38.693 33.6801 38.7509 33.4905C38.8046 33.3167 38.9784 33.1777 39.1564 33.0208C39.4566 32.7564 39.8105 32.4973 40.117 32.2287C40.7183 31.7021 41.1207 31.1029 41.1207 30.4667ZM26.0808 31.0249L28.1872 33.1314C28.2605 33.2047 28.3475 33.2629 28.4433 33.3026C28.539 33.3424 28.6417 33.3628 28.7454 33.3628C28.8491 33.3628 28.9518 33.3424 29.0475 33.3026C29.1433 33.2629 29.2303 33.2047 29.3036 33.1314L33.5165 28.9185C33.5898 28.8452 33.6479 28.7582 33.6876 28.6624C33.7273 28.5666 33.7477 28.464 33.7477 28.3603C33.7477 28.2566 33.7273 28.154 33.6876 28.0582C33.6479 27.9624 33.5898 27.8754 33.5165 27.8021C33.4432 27.7288 33.3561 27.6706 33.2604 27.631C33.1646 27.5913 33.0619 27.5709 32.9583 27.5709C32.8546 27.5709 32.7519 27.5913 32.6562 27.631C32.5604 27.6706 32.4734 27.7288 32.4001 27.8021L28.7454 31.4557L27.1972 29.9085C27.1239 29.8352 27.0368 29.7771 26.9411 29.7374C26.8453 29.6977 26.7426 29.6773 26.639 29.6773C26.5353 29.6773 26.4327 29.6977 26.3369 29.7374C26.2411 29.7771 26.1541 29.8352 26.0808 29.9085C26.0075 29.9818 25.9493 30.0688 25.9096 30.1646C25.87 30.2604 25.8496 30.3631 25.8496 30.4667C25.8496 30.5704 25.87 30.673 25.9096 30.7688C25.9493 30.8646 26.0075 30.9516 26.0808 31.0249Z" fill="#011826"/>
</svg>
