<svg width="1614" height="1552" viewBox="0 0 1614 1552" fill="none" xmlns="http://www.w3.org/2000/svg">
<line x1="861.25" y1="-1.09278e-08" x2="861.25" y2="1552" stroke="white" stroke-width="0.5"/>
<rect x="3.5" y="49.5" width="99" height="99" rx="9.5" fill="#011826" stroke="white"/>
<g clip-path="url(#clip0_1975_8837)">
<path d="M71.9453 82.3008C71.9453 79.3392 69.5358 76.9297 66.5742 76.9297H65.5V81.3242C65.5 82.1332 64.8441 82.7891 64.0352 82.7891C63.2262 82.7891 62.5703 82.1332 62.5703 81.3242V76.9297H56.125V81.3242C56.125 82.1332 55.4691 82.7891 54.6602 82.7891C53.8512 82.7891 53.1953 82.1332 53.1953 81.3242V76.9297H46.75V81.3242C46.75 82.1332 46.0941 82.7891 45.2852 82.7891C44.4762 82.7891 43.8203 82.1332 43.8203 81.3242V76.9297H37.375V81.3242C37.375 82.1332 36.7191 82.7891 35.9102 82.7891C35.1012 82.7891 34.4453 82.1332 34.4453 81.3242V76.9297H33.3711C30.4095 76.9297 28 79.3392 28 82.3008V86.6953H71.9453V82.3008ZM37.375 75.4648C37.375 74.6559 36.7191 74 35.9102 74C35.1012 74 34.4453 74.6559 34.4453 75.4648V76.9297H37.375V75.4648ZM65.5 75.4648C65.5 74.6559 64.8441 74 64.0352 74C63.2262 74 62.5703 74.6559 62.5703 75.4648V76.9297H65.5V75.4648ZM56.125 75.4648C56.125 74.6559 55.4691 74 54.6602 74C53.8512 74 53.1953 74.6559 53.1953 75.4648V76.9297H56.125V75.4648ZM46.75 75.4648C46.75 74.6559 46.0941 74 45.2852 74C44.4762 74 43.8203 74.6559 43.8203 75.4648V76.9297H46.75V75.4648ZM67.2578 99.5859C68.9037 99.5859 70.4826 99.8784 71.9453 100.414V89.625H28V111.598C28 114.021 29.9714 115.992 32.3945 115.992H53.8608C53.6777 115.092 53.5856 114.176 53.5859 113.258C53.5859 105.719 59.7191 99.5859 67.2578 99.5859ZM61.7891 94.752H64.2305C65.0395 94.752 65.6953 95.4078 65.6953 96.2168C65.6953 97.0258 65.0395 97.6816 64.2305 97.6816H61.7891C60.9801 97.6816 60.3242 97.0258 60.3242 96.2168C60.3242 95.4078 60.9801 94.752 61.7891 94.752ZM53.0977 94.752H55.5391C56.348 94.752 57.0039 95.4078 57.0039 96.2168C57.0039 97.0258 56.348 97.6816 55.5391 97.6816H53.0977C52.2887 97.6816 51.6328 97.0258 51.6328 96.2168C51.6328 95.4078 52.2887 94.752 53.0977 94.752ZM38.1562 110.865H35.7148C34.9059 110.865 34.25 110.209 34.25 109.4C34.25 108.591 34.9059 107.936 35.7148 107.936H38.1562C38.9652 107.936 39.6211 108.591 39.6211 109.4C39.6211 110.209 38.9652 110.865 38.1562 110.865ZM38.1562 104.273H35.7148C34.9059 104.273 34.25 103.618 34.25 102.809C34.25 102 34.9059 101.344 35.7148 101.344H38.1562C38.9652 101.344 39.6211 102 39.6211 102.809C39.6211 103.618 38.9652 104.273 38.1562 104.273ZM46.8477 110.865H44.4062C43.5973 110.865 42.9414 110.209 42.9414 109.4C42.9414 108.591 43.5973 107.936 44.4062 107.936H46.8477C47.6566 107.936 48.3125 108.591 48.3125 109.4C48.3125 110.209 47.6566 110.865 46.8477 110.865ZM46.8477 104.273H44.4062C43.5973 104.273 42.9414 103.618 42.9414 102.809C42.9414 102 43.5973 101.344 44.4062 101.344H46.8477C47.6566 101.344 48.3125 102 48.3125 102.809C48.3125 103.618 47.6566 104.273 46.8477 104.273ZM46.8477 97.6816H44.4062C43.5973 97.6816 42.9414 97.0258 42.9414 96.2168C42.9414 95.4078 43.5973 94.752 44.4062 94.752H46.8477C47.6566 94.752 48.3125 95.4078 48.3125 96.2168C48.3125 97.0258 47.6566 97.6816 46.8477 97.6816ZM51.6328 102.809C51.6328 102 52.2887 101.344 53.0977 101.344H55.5391C56.348 101.344 57.0039 102 57.0039 102.809C57.0039 103.618 56.348 104.273 55.5391 104.273H53.0977C52.2887 104.273 51.6328 103.618 51.6328 102.809Z" fill="white"/>
<path d="M67.2578 102.516C61.3346 102.516 56.5156 107.335 56.5156 113.258C56.5156 119.181 61.3346 124 67.2578 124C73.1811 124 78 119.181 78 113.258C78 107.335 73.1811 102.516 67.2578 102.516ZM72.1406 114.723H67.2578C66.4488 114.723 65.793 114.067 65.793 113.258V108.375C65.793 107.566 66.4488 106.91 67.2578 106.91C68.0668 106.91 68.7227 107.566 68.7227 108.375V111.793H72.1406C72.9496 111.793 73.6055 112.449 73.6055 113.258C73.6055 114.067 72.9496 114.723 72.1406 114.723Z" fill="white"/>
</g>
<rect x="578.5" y="261.5" width="99" height="99" rx="9.5" fill="#011826" stroke="white"/>
<path d="M604.465 296.621C605.274 296.621 605.93 295.965 605.93 295.156V288.93H612.156C612.965 288.93 613.621 288.274 613.621 287.465C613.621 286.656 612.965 286 612.156 286H605.93C604.314 286 603 287.314 603 288.93V295.156C603 295.965 603.656 296.621 604.465 296.621ZM650.07 286H643.844C643.035 286 642.379 286.656 642.379 287.465C642.379 288.274 643.035 288.93 643.844 288.93H650.07V295.156C650.07 295.965 650.726 296.621 651.535 296.621C652.344 296.621 653 295.965 653 295.156V288.93C653 287.314 651.686 286 650.07 286ZM651.535 325.379C650.726 325.379 650.07 326.035 650.07 326.844V333.07H643.844C643.035 333.07 642.379 333.726 642.379 334.535C642.379 335.344 643.035 336 643.844 336H650.07C651.686 336 653 334.686 653 333.07V326.844C653 326.035 652.344 325.379 651.535 325.379ZM612.156 333.07H605.93V326.844C605.93 326.035 605.274 325.379 604.465 325.379C603.656 325.379 603 326.035 603 326.844V333.07C603 334.686 604.314 336 605.93 336H612.156C612.965 336 613.621 335.344 613.621 334.535C613.621 333.726 612.965 333.07 612.156 333.07ZM616.469 300.757C610.717 303.1 605.729 307.349 603.032 311.341C602.989 311.405 602.989 311.488 603.032 311.553C606.21 316.26 611.094 319.77 616.926 321.72C611.315 315.932 611.105 306.796 616.469 300.757ZM639.531 300.757C644.946 306.854 644.629 316.049 639.104 321.705C644.925 319.753 649.798 316.248 652.968 311.553C653.011 311.488 653.011 311.405 652.968 311.341C650.231 307.289 645.235 303.081 639.531 300.757Z" fill="white"/>
<path d="M628 298.496C621.113 298.496 615.508 304.098 615.508 310.988C615.508 320.414 625.632 326.591 634.062 321.902C638.089 319.662 640.492 315.582 640.492 310.988C640.492 304.101 634.889 298.496 628 298.496ZM630.742 318.225C625.772 320.102 620.265 316.506 620.265 310.988C620.265 304.855 627.013 301.372 631.822 304.261C637.495 307.493 636.868 315.909 630.742 318.225Z" fill="white"/>
<path d="M630.38 306.808C627.094 304.993 623.195 307.361 623.195 310.987C623.195 314.392 626.59 316.665 629.706 315.483C633.575 314.02 633.84 308.789 630.38 306.808Z" fill="white"/>
<rect x="0.5" y="473.5" width="99" height="99" rx="9.5" fill="#011826" stroke="white"/>
<path d="M44.7373 519.928C50.7925 519.928 55.7012 515.019 55.7012 508.964C55.7012 502.909 50.7925 498 44.7373 498C38.6821 498 33.7734 502.909 33.7734 508.964C33.7734 515.019 38.6821 519.928 44.7373 519.928Z" fill="white"/>
<path d="M50.2914 543.609C49.7445 542.658 49.4947 541.565 49.574 540.471C49.6533 539.377 50.0582 538.331 50.7366 537.469C50.0579 536.607 49.6529 535.562 49.5735 534.467C49.4942 533.373 49.7442 532.28 50.2914 531.329L52.0654 528.259C52.6157 527.31 53.4374 526.547 54.4249 526.069C55.4125 525.591 56.5205 525.419 57.6065 525.576C57.6789 525.396 57.771 525.227 57.8609 525.056C56.6502 524.57 55.3586 524.318 54.0542 524.312H35.4157C32.6543 524.316 30.0071 525.414 28.0545 527.367C26.102 529.32 25.0035 531.967 25 534.728L25 542.403C25 543.311 25.7368 544.047 26.6446 544.047H50.5436L50.2914 543.609Z" fill="white"/>
<path d="M72.5892 538.498C72.633 538.158 72.6922 537.821 72.6922 537.47C72.6922 537.117 72.6308 536.781 72.5892 536.441L74.5648 534.946C74.778 534.784 74.9249 534.551 74.9778 534.289C75.0307 534.027 74.986 533.754 74.8521 533.523L73.0782 530.453C72.9447 530.221 72.7313 530.047 72.4782 529.962C72.225 529.876 71.9495 529.887 71.7033 529.99L69.4294 530.948C68.8791 530.517 68.2755 530.158 67.6335 529.881L67.3309 527.466C67.2978 527.201 67.169 526.957 66.9687 526.78C66.7684 526.604 66.5105 526.506 66.2433 526.506H62.6976C62.4304 526.506 62.1724 526.604 61.9722 526.78C61.7719 526.957 61.6431 527.201 61.61 527.466L61.3074 529.881C60.6655 530.158 60.062 530.517 59.5115 530.948L57.2376 529.99C56.9914 529.887 56.7158 529.876 56.4627 529.962C56.2095 530.047 55.9962 530.221 55.8627 530.453L54.0888 533.523C53.9549 533.754 53.9102 534.027 53.9631 534.289C54.016 534.551 54.1628 534.784 54.376 534.946L56.3517 536.441C56.3078 536.781 56.2486 537.119 56.2486 537.47C56.2486 537.823 56.31 538.158 56.3517 538.498L54.376 539.994C54.1628 540.155 54.016 540.389 53.9631 540.651C53.9102 540.913 53.9549 541.185 54.0888 541.417L55.8627 544.489C55.9962 544.72 56.2095 544.895 56.4627 544.98C56.7158 545.065 56.9914 545.055 57.2376 544.951L59.5115 543.991C60.0662 544.414 60.6561 544.787 61.3074 545.059L61.61 547.473C61.6779 548.021 62.1428 548.434 62.6954 548.434H66.2411C66.5083 548.433 66.7662 548.336 66.9665 548.159C67.1668 547.982 67.2956 547.738 67.3287 547.473L67.6313 545.059C68.2826 544.787 68.8746 544.412 69.4272 543.991L71.7011 544.949C71.9473 545.053 72.2228 545.063 72.476 544.978C72.7291 544.893 72.9425 544.718 73.076 544.487L74.8499 541.415C74.9838 541.183 75.0285 540.911 74.9756 540.649C74.9227 540.387 74.7758 540.153 74.5627 539.991L72.5892 538.498ZM64.4693 541.855C63.8853 541.868 63.3045 541.765 62.7611 541.551C62.2177 541.336 61.7225 541.015 61.3048 540.607C60.887 540.199 60.555 539.711 60.3283 539.173C60.1016 538.634 59.9848 538.056 59.9846 537.472C59.9845 536.888 60.1011 536.309 60.3275 535.771C60.5539 535.232 60.8857 534.745 61.3032 534.336C61.7208 533.928 62.2157 533.607 62.7591 533.392C63.3024 533.177 63.8831 533.073 64.4671 533.086C65.613 533.112 66.7034 533.585 67.5049 534.404C68.3065 535.223 68.7554 536.324 68.7557 537.47C68.756 538.616 68.3076 539.717 67.5065 540.536C66.7053 541.356 65.6152 541.829 64.4693 541.855Z" fill="white"/>
<rect x="578.5" y="715.5" width="99" height="99" rx="9.5" fill="#011826" stroke="white"/>
<path d="M615.5 786.429H608.357C607.884 786.429 607.429 786.24 607.094 785.906C606.76 785.571 606.571 785.116 606.571 784.643V777.5C606.571 777.026 606.383 776.572 606.048 776.237C605.714 775.902 605.259 775.714 604.786 775.714C604.312 775.714 603.858 775.902 603.523 776.237C603.188 776.572 603 777.026 603 777.5V784.643C603 786.064 603.564 787.426 604.569 788.431C605.574 789.436 606.936 790 608.357 790H615.5C615.974 790 616.428 789.812 616.763 789.477C617.098 789.142 617.286 788.688 617.286 788.214C617.286 787.741 617.098 787.286 616.763 786.952C616.428 786.617 615.974 786.429 615.5 786.429ZM651.214 775.714C650.741 775.714 650.286 775.902 649.952 776.237C649.617 776.572 649.429 777.026 649.429 777.5V784.643C649.429 785.116 649.24 785.571 648.906 785.906C648.571 786.24 648.116 786.429 647.643 786.429H640.5C640.026 786.429 639.572 786.617 639.237 786.952C638.902 787.286 638.714 787.741 638.714 788.214C638.714 788.688 638.902 789.142 639.237 789.477C639.572 789.812 640.026 790 640.5 790H647.643C649.064 790 650.426 789.436 651.431 788.431C652.436 787.426 653 786.064 653 784.643V777.5C653 777.026 652.812 776.572 652.477 776.237C652.142 775.902 651.688 775.714 651.214 775.714ZM604.786 754.286C605.259 754.286 605.714 754.098 606.048 753.763C606.383 753.428 606.571 752.974 606.571 752.5V745.357C606.571 744.884 606.76 744.429 607.094 744.094C607.429 743.76 607.884 743.571 608.357 743.571H615.5C615.974 743.571 616.428 743.383 616.763 743.048C617.098 742.714 617.286 742.259 617.286 741.786C617.286 741.312 617.098 740.858 616.763 740.523C616.428 740.188 615.974 740 615.5 740H608.357C606.936 740 605.574 740.564 604.569 741.569C603.564 742.574 603 743.936 603 745.357V752.5C603 752.974 603.188 753.428 603.523 753.763C603.858 754.098 604.312 754.286 604.786 754.286ZM647.643 740H640.5C640.026 740 639.572 740.188 639.237 740.523C638.902 740.858 638.714 741.312 638.714 741.786C638.714 742.259 638.902 742.714 639.237 743.048C639.572 743.383 640.026 743.571 640.5 743.571H647.643C648.116 743.571 648.571 743.76 648.906 744.094C649.24 744.429 649.429 744.884 649.429 745.357V752.5C649.429 752.974 649.617 753.428 649.952 753.763C650.286 754.098 650.741 754.286 651.214 754.286C651.688 754.286 652.142 754.098 652.477 753.763C652.812 753.428 653 752.974 653 752.5V745.357C653 743.936 652.436 742.574 651.431 741.569C650.426 740.564 649.064 740 647.643 740Z" fill="white"/>
<path d="M619.069 770.357H613.712C612.765 770.357 611.856 770.734 611.187 771.403C610.517 772.073 610.141 772.982 610.141 773.929V779.286C610.141 780.233 610.517 781.142 611.187 781.811C611.856 782.481 612.765 782.857 613.712 782.857H619.069C620.016 782.857 620.925 782.481 621.595 781.811C622.264 781.142 622.641 780.233 622.641 779.286V773.929C622.641 772.982 622.264 772.073 621.595 771.403C620.925 770.734 620.016 770.357 619.069 770.357ZM613.712 779.286V773.929H619.069V779.286H613.712ZM645.855 779.286V773.929C645.855 772.982 645.479 772.073 644.809 771.403C644.139 770.734 643.231 770.357 642.283 770.357H636.926C635.979 770.357 635.071 770.734 634.401 771.403C633.731 772.073 633.355 772.982 633.355 773.929V779.286C633.355 780.233 633.731 781.142 634.401 781.811C635.071 782.481 635.979 782.857 636.926 782.857H642.283C643.231 782.857 644.139 782.481 644.809 781.811C645.479 781.142 645.855 780.233 645.855 779.286ZM636.926 773.929H642.283V779.286H636.926V773.929Z" fill="white"/>
<path d="M626.212 763.214H611.926C611.453 763.214 610.999 763.402 610.664 763.737C610.329 764.072 610.141 764.526 610.141 765C610.141 765.473 610.329 765.928 610.664 766.262C610.999 766.597 611.453 766.785 611.926 766.785H626.212V781.071C626.212 781.545 626.4 781.999 626.735 782.334C627.07 782.669 627.524 782.857 627.998 782.857C628.471 782.857 628.926 782.669 629.26 782.334C629.595 781.999 629.783 781.545 629.783 781.071V766.785C629.783 765.838 629.407 764.93 628.737 764.26C628.068 763.59 627.159 763.214 626.212 763.214ZM610.141 750.714V757.857C610.141 758.33 610.329 758.785 610.664 759.12C610.999 759.454 611.453 759.643 611.926 759.643C612.4 759.643 612.854 759.454 613.189 759.12C613.524 758.785 613.712 758.33 613.712 757.857V750.714H620.855C621.329 750.714 621.783 750.526 622.118 750.191C622.452 749.856 622.641 749.402 622.641 748.928C622.641 748.455 622.452 748 622.118 747.666C621.783 747.331 621.329 747.143 620.855 747.143H613.712C612.765 747.143 611.856 747.519 611.187 748.189C610.517 748.858 610.141 749.767 610.141 750.714ZM636.926 759.643H642.283C643.231 759.643 644.139 759.266 644.809 758.597C645.479 757.927 645.855 757.018 645.855 756.071V750.714C645.855 749.767 645.479 748.858 644.809 748.189C644.139 747.519 643.231 747.143 642.283 747.143H636.926C635.979 747.143 635.071 747.519 634.401 748.189C633.731 748.858 633.355 749.767 633.355 750.714V756.071C633.355 757.018 633.731 757.927 634.401 758.597C635.071 759.266 635.979 759.643 636.926 759.643ZM636.926 750.714H642.283V756.071H636.926V750.714ZM635.141 766.785H636.926C637.4 766.785 637.854 766.597 638.189 766.262C638.524 765.928 638.712 765.473 638.712 765C638.712 764.526 638.524 764.072 638.189 763.737C637.854 763.402 637.4 763.214 636.926 763.214H635.141C634.667 763.214 634.213 763.402 633.878 763.737C633.543 764.072 633.355 764.526 633.355 765C633.355 765.473 633.543 765.928 633.878 766.262C634.213 766.597 634.667 766.785 635.141 766.785ZM642.283 763.214C641.81 763.214 641.356 763.402 641.021 763.737C640.686 764.072 640.498 764.526 640.498 765C640.498 765.473 640.686 765.928 641.021 766.262C641.356 766.597 641.81 766.785 642.283 766.785H644.069C644.543 766.785 644.997 766.597 645.332 766.262C645.667 765.928 645.855 765.473 645.855 765C645.855 764.526 645.667 764.072 645.332 763.737C644.997 763.402 644.543 763.214 644.069 763.214H642.283ZM627.998 756.071H619.069C618.596 756.071 618.141 756.259 617.807 756.594C617.472 756.929 617.283 757.383 617.283 757.857C617.283 758.33 617.472 758.785 617.807 759.12C618.141 759.454 618.596 759.643 619.069 759.643H627.998C628.471 759.643 628.926 759.454 629.26 759.12C629.595 758.785 629.783 758.33 629.783 757.857C629.783 757.383 629.595 756.929 629.26 756.594C628.926 756.259 628.471 756.071 627.998 756.071ZM627.998 747.143C627.524 747.143 627.07 747.331 626.735 747.666C626.4 748 626.212 748.455 626.212 748.928V750.714C626.212 751.188 626.4 751.642 626.735 751.977C627.07 752.312 627.524 752.5 627.998 752.5C628.471 752.5 628.926 752.312 629.26 751.977C629.595 751.642 629.783 751.188 629.783 750.714V748.928C629.783 748.455 629.595 748 629.26 747.666C628.926 747.331 628.471 747.143 627.998 747.143Z" fill="white"/>
<rect x="3.5" y="927.5" width="99" height="99" rx="9.5" fill="#011826" stroke="white"/>
<path d="M30.506 970.341C30.0579 969.846 30.0963 969.081 30.5917 968.633L42.2887 958.053C42.5107 957.852 42.7992 957.741 43.0985 957.74C43.3978 957.74 43.6867 957.85 43.9092 958.051L50.5512 964.026L59.1577 955.419H58.8341C58.166 955.419 57.6244 954.878 57.6244 954.21C57.6244 953.542 58.166 953 58.8341 953H62.0781C62.7462 953 63.2878 953.542 63.2878 954.21V957.451C63.2878 958.119 62.7462 958.66 62.0781 958.66C61.4101 958.66 60.8684 958.119 60.8684 957.451V957.13L51.4506 966.548C50.9958 967.003 50.2645 967.022 49.7862 966.592L43.1023 960.579L32.2146 970.427C31.9925 970.628 31.7034 970.74 31.4035 970.739C31.2344 970.74 31.0671 970.704 30.9125 970.636C30.7579 970.567 30.6194 970.467 30.506 970.341ZM74.2119 988.823H64.7086V979.317C64.7086 979.156 64.6448 979.002 64.5314 978.889C64.418 978.776 64.2641 978.712 64.1037 978.712C58.195 978.712 53.3878 983.519 53.3878 989.428C53.3878 995.337 58.195 1000.14 64.1037 1000.14C70.0125 1000.14 74.8167 995.337 74.8167 989.428C74.8167 989.267 74.753 989.114 74.6396 989C74.5262 988.887 74.3723 988.823 74.2119 988.823ZM67.287 975.529C67.1266 975.529 66.9727 975.592 66.8593 975.706C66.7459 975.819 66.6822 975.973 66.6822 976.133V986.245C66.6822 986.405 66.7459 986.559 66.8593 986.672C66.9727 986.786 67.1266 986.849 67.287 986.849H77.3952C77.5556 986.849 77.7094 986.786 77.8228 986.672C77.9363 986.559 78 986.405 78 986.245C78 980.336 73.1942 975.529 67.287 975.529ZM57.0196 965.07C56.8591 965.07 56.7053 965.134 56.5919 965.247C56.4784 965.361 56.4147 965.515 56.4147 965.675V978.785C58.2158 977.48 60.3594 976.621 62.683 976.37V965.675C62.683 965.515 62.6192 965.361 62.5058 965.247C62.3924 965.134 62.2385 965.07 62.0781 965.07H57.0196ZM54.1431 980.874V972.866C54.1431 972.706 54.0794 972.552 53.966 972.439C53.8526 972.325 53.6987 972.261 53.5383 972.261H48.4798C48.3194 972.261 48.1656 972.325 48.0522 972.439C47.9387 972.552 47.875 972.706 47.875 972.866V988.218H45.6034V969.127C45.6034 968.967 45.5397 968.813 45.4263 968.7C45.3128 968.586 45.159 968.523 44.9986 968.523H39.94C39.7796 968.523 39.6258 968.586 39.5123 968.7C39.3989 968.813 39.3352 968.967 39.3352 969.127V988.218H37.0636V976.732C37.0636 976.572 36.9999 976.418 36.8865 976.305C36.773 976.191 36.6192 976.128 36.4588 976.128H31.4032C31.2428 976.128 31.089 976.191 30.9755 976.305C30.8621 976.418 30.7984 976.572 30.7984 976.732V988.218H29.2097C28.5416 988.218 28 988.76 28 989.428C28 990.096 28.5416 990.637 29.2097 990.637H51.0246C50.9874 990.235 50.9687 989.832 50.9683 989.428C50.9683 986.164 52.1654 983.174 54.143 980.874H54.1431Z" fill="white"/>
<rect x="578.5" y="1169.5" width="99" height="99" rx="9.5" fill="#011826" stroke="white"/>
<path fill-rule="evenodd" clip-rule="evenodd" d="M628.072 1197.17L629.335 1200.49C629.353 1200.54 629.385 1200.58 629.426 1200.61C629.468 1200.65 629.517 1200.66 629.568 1200.66L633.122 1200.84C633.363 1200.85 633.462 1201.15 633.274 1201.31L630.501 1203.53C630.46 1203.57 630.43 1203.61 630.415 1203.66C630.399 1203.71 630.398 1203.76 630.412 1203.81L631.345 1207.24C631.409 1207.47 631.15 1207.66 630.947 1207.53L627.971 1205.58C627.928 1205.55 627.878 1205.54 627.827 1205.54C627.775 1205.54 627.725 1205.55 627.682 1205.58L624.706 1207.53C624.504 1207.66 624.245 1207.47 624.308 1207.24L625.241 1203.81C625.255 1203.76 625.254 1203.71 625.239 1203.66C625.223 1203.61 625.193 1203.57 625.152 1203.53L622.379 1201.31C622.191 1201.15 622.29 1200.85 622.531 1200.84L626.085 1200.66C626.136 1200.66 626.186 1200.65 626.227 1200.61C626.269 1200.58 626.3 1200.54 626.318 1200.49L627.581 1197.17C627.666 1196.94 627.987 1196.94 628.072 1197.17ZM644.562 1224.54C649.222 1224.54 653 1228.31 653 1232.97C653 1237.63 649.222 1241.41 644.562 1241.41C639.901 1241.41 636.123 1237.63 636.123 1232.97C636.123 1228.31 639.901 1224.54 644.562 1224.54ZM643.453 1233.72L641.568 1231.83C641.079 1231.34 640.286 1231.34 639.798 1231.83C639.309 1232.32 639.309 1233.11 639.798 1233.6L642.571 1236.38C643.059 1236.87 643.852 1236.87 644.341 1236.38C646.012 1234.7 647.665 1233.01 649.329 1231.34C649.814 1230.85 649.812 1230.06 649.323 1229.57C648.834 1229.08 648.042 1229.08 647.556 1229.57L643.453 1233.72ZM627.827 1210.57C631.288 1210.57 634.093 1213.37 634.093 1216.83C634.093 1220.29 631.288 1223.1 627.827 1223.1C624.366 1223.1 621.56 1220.29 621.56 1216.83C621.56 1213.37 624.366 1210.57 627.827 1210.57ZM616.723 1235.2L634.704 1235.2C634.539 1234.47 634.456 1233.72 634.457 1232.97C634.457 1230.9 635.084 1228.97 636.158 1227.36C633.957 1225.36 631.035 1224.14 627.827 1224.14C621.87 1224.14 616.896 1228.34 615.704 1233.94C615.671 1234.1 615.673 1234.25 615.708 1234.4C615.744 1234.56 615.814 1234.7 615.912 1234.82C616.009 1234.94 616.133 1235.04 616.274 1235.1C616.414 1235.17 616.568 1235.2 616.723 1235.2ZM652.594 1211.61L650.345 1214.37C650.312 1214.41 650.291 1214.45 650.286 1214.51C650.281 1214.56 650.291 1214.61 650.315 1214.65L651.941 1217.82C652.052 1218.03 651.838 1218.27 651.612 1218.18L648.296 1216.9C648.248 1216.88 648.196 1216.87 648.145 1216.88C648.095 1216.89 648.049 1216.92 648.014 1216.96L645.507 1219.48C645.337 1219.65 645.044 1219.52 645.058 1219.28L645.257 1215.73C645.261 1215.68 645.249 1215.63 645.223 1215.58C645.198 1215.54 645.159 1215.5 645.113 1215.48L641.937 1213.88C641.721 1213.77 641.755 1213.45 641.989 1213.39L645.428 1212.48C645.478 1212.47 645.523 1212.44 645.557 1212.4C645.592 1212.36 645.614 1212.31 645.621 1212.26L646.165 1208.75C646.202 1208.51 646.515 1208.44 646.646 1208.65L648.573 1211.64C648.6 1211.68 648.64 1211.71 648.686 1211.74C648.733 1211.76 648.785 1211.76 648.836 1211.75L652.348 1211.18C652.585 1211.15 652.746 1211.42 652.594 1211.61ZM642.268 1201.1C642.306 1200.87 642.028 1200.71 641.842 1200.86L639.085 1203.11C639.046 1203.14 638.998 1203.16 638.947 1203.17C638.896 1203.17 638.844 1203.16 638.799 1203.14L635.635 1201.51C635.42 1201.4 635.182 1201.61 635.269 1201.84L636.556 1205.16C636.575 1205.2 636.58 1205.26 636.569 1205.31C636.559 1205.36 636.533 1205.4 636.496 1205.44L633.972 1207.94C633.8 1208.12 633.93 1208.41 634.172 1208.39L637.724 1208.19C637.775 1208.19 637.826 1208.2 637.87 1208.23C637.915 1208.25 637.951 1208.29 637.973 1208.34L639.577 1211.51C639.686 1211.73 640.004 1211.7 640.066 1211.46L640.974 1208.02C640.987 1207.97 641.014 1207.93 641.052 1207.89C641.09 1207.86 641.138 1207.84 641.188 1207.83L644.704 1207.29C644.943 1207.25 645.01 1206.94 644.806 1206.81L641.816 1204.88C641.772 1204.85 641.738 1204.81 641.717 1204.77C641.696 1204.72 641.69 1204.67 641.699 1204.62L642.268 1201.1ZM603.305 1211.18L606.817 1211.75C606.868 1211.76 606.92 1211.76 606.967 1211.73C607.014 1211.71 607.053 1211.68 607.08 1211.64L609.007 1208.65C609.138 1208.44 609.451 1208.51 609.488 1208.75L610.032 1212.26C610.039 1212.31 610.061 1212.36 610.096 1212.4C610.13 1212.44 610.175 1212.47 610.225 1212.48L613.664 1213.39C613.898 1213.45 613.932 1213.77 613.716 1213.88L610.54 1215.48C610.494 1215.5 610.456 1215.54 610.43 1215.58C610.404 1215.63 610.393 1215.68 610.396 1215.73L610.595 1219.28C610.609 1219.52 610.316 1219.65 610.146 1219.48L607.639 1216.96C607.604 1216.92 607.558 1216.89 607.508 1216.88C607.457 1216.87 607.405 1216.88 607.357 1216.9L604.041 1218.18C603.815 1218.27 603.601 1218.03 603.712 1217.82L605.339 1214.65C605.387 1214.56 605.376 1214.45 605.308 1214.37L603.059 1211.61C602.907 1211.42 603.068 1211.15 603.305 1211.18ZM613.811 1200.86C613.625 1200.71 613.347 1200.87 613.385 1201.1L613.955 1204.62C613.963 1204.67 613.957 1204.72 613.936 1204.77C613.915 1204.81 613.881 1204.85 613.837 1204.88L610.847 1206.81C610.643 1206.94 610.71 1207.25 610.949 1207.29L614.465 1207.83C614.516 1207.84 614.563 1207.86 614.601 1207.89C614.639 1207.93 614.667 1207.97 614.679 1208.02L615.587 1211.46C615.649 1211.7 615.967 1211.73 616.076 1211.51L617.68 1208.34C617.702 1208.29 617.738 1208.25 617.783 1208.23C617.827 1208.2 617.878 1208.19 617.929 1208.19L621.481 1208.39C621.723 1208.41 621.853 1208.11 621.681 1207.94L619.157 1205.44C619.12 1205.4 619.094 1205.36 619.084 1205.31C619.073 1205.26 619.078 1205.2 619.097 1205.16L620.384 1201.84C620.471 1201.61 620.234 1201.4 620.018 1201.51L616.854 1203.14C616.809 1203.16 616.758 1203.17 616.707 1203.17C616.656 1203.16 616.607 1203.14 616.568 1203.11L613.811 1200.86Z" fill="white"/>
<rect x="3.5" y="1411.5" width="99" height="99" rx="9.5" fill="#011826" stroke="white"/>
<path d="M52.9975 1446.91C53.9582 1446.91 54.7371 1446.13 54.7371 1445.17C54.7371 1444.21 53.9582 1443.43 52.9975 1443.43C52.0367 1443.43 51.2578 1444.21 51.2578 1445.17C51.2578 1446.13 52.0367 1446.91 52.9975 1446.91Z" fill="white"/>
<path d="M53.0012 1451.31C51.0793 1451.31 49.5156 1452.87 49.5156 1454.8V1456.9H56.4869V1454.8C56.4869 1452.87 54.9232 1451.31 53.0012 1451.31Z" fill="white"/>
<path d="M32.947 1487.99C35.6749 1487.99 37.8941 1485.77 37.8941 1483.04C37.8941 1480.72 36.2878 1478.78 34.131 1478.25V1471.69H51.816V1478.25C49.6592 1478.78 48.053 1480.72 48.053 1483.04C48.053 1485.77 50.2721 1487.99 53 1487.99C55.7279 1487.99 57.947 1485.77 57.947 1483.04C57.947 1480.72 56.3408 1478.78 54.184 1478.25V1471.69H71.869V1478.25C69.7122 1478.78 68.1059 1480.72 68.1059 1483.04C68.1059 1485.77 70.3251 1487.99 73.053 1487.99C75.7808 1487.99 78 1485.77 78 1483.04C78 1480.72 76.3937 1478.78 74.2369 1478.25V1470.5C74.2369 1470.19 74.1122 1469.89 73.8902 1469.67C73.6681 1469.44 73.367 1469.32 73.053 1469.32H54.184V1465.28C61.9954 1464.68 68.1675 1458.13 68.1675 1450.17C68.1675 1441.8 61.3636 1435 53 1435C44.6364 1435 37.8325 1441.8 37.8325 1450.17C37.8325 1458.13 44.0042 1464.68 51.816 1465.28V1469.32H32.947C32.633 1469.32 32.3319 1469.44 32.1098 1469.67C31.8878 1469.89 31.7631 1470.19 31.7631 1470.5V1478.25C29.6063 1478.78 28 1480.72 28 1483.04C28 1485.77 30.2192 1487.99 32.947 1487.99ZM48.3304 1459.27C48.0164 1459.27 47.7153 1459.14 47.4932 1458.92C47.2712 1458.7 47.1464 1458.4 47.1464 1458.09V1454.8C47.1464 1452 49.1181 1449.66 51.7434 1449.08C50.0918 1448.55 48.8924 1447 48.8924 1445.17C48.8924 1442.91 50.7351 1441.07 53 1441.07C55.2649 1441.07 57.1076 1442.91 57.1076 1445.17C57.1076 1447 55.9082 1448.55 54.2566 1449.08C56.8819 1449.66 58.8536 1452 58.8536 1454.8V1458.09C58.8536 1458.4 58.7288 1458.7 58.5068 1458.92C58.2848 1459.14 57.9836 1459.27 57.6696 1459.27H48.3304Z" fill="white"/>
<path d="M53 151.5V210H627V255" stroke="white" stroke-dasharray="20 20"/>
<path d="M53 572L53 660.5H627V705.5" stroke="white" stroke-dasharray="20 20"/>
<path d="M53 1035L53 1123.5H627V1168.5" stroke="white" stroke-dasharray="20 20"/>
<path d="M53 467.5V409H627V364" stroke="white" stroke-dasharray="20 20"/>
<path d="M53 926.5V868H627V823" stroke="white" stroke-dasharray="20 20"/>
<path d="M627 1276V1344H53V1408" stroke="white" stroke-dasharray="20 20"/>
<circle cx="672" cy="267" r="14" fill="white"/>
<path fill-rule="evenodd" clip-rule="evenodd" d="M672 281C673.839 281 675.659 280.638 677.358 279.934C679.056 279.231 680.599 278.2 681.899 276.899C683.2 275.599 684.231 274.056 684.934 272.358C685.638 270.659 686 268.839 686 267C686 265.161 685.638 263.341 684.934 261.642C684.231 259.944 683.2 258.401 681.899 257.101C680.599 255.8 679.056 254.769 677.358 254.066C675.659 253.362 673.839 253 672 253C668.287 253 664.726 254.475 662.101 257.101C659.475 259.726 658 263.287 658 267C658 270.713 659.475 274.274 662.101 276.899C664.726 279.525 668.287 281 672 281ZM671.639 272.662L679.417 263.329L677.028 261.338L670.339 269.363L666.878 265.9L664.678 268.1L669.345 272.766L670.549 273.97L671.639 272.662Z" fill="#00ECD4"/>
<circle cx="94" cy="479" r="14" fill="white"/>
<path fill-rule="evenodd" clip-rule="evenodd" d="M94 493C95.8385 493 97.659 492.638 99.3576 491.934C101.056 491.231 102.599 490.2 103.899 488.899C105.2 487.599 106.231 486.056 106.934 484.358C107.638 482.659 108 480.839 108 479C108 477.161 107.638 475.341 106.934 473.642C106.231 471.944 105.2 470.401 103.899 469.101C102.599 467.8 101.056 466.769 99.3576 466.066C97.659 465.362 95.8385 465 94 465C90.287 465 86.726 466.475 84.1005 469.101C81.475 471.726 80 475.287 80 479C80 482.713 81.475 486.274 84.1005 488.899C86.726 491.525 90.287 493 94 493ZM93.6391 484.662L101.417 475.329L99.0276 473.338L92.3387 481.363L88.8776 477.9L86.678 480.1L91.3447 484.766L92.5487 485.97L93.6391 484.662Z" fill="#00ECD4"/>
<circle cx="672" cy="721" r="14" fill="white"/>
<path fill-rule="evenodd" clip-rule="evenodd" d="M672 735C673.839 735 675.659 734.638 677.358 733.934C679.056 733.231 680.599 732.2 681.899 730.899C683.2 729.599 684.231 728.056 684.934 726.358C685.638 724.659 686 722.839 686 721C686 719.161 685.638 717.341 684.934 715.642C684.231 713.944 683.2 712.401 681.899 711.101C680.599 709.8 679.056 708.769 677.358 708.066C675.659 707.362 673.839 707 672 707C668.287 707 664.726 708.475 662.101 711.101C659.475 713.726 658 717.287 658 721C658 724.713 659.475 728.274 662.101 730.899C664.726 733.525 668.287 735 672 735ZM671.639 726.662L679.417 717.329L677.028 715.338L670.339 723.363L666.878 719.9L664.678 722.1L669.345 726.766L670.549 727.97L671.639 726.662Z" fill="#00ECD4"/>
<circle cx="97" cy="933" r="14" fill="white"/>
<path fill-rule="evenodd" clip-rule="evenodd" d="M97 947C98.8385 947 100.659 946.638 102.358 945.934C104.056 945.231 105.599 944.2 106.899 942.899C108.2 941.599 109.231 940.056 109.934 938.358C110.638 936.659 111 934.839 111 933C111 931.161 110.638 929.341 109.934 927.642C109.231 925.944 108.2 924.401 106.899 923.101C105.599 921.8 104.056 920.769 102.358 920.066C100.659 919.362 98.8385 919 97 919C93.287 919 89.726 920.475 87.1005 923.101C84.475 925.726 83 929.287 83 933C83 936.713 84.475 940.274 87.1005 942.899C89.726 945.525 93.287 947 97 947ZM96.6391 938.662L104.417 929.329L102.028 927.338L95.3387 935.363L91.8776 931.9L89.678 934.1L94.3447 938.766L95.5487 939.97L96.6391 938.662Z" fill="#00ECD4"/>
<circle cx="672" cy="1175" r="14" fill="white"/>
<path fill-rule="evenodd" clip-rule="evenodd" d="M672 1189C673.839 1189 675.659 1188.64 677.358 1187.93C679.056 1187.23 680.599 1186.2 681.899 1184.9C683.2 1183.6 684.231 1182.06 684.934 1180.36C685.638 1178.66 686 1176.84 686 1175C686 1173.16 685.638 1171.34 684.934 1169.64C684.231 1167.94 683.2 1166.4 681.899 1165.1C680.599 1163.8 679.056 1162.77 677.358 1162.07C675.659 1161.36 673.839 1161 672 1161C668.287 1161 664.726 1162.47 662.101 1165.1C659.475 1167.73 658 1171.29 658 1175C658 1178.71 659.475 1182.27 662.101 1184.9C664.726 1187.53 668.287 1189 672 1189ZM671.639 1180.66L679.417 1171.33L677.028 1169.34L670.339 1177.36L666.878 1173.9L664.678 1176.1L669.345 1180.77L670.549 1181.97L671.639 1180.66Z" fill="#00ECD4"/>
<circle cx="97" cy="1417" r="14" fill="white"/>
<path fill-rule="evenodd" clip-rule="evenodd" d="M97 1431C98.8385 1431 100.659 1430.64 102.358 1429.93C104.056 1429.23 105.599 1428.2 106.899 1426.9C108.2 1425.6 109.231 1424.06 109.934 1422.36C110.638 1420.66 111 1418.84 111 1417C111 1415.16 110.638 1413.34 109.934 1411.64C109.231 1409.94 108.2 1408.4 106.899 1407.1C105.599 1405.8 104.056 1404.77 102.358 1404.07C100.659 1403.36 98.8385 1403 97 1403C93.287 1403 89.726 1404.47 87.1005 1407.1C84.475 1409.73 83 1413.29 83 1417C83 1420.71 84.475 1424.27 87.1005 1426.9C89.726 1429.53 93.287 1431 97 1431ZM96.6391 1422.66L104.417 1413.33L102.028 1411.34L95.3387 1419.36L91.8776 1415.9L89.678 1418.1L94.3447 1422.77L95.5487 1423.97L96.6391 1422.66Z" fill="#00ECD4"/>
<circle cx="97" cy="55" r="14" fill="white"/>
<path fill-rule="evenodd" clip-rule="evenodd" d="M97 69C98.8385 69 100.659 68.6379 102.358 67.9343C104.056 67.2307 105.599 66.1995 106.899 64.8995C108.2 63.5995 109.231 62.0561 109.934 60.3576C110.638 58.659 111 56.8385 111 55C111 53.1615 110.638 51.341 109.934 49.6424C109.231 47.9439 108.2 46.4005 106.899 45.1005C105.599 43.8005 104.056 42.7693 102.358 42.0657C100.659 41.3621 98.8385 41 97 41C93.287 41 89.726 42.475 87.1005 45.1005C84.475 47.726 83 51.287 83 55C83 58.713 84.475 62.274 87.1005 64.8995C89.726 67.525 93.287 69 97 69ZM96.6391 60.6622L104.417 51.3289L102.028 49.3378L95.3387 57.3629L91.8776 53.9002L89.678 56.0998L94.3447 60.7664L95.5487 61.9704L96.6391 60.6622Z" fill="#00ECD4"/>
<path d="M1039 151.5V210H1613V364" stroke="white" stroke-dasharray="20 20"/>
<path d="M1039 572L1039 660.5H1613V823" stroke="white" stroke-dasharray="20 20"/>
<path d="M1039 1035L1039 1123.5H1613V1276" stroke="white" stroke-dasharray="20 20"/>
<path d="M1039 467.5V409H1613V364" stroke="white" stroke-dasharray="20 20"/>
<path d="M1039 926.5V868H1613V823" stroke="white" stroke-dasharray="20 20"/>
<path d="M1613 1276V1344H1039V1408" stroke="white" stroke-dasharray="20 20"/>
<rect x="986.5" y="473.5" width="99" height="99" rx="9.5" fill="#011826" stroke="white"/>
<path d="M1023.5 544.429H1016.36C1015.88 544.429 1015.43 544.24 1015.09 543.906C1014.76 543.571 1014.57 543.116 1014.57 542.643V535.5C1014.57 535.026 1014.38 534.572 1014.05 534.237C1013.71 533.902 1013.26 533.714 1012.79 533.714C1012.31 533.714 1011.86 533.902 1011.52 534.237C1011.19 534.572 1011 535.026 1011 535.5V542.643C1011 544.064 1011.56 545.426 1012.57 546.431C1013.57 547.436 1014.94 548 1016.36 548H1023.5C1023.97 548 1024.43 547.812 1024.76 547.477C1025.1 547.142 1025.29 546.688 1025.29 546.214C1025.29 545.741 1025.1 545.286 1024.76 544.952C1024.43 544.617 1023.97 544.429 1023.5 544.429ZM1059.21 533.714C1058.74 533.714 1058.29 533.902 1057.95 534.237C1057.62 534.572 1057.43 535.026 1057.43 535.5V542.643C1057.43 543.116 1057.24 543.571 1056.91 543.906C1056.57 544.24 1056.12 544.429 1055.64 544.429H1048.5C1048.03 544.429 1047.57 544.617 1047.24 544.952C1046.9 545.286 1046.71 545.741 1046.71 546.214C1046.71 546.688 1046.9 547.142 1047.24 547.477C1047.57 547.812 1048.03 548 1048.5 548H1055.64C1057.06 548 1058.43 547.436 1059.43 546.431C1060.44 545.426 1061 544.064 1061 542.643V535.5C1061 535.026 1060.81 534.572 1060.48 534.237C1060.14 533.902 1059.69 533.714 1059.21 533.714ZM1012.79 512.286C1013.26 512.286 1013.71 512.098 1014.05 511.763C1014.38 511.428 1014.57 510.974 1014.57 510.5V503.357C1014.57 502.884 1014.76 502.429 1015.09 502.094C1015.43 501.76 1015.88 501.571 1016.36 501.571H1023.5C1023.97 501.571 1024.43 501.383 1024.76 501.048C1025.1 500.714 1025.29 500.259 1025.29 499.786C1025.29 499.312 1025.1 498.858 1024.76 498.523C1024.43 498.188 1023.97 498 1023.5 498H1016.36C1014.94 498 1013.57 498.564 1012.57 499.569C1011.56 500.574 1011 501.936 1011 503.357V510.5C1011 510.974 1011.19 511.428 1011.52 511.763C1011.86 512.098 1012.31 512.286 1012.79 512.286ZM1055.64 498H1048.5C1048.03 498 1047.57 498.188 1047.24 498.523C1046.9 498.858 1046.71 499.312 1046.71 499.786C1046.71 500.259 1046.9 500.714 1047.24 501.048C1047.57 501.383 1048.03 501.571 1048.5 501.571H1055.64C1056.12 501.571 1056.57 501.76 1056.91 502.094C1057.24 502.429 1057.43 502.884 1057.43 503.357V510.5C1057.43 510.974 1057.62 511.428 1057.95 511.763C1058.29 512.098 1058.74 512.286 1059.21 512.286C1059.69 512.286 1060.14 512.098 1060.48 511.763C1060.81 511.428 1061 510.974 1061 510.5V503.357C1061 501.936 1060.44 500.574 1059.43 499.569C1058.43 498.564 1057.06 498 1055.64 498Z" fill="white"/>
<path d="M1027.07 528.357H1021.71C1020.76 528.357 1019.86 528.734 1019.19 529.403C1018.52 530.073 1018.14 530.982 1018.14 531.929V537.286C1018.14 538.233 1018.52 539.142 1019.19 539.811C1019.86 540.481 1020.76 540.857 1021.71 540.857H1027.07C1028.02 540.857 1028.92 540.481 1029.59 539.811C1030.26 539.142 1030.64 538.233 1030.64 537.286V531.929C1030.64 530.982 1030.26 530.073 1029.59 529.403C1028.92 528.734 1028.02 528.357 1027.07 528.357ZM1021.71 537.286V531.929H1027.07V537.286H1021.71ZM1053.85 537.286V531.929C1053.85 530.982 1053.48 530.073 1052.81 529.403C1052.14 528.734 1051.23 528.357 1050.28 528.357H1044.93C1043.98 528.357 1043.07 528.734 1042.4 529.403C1041.73 530.073 1041.35 530.982 1041.35 531.929V537.286C1041.35 538.233 1041.73 539.142 1042.4 539.811C1043.07 540.481 1043.98 540.857 1044.93 540.857H1050.28C1051.23 540.857 1052.14 540.481 1052.81 539.811C1053.48 539.142 1053.85 538.233 1053.85 537.286ZM1044.93 531.929H1050.28V537.286H1044.93V531.929Z" fill="white"/>
<path d="M1034.21 521.214H1019.93C1019.45 521.214 1019 521.402 1018.66 521.737C1018.33 522.072 1018.14 522.526 1018.14 523C1018.14 523.473 1018.33 523.928 1018.66 524.262C1019 524.597 1019.45 524.785 1019.93 524.785H1034.21V539.071C1034.21 539.545 1034.4 539.999 1034.74 540.334C1035.07 540.669 1035.52 540.857 1036 540.857C1036.47 540.857 1036.93 540.669 1037.26 540.334C1037.6 539.999 1037.78 539.545 1037.78 539.071V524.785C1037.78 523.838 1037.41 522.93 1036.74 522.26C1036.07 521.59 1035.16 521.214 1034.21 521.214ZM1018.14 508.714V515.857C1018.14 516.33 1018.33 516.785 1018.66 517.12C1019 517.454 1019.45 517.643 1019.93 517.643C1020.4 517.643 1020.85 517.454 1021.19 517.12C1021.52 516.785 1021.71 516.33 1021.71 515.857V508.714H1028.85C1029.33 508.714 1029.78 508.526 1030.12 508.191C1030.45 507.856 1030.64 507.402 1030.64 506.928C1030.64 506.455 1030.45 506 1030.12 505.666C1029.78 505.331 1029.33 505.143 1028.85 505.143H1021.71C1020.76 505.143 1019.86 505.519 1019.19 506.189C1018.52 506.858 1018.14 507.767 1018.14 508.714ZM1044.93 517.643H1050.28C1051.23 517.643 1052.14 517.266 1052.81 516.597C1053.48 515.927 1053.85 515.018 1053.85 514.071V508.714C1053.85 507.767 1053.48 506.858 1052.81 506.189C1052.14 505.519 1051.23 505.143 1050.28 505.143H1044.93C1043.98 505.143 1043.07 505.519 1042.4 506.189C1041.73 506.858 1041.35 507.767 1041.35 508.714V514.071C1041.35 515.018 1041.73 515.927 1042.4 516.597C1043.07 517.266 1043.98 517.643 1044.93 517.643ZM1044.93 508.714H1050.28V514.071H1044.93V508.714ZM1043.14 524.785H1044.93C1045.4 524.785 1045.85 524.597 1046.19 524.262C1046.52 523.928 1046.71 523.473 1046.71 523C1046.71 522.526 1046.52 522.072 1046.19 521.737C1045.85 521.402 1045.4 521.214 1044.93 521.214H1043.14C1042.67 521.214 1042.21 521.402 1041.88 521.737C1041.54 522.072 1041.35 522.526 1041.35 523C1041.35 523.473 1041.54 523.928 1041.88 524.262C1042.21 524.597 1042.67 524.785 1043.14 524.785ZM1050.28 521.214C1049.81 521.214 1049.36 521.402 1049.02 521.737C1048.69 522.072 1048.5 522.526 1048.5 523C1048.5 523.473 1048.69 523.928 1049.02 524.262C1049.36 524.597 1049.81 524.785 1050.28 524.785H1052.07C1052.54 524.785 1053 524.597 1053.33 524.262C1053.67 523.928 1053.85 523.473 1053.85 523C1053.85 522.526 1053.67 522.072 1053.33 521.737C1053 521.402 1052.54 521.214 1052.07 521.214H1050.28ZM1036 514.071H1027.07C1026.6 514.071 1026.14 514.259 1025.81 514.594C1025.47 514.929 1025.28 515.383 1025.28 515.857C1025.28 516.33 1025.47 516.785 1025.81 517.12C1026.14 517.454 1026.6 517.643 1027.07 517.643H1036C1036.47 517.643 1036.93 517.454 1037.26 517.12C1037.6 516.785 1037.78 516.33 1037.78 515.857C1037.78 515.383 1037.6 514.929 1037.26 514.594C1036.93 514.259 1036.47 514.071 1036 514.071ZM1036 505.143C1035.52 505.143 1035.07 505.331 1034.74 505.666C1034.4 506 1034.21 506.455 1034.21 506.928V508.714C1034.21 509.188 1034.4 509.642 1034.74 509.977C1035.07 510.312 1035.52 510.5 1036 510.5C1036.47 510.5 1036.93 510.312 1037.26 509.977C1037.6 509.642 1037.78 509.188 1037.78 508.714V506.928C1037.78 506.455 1037.6 506 1037.26 505.666C1036.93 505.331 1036.47 505.143 1036 505.143Z" fill="white"/>
<rect x="989.5" y="927.5" width="99" height="99" rx="9.5" fill="#011826" stroke="white"/>
<path d="M1017.94 985.419H1014.11C1014.05 985.419 1014 985.47 1014 985.529V1001.93C1014 1001.99 1014.05 1002.04 1014.11 1002.04H1017.94C1018 1002.04 1018.05 1001.99 1018.05 1001.93V985.529C1018.06 985.47 1018.01 985.419 1017.94 985.419ZM1059.41 991.943C1058.81 991.622 1058.11 991.572 1057.5 991.791L1044.91 996.306C1044.27 996.654 1043.56 996.837 1042.84 996.838H1032.52C1032.05 996.838 1031.67 996.458 1031.67 995.994C1031.67 995.53 1032.05 995.15 1032.52 995.15H1042.84C1043.28 995.15 1043.7 995.04 1044.06 994.846C1044.1 994.813 1044.16 994.787 1044.21 994.77C1044.76 994.433 1045.16 993.884 1045.26 993.251C1045.37 992.568 1045.19 991.901 1044.75 991.378C1044.31 990.863 1043.67 990.567 1043 990.567H1037.32C1035.67 990.567 1034.03 989.977 1032.69 988.905C1030.45 987.124 1025.83 984.736 1019.73 988.483V999.598C1021.25 999.598 1024.51 999.86 1029.09 1001.66C1033.34 1003.32 1037.87 1003.71 1042.17 1002.76C1046.59 1001.8 1053.19 999.843 1059.52 995.969C1060.03 995.657 1060.41 995.116 1060.55 994.509C1060.82 993.496 1060.33 992.441 1059.41 991.943ZM1028.2 972.701H1033.26V982.828H1028.2V972.701ZM1036.64 976.92H1041.71V982.82H1036.64V976.92ZM1045.08 968.472H1050.15V982.82H1045.08V968.472ZM1053.53 964.252H1058.6V982.82H1053.53V964.252ZM1063.75 951.247C1063.67 951.169 1063.58 951.107 1063.48 951.064C1063.38 951.022 1063.27 951 1063.16 951C1063.05 951 1062.94 951.022 1062.83 951.064C1062.73 951.107 1062.64 951.169 1062.56 951.247L1058.43 955.382C1057.98 955.112 1057.46 954.952 1056.92 954.952C1055.51 954.952 1054.34 955.931 1054.05 957.247H1050.92C1050.61 955.939 1049.45 954.952 1048.05 954.952C1046.42 954.952 1045.09 956.277 1045.09 957.906C1045.09 958.353 1045.2 958.775 1045.38 959.155L1040.43 964.1C1040.05 963.923 1039.63 963.814 1039.18 963.814C1038.62 963.814 1038.1 963.982 1037.64 964.261L1033.34 959.957C1033.55 959.543 1033.69 959.079 1033.69 958.581C1033.69 956.952 1032.36 955.627 1030.74 955.627C1029.11 955.627 1027.78 956.952 1027.78 958.581C1027.78 960.21 1029.11 961.535 1030.74 961.535C1031.25 961.535 1031.73 961.391 1032.15 961.155L1036.52 965.518C1036.34 965.898 1036.23 966.32 1036.23 966.767C1036.23 968.396 1037.56 969.721 1039.18 969.721C1040.81 969.721 1042.14 968.396 1042.14 966.767C1042.14 966.202 1041.97 965.679 1041.69 965.223L1046.5 960.412C1046.95 960.691 1047.48 960.86 1048.05 960.86C1049.31 960.86 1050.38 960.058 1050.81 958.935H1054.16C1054.59 960.058 1055.66 960.86 1056.92 960.86C1058.55 960.86 1059.88 959.535 1059.88 957.906C1059.88 957.45 1059.76 957.02 1059.57 956.631L1063.76 952.445C1064.08 952.108 1064.08 951.576 1063.75 951.247Z" fill="white"/>
<rect x="989.5" y="1411.5" width="99" height="99" rx="9.5" fill="#011826" stroke="white"/>
<path d="M1038.65 1459.98C1042.3 1459.98 1045.46 1458.65 1048.04 1456.02C1050.62 1453.4 1051.93 1450.19 1051.93 1446.49C1051.93 1442.78 1050.62 1439.57 1048.04 1436.95C1045.46 1434.33 1042.3 1433 1038.65 1433C1035 1433 1031.84 1434.33 1029.26 1436.95C1026.68 1439.57 1025.37 1442.78 1025.37 1446.49C1025.37 1450.19 1026.68 1453.4 1029.26 1456.02C1031.85 1458.65 1035 1459.98 1038.65 1459.98ZM1061.89 1476.06C1061.81 1474.97 1061.66 1473.78 1061.44 1472.52C1061.22 1471.26 1060.93 1470.06 1060.58 1468.96C1060.23 1467.83 1059.74 1466.72 1059.15 1465.65C1058.52 1464.54 1057.79 1463.57 1056.97 1462.77C1056.12 1461.94 1055.07 1461.27 1053.85 1460.78C1052.65 1460.3 1051.31 1460.05 1049.87 1460.05C1049.31 1460.05 1048.77 1460.29 1047.71 1460.98C1046.97 1461.47 1046.22 1461.97 1045.47 1462.45C1044.74 1462.92 1043.77 1463.36 1042.56 1463.75C1041.38 1464.14 1040.18 1464.34 1039 1464.34C1037.82 1464.34 1036.62 1464.14 1035.44 1463.75C1034.23 1463.36 1033.25 1462.92 1032.53 1462.45C1031.7 1461.91 1030.94 1461.41 1030.28 1460.98C1029.23 1460.28 1028.69 1460.05 1028.12 1460.05C1026.69 1460.05 1025.35 1460.3 1024.14 1460.78C1022.93 1461.27 1021.88 1461.94 1021.02 1462.77C1020.2 1463.57 1019.47 1464.54 1018.85 1465.65C1018.25 1466.72 1017.77 1467.83 1017.41 1468.97C1017.07 1470.06 1016.78 1471.26 1016.56 1472.52C1016.34 1473.78 1016.18 1474.97 1016.11 1476.06C1016.04 1477.16 1016 1478.27 1016 1479.37C1016 1482.29 1016.91 1484.66 1018.72 1486.4C1020.5 1488.13 1022.86 1489 1025.73 1489H1052.27C1055.14 1489 1057.5 1488.13 1059.28 1486.4C1061.09 1484.66 1062 1482.29 1062 1479.37C1062 1478.24 1061.96 1477.13 1061.89 1476.06Z" fill="white"/>
<rect x="989.5" y="49.5" width="99" height="99" rx="9.5" fill="#011826" stroke="white"/>
<path d="M1038.89 74.97C1039.26 74.97 1039.66 74.6659 1039.66 74.2914V72.6785C1039.66 72.3041 1039.26 72 1038.89 72C1038.51 72 1038.12 72.3037 1038.12 72.6784V74.2914C1038.12 74.6658 1038.51 74.97 1038.89 74.97ZM1044.37 77.1115C1044.46 77.1116 1044.54 77.094 1044.63 77.0599C1044.71 77.0258 1044.78 76.9759 1044.85 76.9128L1045.99 75.7721C1046.05 75.7092 1046.1 75.6344 1046.13 75.5521C1046.17 75.4698 1046.19 75.3815 1046.19 75.2924C1046.19 75.2033 1046.17 75.1151 1046.13 75.0328C1046.1 74.9505 1046.05 74.8757 1045.99 74.8127C1045.92 74.7497 1045.85 74.6997 1045.77 74.6656C1045.68 74.6314 1045.6 74.6139 1045.51 74.6139C1045.42 74.6139 1045.33 74.6314 1045.25 74.6656C1045.17 74.6997 1045.09 74.7497 1045.03 74.8127L1043.89 75.9534C1043.82 76.0164 1043.77 76.0912 1043.74 76.1735C1043.71 76.2558 1043.69 76.344 1043.69 76.4331C1043.69 76.5222 1043.71 76.6104 1043.74 76.6928C1043.77 76.7751 1043.82 76.8499 1043.89 76.9128C1043.95 76.9759 1044.03 77.026 1044.11 77.0601C1044.19 77.0941 1044.28 77.1116 1044.37 77.1115ZM1033.08 77.1059C1033.14 77.1691 1033.22 77.2192 1033.3 77.2534C1033.38 77.2875 1033.47 77.3049 1033.56 77.3047C1033.65 77.3048 1033.74 77.2873 1033.82 77.2532C1033.9 77.2191 1033.98 77.169 1034.04 77.1059C1034.1 77.0429 1034.15 76.9682 1034.19 76.8859C1034.22 76.8035 1034.24 76.7153 1034.24 76.6262C1034.24 76.5371 1034.22 76.4489 1034.19 76.3666C1034.15 76.2842 1034.1 76.2095 1034.04 76.1465L1032.9 75.0064C1032.84 74.9433 1032.76 74.8933 1032.68 74.8592C1032.6 74.8251 1032.51 74.8075 1032.42 74.8075C1032.33 74.8075 1032.24 74.8251 1032.16 74.8592C1032.08 74.8933 1032 74.9433 1031.94 75.0064C1031.88 75.0693 1031.83 75.144 1031.79 75.2263C1031.76 75.3086 1031.74 75.3968 1031.74 75.4859C1031.74 75.5749 1031.76 75.6631 1031.79 75.7454C1031.83 75.8277 1031.88 75.9024 1031.94 75.9654L1033.08 77.1059ZM1029.88 84.4353C1029.76 83.8343 1029.7 83.2232 1029.7 82.6107C1029.7 81.9232 1029.78 81.2388 1029.92 80.5757C1029.94 80.4887 1029.95 80.3988 1029.93 80.311C1029.92 80.2233 1029.88 80.1394 1029.84 80.0641C1029.79 79.9888 1029.73 79.9237 1029.65 79.8725C1029.58 79.8212 1029.5 79.7848 1029.41 79.7654C1029.05 79.6849 1028.68 79.9127 1028.6 80.2789C1028.43 81.0444 1028.34 81.8264 1028.34 82.6107C1028.34 83.3195 1028.41 84.0219 1028.55 84.6988C1028.58 84.8528 1028.66 84.9915 1028.78 85.0912C1028.9 85.191 1029.05 85.2456 1029.21 85.2457C1029.25 85.2457 1029.3 85.2413 1029.34 85.2325C1029.43 85.2152 1029.51 85.1809 1029.59 85.1314C1029.66 85.082 1029.73 85.0185 1029.78 84.9445C1029.82 84.8704 1029.86 84.7874 1029.88 84.7C1029.89 84.6126 1029.89 84.5227 1029.88 84.4353ZM1048.17 86.4227C1048.09 86.383 1048.01 86.3594 1047.92 86.3533C1047.83 86.3472 1047.74 86.3587 1047.65 86.3871C1047.57 86.4155 1047.49 86.4603 1047.43 86.5189C1047.36 86.5775 1047.3 86.6488 1047.26 86.7286C1045.69 89.9027 1042.51 91.8755 1038.96 91.8764C1035.42 91.8757 1032.24 89.9027 1030.66 86.7285C1030.5 86.3928 1030.09 86.2557 1029.75 86.4227C1029.42 86.5894 1029.28 86.9628 1029.45 87.2986C1031.26 90.9363 1034.9 93.1661 1038.96 93.1661H1038.97C1043.03 93.1661 1046.67 90.9363 1048.48 87.2986C1048.65 86.9628 1048.51 86.5894 1048.17 86.4227H1048.17ZM1049.38 84.7C1049.51 84.012 1049.58 83.3122 1049.58 82.6107C1049.58 81.8221 1049.5 81.0345 1049.32 80.2704C1049.24 79.9046 1048.88 79.6741 1048.51 79.7572C1048.34 79.7968 1048.19 79.9044 1048.09 80.0564C1047.99 80.2085 1047.96 80.3925 1048 80.5681C1048.29 81.8396 1048.3 83.1566 1048.05 84.4345C1048.03 84.533 1048.03 84.6347 1048.05 84.7321C1048.08 84.8296 1048.12 84.9204 1048.19 84.998C1048.25 85.0756 1048.33 85.1381 1048.42 85.1809C1048.51 85.2238 1048.61 85.2459 1048.71 85.2457C1048.87 85.2454 1049.02 85.1909 1049.14 85.0915C1049.26 84.992 1049.35 84.8537 1049.38 84.7ZM1045.52 95.5784H1032.31C1031.9 95.5784 1031.43 96.0594 1031.43 96.4689V124.467C1031.43 124.874 1031.9 125.184 1032.31 125.184H1045.52C1045.93 125.184 1046.23 124.874 1046.23 124.467V96.4689C1046.23 96.0594 1045.93 95.5784 1045.52 95.5784Z" fill="white"/>
<path d="M1033.77 82.0061L1036.2 83.808C1036.37 83.9383 1036.45 84.191 1036.38 84.4016L1035.46 87.2585C1035.3 87.73 1035.84 88.1276 1036.24 87.8364L1038.67 86.0798C1038.75 86.0163 1038.86 85.9823 1038.97 85.9825C1039.07 85.9827 1039.18 86.0173 1039.27 86.0811L1041.69 87.8407C1042.09 88.1323 1042.63 87.7404 1042.48 87.2688L1041.55 84.4231C1041.52 84.3203 1041.52 84.2096 1041.55 84.1067C1041.58 84.0039 1041.65 83.9143 1041.74 83.8508L1044.16 82.0061C1044.56 81.7145 1044.35 80.9944 1043.86 80.9944H1040.86C1040.64 80.9944 1040.45 80.9374 1040.38 80.7263L1039.45 77.9233C1039.3 77.4514 1038.63 77.4732 1038.48 77.9448L1037.55 80.7157C1037.49 80.9263 1037.29 80.9944 1037.07 80.9944H1034.08C1033.58 80.9944 1033.37 81.7145 1033.77 82.0061H1033.77ZM1028.8 110.682C1028.8 110.486 1028.72 110.297 1028.59 110.159C1028.45 110.02 1028.26 109.942 1028.06 109.942H1014.74C1014.54 109.942 1014.36 110.02 1014.22 110.159C1014.08 110.297 1014 110.486 1014 110.682V124.553C1014 124.749 1014.08 124.937 1014.22 125.076C1014.36 125.215 1014.54 125.293 1014.74 125.293H1028.06C1028.26 125.293 1028.45 125.215 1028.59 125.076C1028.72 124.937 1028.8 124.749 1028.8 124.553V110.682ZM1019.94 101.761C1019.99 101.802 1020.04 101.859 1020.06 101.924C1020.08 101.989 1020.08 102.059 1020.06 102.125L1019.74 103.108C1019.64 103.408 1019.98 103.656 1020.24 103.472L1021.07 102.863C1021.13 102.823 1021.2 102.801 1021.26 102.801C1021.33 102.801 1021.4 102.823 1021.46 102.863L1022.29 103.472C1022.55 103.656 1022.89 103.408 1022.79 103.108L1022.47 102.125C1022.45 102.059 1022.45 101.989 1022.47 101.924C1022.49 101.859 1022.53 101.802 1022.59 101.761L1023.43 101.127C1023.68 100.942 1023.55 100.512 1023.24 100.512H1022.2C1022.06 100.512 1021.94 100.449 1021.89 100.315L1021.57 99.3448C1021.48 99.0455 1021.05 99.0523 1020.96 99.3512L1020.64 100.312C1020.59 100.445 1020.47 100.512 1020.33 100.512H1019.29C1018.98 100.512 1018.85 100.942 1019.1 101.127L1019.94 101.761Z" fill="white"/>
<path d="M1021.26 107.53C1024.57 107.53 1027.26 104.842 1027.26 101.539C1027.26 98.235 1024.57 95.5469 1021.26 95.5469C1017.96 95.5469 1015.27 98.235 1015.27 101.539C1015.27 104.842 1017.96 107.53 1021.26 107.53L1021.26 107.53ZM1021.26 96.9038C1023.82 96.9038 1025.9 98.979 1025.9 101.539C1025.9 104.098 1023.82 106.173 1021.26 106.173C1018.71 106.173 1016.63 104.098 1016.63 101.539C1016.63 98.9789 1018.71 96.9038 1021.26 96.9038ZM1064 110.682C1064 110.486 1063.92 110.297 1063.78 110.159C1063.64 110.02 1063.46 109.942 1063.26 109.942H1049.94C1049.74 109.942 1049.55 110.02 1049.41 110.159C1049.28 110.297 1049.2 110.486 1049.2 110.682V124.552C1049.2 124.749 1049.28 124.937 1049.41 125.076C1049.55 125.215 1049.74 125.293 1049.94 125.293H1063.26C1063.46 125.293 1063.64 125.215 1063.78 125.076C1063.92 124.937 1064 124.749 1064 124.552V110.682ZM1055.24 101.761C1055.3 101.802 1055.34 101.859 1055.36 101.924C1055.38 101.989 1055.38 102.059 1055.36 102.125L1055.04 103.108C1054.94 103.408 1055.28 103.656 1055.54 103.472L1056.38 102.863C1056.43 102.823 1056.5 102.801 1056.57 102.801C1056.63 102.801 1056.7 102.823 1056.76 102.863L1057.59 103.472C1057.85 103.656 1058.19 103.408 1058.09 103.108L1057.77 102.125C1057.75 102.059 1057.75 101.989 1057.77 101.924C1057.8 101.859 1057.84 101.802 1057.89 101.761L1058.73 101.126C1058.98 100.942 1058.85 100.512 1058.54 100.512H1057.5C1057.36 100.512 1057.24 100.449 1057.19 100.315L1056.88 99.3448C1056.78 99.0455 1056.36 99.0522 1056.26 99.3512L1055.94 100.311C1055.89 100.445 1055.77 100.512 1055.63 100.512H1054.6C1054.28 100.512 1054.15 100.942 1054.4 101.127L1055.24 101.761Z" fill="white"/>
<path d="M1056.57 107.53C1059.87 107.53 1062.56 104.842 1062.56 101.539C1062.56 98.235 1059.87 95.5469 1056.57 95.5469C1053.26 95.5469 1050.57 98.235 1050.57 101.539C1050.57 104.842 1053.26 107.53 1056.57 107.53V107.53ZM1056.57 96.9038C1059.13 96.9038 1061.2 98.979 1061.2 101.539C1061.2 104.098 1059.12 106.173 1056.57 106.173C1054.01 106.173 1051.93 104.098 1051.93 101.539C1051.93 98.9789 1054.01 96.9038 1056.57 96.9038Z" fill="white"/>
<circle cx="1083" cy="55" r="14" fill="white"/>
<path fill-rule="evenodd" clip-rule="evenodd" d="M1083 69C1084.84 69 1086.66 68.6379 1088.36 67.9343C1090.06 67.2307 1091.6 66.1995 1092.9 64.8995C1094.2 63.5995 1095.23 62.0561 1095.93 60.3576C1096.64 58.659 1097 56.8385 1097 55C1097 53.1615 1096.64 51.341 1095.93 49.6424C1095.23 47.9439 1094.2 46.4005 1092.9 45.1005C1091.6 43.8005 1090.06 42.7693 1088.36 42.0657C1086.66 41.3621 1084.84 41 1083 41C1079.29 41 1075.73 42.475 1073.1 45.1005C1070.47 47.726 1069 51.287 1069 55C1069 58.713 1070.47 62.274 1073.1 64.8995C1075.73 67.525 1079.29 69 1083 69ZM1082.64 60.6622L1090.42 51.3289L1088.03 49.3378L1081.34 57.3629L1077.88 53.9002L1075.68 56.0998L1080.34 60.7664L1081.55 61.9704L1082.64 60.6622Z" fill="#00ECD4"/>
<circle cx="1080" cy="479" r="14" fill="white"/>
<path fill-rule="evenodd" clip-rule="evenodd" d="M1080 493C1081.84 493 1083.66 492.638 1085.36 491.934C1087.06 491.231 1088.6 490.2 1089.9 488.899C1091.2 487.599 1092.23 486.056 1092.93 484.358C1093.64 482.659 1094 480.839 1094 479C1094 477.161 1093.64 475.341 1092.93 473.642C1092.23 471.944 1091.2 470.401 1089.9 469.101C1088.6 467.8 1087.06 466.769 1085.36 466.066C1083.66 465.362 1081.84 465 1080 465C1076.29 465 1072.73 466.475 1070.1 469.101C1067.47 471.726 1066 475.287 1066 479C1066 482.713 1067.47 486.274 1070.1 488.899C1072.73 491.525 1076.29 493 1080 493ZM1079.64 484.662L1087.42 475.329L1085.03 473.338L1078.34 481.363L1074.88 477.9L1072.68 480.1L1077.34 484.766L1078.55 485.97L1079.64 484.662Z" fill="#00ECD4"/>
<circle cx="1083" cy="933" r="14" fill="white"/>
<path fill-rule="evenodd" clip-rule="evenodd" d="M1083 947C1084.84 947 1086.66 946.638 1088.36 945.934C1090.06 945.231 1091.6 944.2 1092.9 942.899C1094.2 941.599 1095.23 940.056 1095.93 938.358C1096.64 936.659 1097 934.839 1097 933C1097 931.161 1096.64 929.341 1095.93 927.642C1095.23 925.944 1094.2 924.401 1092.9 923.101C1091.6 921.8 1090.06 920.769 1088.36 920.066C1086.66 919.362 1084.84 919 1083 919C1079.29 919 1075.73 920.475 1073.1 923.101C1070.47 925.726 1069 929.287 1069 933C1069 936.713 1070.47 940.274 1073.1 942.899C1075.73 945.525 1079.29 947 1083 947ZM1082.64 938.662L1090.42 929.329L1088.03 927.338L1081.34 935.363L1077.88 931.9L1075.68 934.1L1080.34 938.766L1081.55 939.97L1082.64 938.662Z" fill="#00ECD4"/>
<circle cx="1083" cy="1417" r="14" fill="white"/>
<path fill-rule="evenodd" clip-rule="evenodd" d="M1083 1431C1084.84 1431 1086.66 1430.64 1088.36 1429.93C1090.06 1429.23 1091.6 1428.2 1092.9 1426.9C1094.2 1425.6 1095.23 1424.06 1095.93 1422.36C1096.64 1420.66 1097 1418.84 1097 1417C1097 1415.16 1096.64 1413.34 1095.93 1411.64C1095.23 1409.94 1094.2 1408.4 1092.9 1407.1C1091.6 1405.8 1090.06 1404.77 1088.36 1404.07C1086.66 1403.36 1084.84 1403 1083 1403C1079.29 1403 1075.73 1404.47 1073.1 1407.1C1070.47 1409.73 1069 1413.29 1069 1417C1069 1420.71 1070.47 1424.27 1073.1 1426.9C1075.73 1429.53 1079.29 1431 1083 1431ZM1082.64 1422.66L1090.42 1413.33L1088.03 1411.34L1081.34 1419.36L1077.88 1415.9L1075.68 1418.1L1080.34 1422.77L1081.55 1423.97L1082.64 1422.66Z" fill="#00ECD4"/>
<defs>
<clipPath id="clip0_1975_8837">
<rect width="50" height="50" fill="white" transform="translate(28 74)"/>
</clipPath>
</defs>
</svg>
