<svg width="50" height="50" viewBox="0 0 50 50" fill="none" xmlns="http://www.w3.org/2000/svg">
<path d="M12.5 46.4286H5.35714C4.88354 46.4286 4.42934 46.2404 4.09445 45.9055C3.75957 45.5707 3.57143 45.1165 3.57143 44.6429V37.5C3.57143 37.0264 3.38329 36.5722 3.0484 36.2373C2.71352 35.9024 2.25932 35.7143 1.78571 35.7143C1.31211 35.7143 0.85791 35.9024 0.523023 36.2373C0.188137 36.5722 0 37.0264 0 37.5V44.6429C0 46.0637 0.564412 47.4263 1.56907 48.4309C2.57373 49.4356 3.93634 50 5.35714 50H12.5C12.9736 50 13.4278 49.8119 13.7627 49.477C14.0976 49.1421 14.2857 48.6879 14.2857 48.2143C14.2857 47.7407 14.0976 47.2865 13.7627 46.9516C13.4278 46.6167 12.9736 46.4286 12.5 46.4286ZM48.2143 35.7143C47.7407 35.7143 47.2865 35.9024 46.9516 36.2373C46.6167 36.5722 46.4286 37.0264 46.4286 37.5V44.6429C46.4286 45.1165 46.2404 45.5707 45.9055 45.9055C45.5707 46.2404 45.1165 46.4286 44.6429 46.4286H37.5C37.0264 46.4286 36.5722 46.6167 36.2373 46.9516C35.9024 47.2865 35.7143 47.7407 35.7143 48.2143C35.7143 48.6879 35.9024 49.1421 36.2373 49.477C36.5722 49.8119 37.0264 50 37.5 50H44.6429C46.0637 50 47.4263 49.4356 48.4309 48.4309C49.4356 47.4263 50 46.0637 50 44.6429V37.5C50 37.0264 49.8119 36.5722 49.477 36.2373C49.1421 35.9024 48.6879 35.7143 48.2143 35.7143ZM1.78571 14.2857C2.25932 14.2857 2.71352 14.0976 3.0484 13.7627C3.38329 13.4278 3.57143 12.9736 3.57143 12.5V5.35714C3.57143 4.88354 3.75957 4.42934 4.09445 4.09445C4.42934 3.75957 4.88354 3.57143 5.35714 3.57143H12.5C12.9736 3.57143 13.4278 3.38329 13.7627 3.0484C14.0976 2.71352 14.2857 2.25932 14.2857 1.78571C14.2857 1.31211 14.0976 0.85791 13.7627 0.523023C13.4278 0.188137 12.9736 0 12.5 0H5.35714C3.93634 0 2.57373 0.564412 1.56907 1.56907C0.564412 2.57373 0 3.93634 0 5.35714V12.5C0 12.9736 0.188137 13.4278 0.523023 13.7627C0.85791 14.0976 1.31211 14.2857 1.78571 14.2857ZM44.6429 0H37.5C37.0264 0 36.5722 0.188137 36.2373 0.523023C35.9024 0.85791 35.7143 1.31211 35.7143 1.78571C35.7143 2.25932 35.9024 2.71352 36.2373 3.0484C36.5722 3.38329 37.0264 3.57143 37.5 3.57143H44.6429C45.1165 3.57143 45.5707 3.75957 45.9055 4.09445C46.2404 4.42934 46.4286 4.88354 46.4286 5.35714V12.5C46.4286 12.9736 46.6167 13.4278 46.9516 13.7627C47.2865 14.0976 47.7407 14.2857 48.2143 14.2857C48.6879 14.2857 49.1421 14.0976 49.477 13.7627C49.8119 13.4278 50 12.9736 50 12.5V5.35714C50 3.93634 49.4356 2.57373 48.4309 1.56907C47.4263 0.564412 46.0637 0 44.6429 0Z" fill="white"/>
<path d="M16.0711 30.3574H10.714C9.76681 30.3574 8.8584 30.7337 8.18863 31.4035C7.51885 32.0732 7.14258 32.9816 7.14258 33.9289V39.286C7.14258 40.2332 7.51885 41.1416 8.18863 41.8114C8.8584 42.4811 9.76681 42.8574 10.714 42.8574H16.0711C17.0184 42.8574 17.9268 42.4811 18.5965 41.8114C19.2663 41.1416 19.6426 40.2332 19.6426 39.286V33.9289C19.6426 32.9816 19.2663 32.0732 18.5965 31.4035C17.9268 30.7337 17.0184 30.3574 16.0711 30.3574ZM10.714 39.286V33.9289H16.0711V39.286H10.714ZM42.8569 39.286V33.9289C42.8569 32.9816 42.4806 32.0732 41.8108 31.4035C41.141 30.7337 40.2326 30.3574 39.2854 30.3574H33.9283C32.9811 30.3574 32.0727 30.7337 31.4029 31.4035C30.7331 32.0732 30.3569 32.9816 30.3569 33.9289V39.286C30.3569 40.2332 30.7331 41.1416 31.4029 41.8114C32.0727 42.4811 32.9811 42.8574 33.9283 42.8574H39.2854C40.2326 42.8574 41.141 42.4811 41.8108 41.8114C42.4806 41.1416 42.8569 40.2332 42.8569 39.286ZM33.9283 33.9289H39.2854V39.286H33.9283V33.9289Z" fill="white"/>
<path d="M23.214 23.214H8.92829C8.45469 23.214 8.00049 23.4021 7.6656 23.737C7.33072 24.0719 7.14258 24.5261 7.14258 24.9997C7.14258 25.4733 7.33072 25.9275 7.6656 26.2624C8.00049 26.5973 8.45469 26.7854 8.92829 26.7854H23.214V41.0712C23.214 41.5448 23.4021 41.999 23.737 42.3338C24.0719 42.6687 24.5261 42.8569 24.9997 42.8569C25.4733 42.8569 25.9275 42.6687 26.2624 42.3338C26.5973 41.999 26.7854 41.5448 26.7854 41.0712V26.7854C26.7854 25.8382 26.4092 24.9298 25.7394 24.2601C25.0696 23.5903 24.1612 23.214 23.214 23.214ZM7.14258 10.714V17.8569C7.14258 18.3305 7.33072 18.7847 7.6656 19.1196C8.00049 19.4544 8.45469 19.6426 8.92829 19.6426C9.40189 19.6426 9.8561 19.4544 10.191 19.1196C10.5259 18.7847 10.714 18.3305 10.714 17.8569V10.714H17.8569C18.3305 10.714 18.7847 10.5259 19.1196 10.191C19.4544 9.8561 19.6426 9.40189 19.6426 8.92829C19.6426 8.45469 19.4544 8.00049 19.1196 7.6656C18.7847 7.33072 18.3305 7.14258 17.8569 7.14258H10.714C9.76681 7.14258 8.8584 7.51885 8.18863 8.18863C7.51885 8.8584 7.14258 9.76681 7.14258 10.714ZM33.9283 19.6426H39.2854C40.2326 19.6426 41.141 19.2663 41.8108 18.5965C42.4806 17.9268 42.8569 17.0184 42.8569 16.0711V10.714C42.8569 9.76681 42.4806 8.8584 41.8108 8.18863C41.141 7.51885 40.2326 7.14258 39.2854 7.14258H33.9283C32.9811 7.14258 32.0727 7.51885 31.4029 8.18863C30.7331 8.8584 30.3569 9.76681 30.3569 10.714V16.0711C30.3569 17.0184 30.7331 17.9268 31.4029 18.5965C32.0727 19.2663 32.9811 19.6426 33.9283 19.6426ZM33.9283 10.714H39.2854V16.0711H33.9283V10.714ZM32.1426 26.7854H33.9283C34.4019 26.7854 34.8561 26.5973 35.191 26.2624C35.5259 25.9275 35.714 25.4733 35.714 24.9997C35.714 24.5261 35.5259 24.0719 35.191 23.737C34.8561 23.4021 34.4019 23.214 33.9283 23.214H32.1426C31.669 23.214 31.2148 23.4021 30.8799 23.737C30.545 24.0719 30.3569 24.5261 30.3569 24.9997C30.3569 25.4733 30.545 25.9275 30.8799 26.2624C31.2148 26.5973 31.669 26.7854 32.1426 26.7854ZM39.2854 23.214C38.8118 23.214 38.3576 23.4021 38.0227 23.737C37.6879 24.0719 37.4997 24.5261 37.4997 24.9997C37.4997 25.4733 37.6879 25.9275 38.0227 26.2624C38.3576 26.5973 38.8118 26.7854 39.2854 26.7854H41.0712C41.5448 26.7854 41.999 26.5973 42.3338 26.2624C42.6687 25.9275 42.8569 25.4733 42.8569 24.9997C42.8569 24.5261 42.6687 24.0719 42.3338 23.737C41.999 23.4021 41.5448 23.214 41.0712 23.214H39.2854ZM24.9997 16.0711H16.0711C15.5975 16.0711 15.1433 16.2593 14.8085 16.5942C14.4736 16.9291 14.2854 17.3833 14.2854 17.8569C14.2854 18.3305 14.4736 18.7847 14.8085 19.1196C15.1433 19.4544 15.5975 19.6426 16.0711 19.6426H24.9997C25.4733 19.6426 25.9275 19.4544 26.2624 19.1196C26.5973 18.7847 26.7854 18.3305 26.7854 17.8569C26.7854 17.3833 26.5973 16.9291 26.2624 16.5942C25.9275 16.2593 25.4733 16.0711 24.9997 16.0711ZM24.9997 7.14258C24.5261 7.14258 24.0719 7.33072 23.737 7.6656C23.4021 8.00049 23.214 8.45469 23.214 8.92829V10.714C23.214 11.1876 23.4021 11.6418 23.737 11.9767C24.0719 12.3116 24.5261 12.4997 24.9997 12.4997C25.4733 12.4997 25.9275 12.3116 26.2624 11.9767C26.5973 11.6418 26.7854 11.1876 26.7854 10.714V8.92829C26.7854 8.45469 26.5973 8.00049 26.2624 7.6656C25.9275 7.33072 25.4733 7.14258 24.9997 7.14258Z" fill="white"/>
</svg>
