<svg width="50" height="53" viewBox="0 0 50 53" fill="none" xmlns="http://www.w3.org/2000/svg">
<path d="M3.94134 34.4192H0.109716C0.0506381 34.4192 0 34.4698 0 34.5289V50.9273C0 50.9863 0.0506381 51.037 0.109716 51.037H3.94134C4.00042 51.037 4.05106 50.9863 4.05106 50.9273V34.5289C4.0595 34.4698 4.00886 34.4192 3.94134 34.4192ZM45.4056 40.9431C44.8064 40.6224 44.1143 40.5717 43.4982 40.7912L30.9062 45.3064C30.2726 45.6545 29.5614 45.8373 28.8385 45.8381H18.5167C18.0525 45.8381 17.6727 45.4583 17.6727 44.9941C17.6727 44.53 18.0525 44.1502 18.5167 44.1502H28.8385C29.2773 44.1502 29.6993 44.0405 30.0622 43.8463C30.1044 43.8126 30.1551 43.7873 30.2057 43.7704C30.7627 43.4328 31.1594 42.8842 31.2607 42.2512C31.3704 41.5676 31.1932 40.9009 30.7459 40.3776C30.307 39.8628 29.674 39.5674 28.9988 39.5674H23.3189C21.6732 39.5674 20.0274 38.9766 18.6855 37.9048C16.449 36.124 11.8325 33.7356 5.73056 37.4828V48.5979C7.24971 48.5979 10.5074 48.8595 15.0902 50.6572C19.3438 52.3198 23.8675 52.708 28.1717 51.7628C32.5941 50.8007 39.1856 48.8426 45.5153 44.9688C46.0302 44.6566 46.41 44.1164 46.5534 43.5088C46.8151 42.496 46.334 41.441 45.4056 40.9431ZM14.1956 21.7006H19.2594V31.8282H14.1956V21.7006ZM22.6437 25.9204H27.7076V31.8198H22.6437V25.9204ZM31.0834 17.4723H36.1473V31.8198H31.0834V17.4723ZM39.5316 13.2524H44.5954V31.8198H39.5316V13.2524ZM49.7521 0.246814C49.674 0.168575 49.5813 0.106503 49.4792 0.0641514C49.3771 0.0217997 49.2676 0 49.1571 0C49.0465 0 48.9371 0.0217997 48.835 0.0641514C48.7329 0.106503 48.6402 0.168575 48.5621 0.246814L44.4266 4.38227C43.9793 4.1122 43.4645 3.95185 42.9159 3.95185C41.5149 3.95185 40.3418 4.93085 40.0464 6.24745H36.9153C36.6114 4.93929 35.4468 3.95185 34.0458 3.95185C32.4169 3.95185 31.0919 5.27688 31.0919 6.90574C31.0919 7.35305 31.2016 7.77503 31.3788 8.15482L26.4332 13.1005C26.0534 12.9233 25.6314 12.8135 25.1841 12.8135C24.6186 12.8135 24.0954 12.9823 23.6396 13.2608L19.3354 8.95659C19.5548 8.54305 19.6898 8.07886 19.6898 7.58092C19.6898 5.95206 18.3648 4.62702 16.7359 4.62702C15.1071 4.62702 13.782 5.95206 13.782 7.58092C13.782 9.20978 15.1071 10.5348 16.7359 10.5348C17.2508 10.5348 17.7318 10.3913 18.1538 10.155L22.5171 14.5184C22.3399 14.8981 22.2302 15.3201 22.2302 15.7674C22.2302 17.3963 23.5552 18.7213 25.1841 18.7213C26.813 18.7213 28.138 17.3963 28.138 15.7674C28.138 15.202 27.9692 14.6787 27.6907 14.223L32.5013 9.41234C32.9486 9.69085 33.4803 9.85964 34.0458 9.85964C35.3117 9.85964 36.3836 9.05787 36.8056 7.93539H40.1646C40.5866 9.05787 41.6584 9.85964 42.9244 9.85964C44.5532 9.85964 45.8783 8.53461 45.8783 6.90574C45.8783 6.45 45.7601 6.01957 45.5744 5.63135L49.7605 1.44525C50.0812 1.10766 50.0812 0.575963 49.7521 0.246814Z" fill="white"/>
</svg>
