<svg width="50" height="54" viewBox="0 0 50 54" fill="none" xmlns="http://www.w3.org/2000/svg">
<path d="M24.8897 2.96996C25.2645 2.96996 25.6572 2.6659 25.6572 2.29145V0.678509C25.6572 0.304057 25.2645 0 24.8897 0C24.5153 0 24.1221 0.303728 24.1221 0.678399V2.29145C24.1221 2.66579 24.5153 2.96996 24.8897 2.96996ZM30.3691 5.11151C30.4582 5.11156 30.5464 5.09403 30.6287 5.05994C30.711 5.02585 30.7858 4.97586 30.8488 4.91283L31.989 3.77215C32.0521 3.70918 32.1021 3.63439 32.1362 3.55208C32.1703 3.46977 32.1879 3.38154 32.1879 3.29243C32.1879 3.20333 32.1703 3.1151 32.1362 3.03279C32.1021 2.95047 32.0521 2.87569 31.989 2.81272C31.926 2.74968 31.8513 2.69967 31.7689 2.66555C31.6866 2.63143 31.5984 2.61387 31.5093 2.61387C31.4202 2.61387 31.332 2.63143 31.2497 2.66555C31.1673 2.69967 31.0926 2.74968 31.0296 2.81272L29.8893 3.9534C29.8263 4.01637 29.7763 4.09115 29.7422 4.17347C29.7081 4.25578 29.6905 4.34401 29.6905 4.43311C29.6905 4.52222 29.7081 4.61045 29.7422 4.69276C29.7763 4.77507 29.8263 4.84986 29.8893 4.91283C29.9523 4.97592 30.027 5.02595 30.1094 5.06005C30.1917 5.09415 30.28 5.11164 30.3691 5.11151ZM19.082 5.10592C19.1449 5.16913 19.2196 5.21924 19.302 5.25337C19.3844 5.28749 19.4727 5.30494 19.5618 5.30472C19.6509 5.30484 19.7392 5.28734 19.8215 5.25323C19.9039 5.21911 19.9786 5.16905 20.0415 5.10592C20.1046 5.04295 20.1546 4.96817 20.1887 4.88585C20.2228 4.80354 20.2404 4.71531 20.2404 4.62621C20.2404 4.5371 20.2228 4.44887 20.1887 4.36656C20.1546 4.28425 20.1046 4.20947 20.0415 4.14649L18.9009 3.00636C18.8379 2.94333 18.7632 2.89334 18.6809 2.85922C18.5986 2.82511 18.5104 2.80755 18.4214 2.80755C18.3323 2.80755 18.2441 2.82511 18.1618 2.85922C18.0795 2.89334 18.0048 2.94333 17.9419 3.00636C17.8788 3.0693 17.8288 3.14404 17.7947 3.22632C17.7606 3.30859 17.7431 3.39679 17.7431 3.48586C17.7431 3.57492 17.7606 3.66312 17.7947 3.74539C17.8288 3.82767 17.8788 3.90242 17.9419 3.96535L19.082 5.10592ZM15.8787 12.4353C15.761 11.8343 15.702 11.2232 15.7026 10.6107C15.7026 9.92325 15.778 9.23882 15.9266 8.57566C15.9461 8.48874 15.9484 8.39882 15.9331 8.31104C15.9179 8.22326 15.8855 8.13935 15.8378 8.0641C15.7901 7.98885 15.7281 7.92373 15.6552 7.87247C15.5823 7.82121 15.5001 7.78481 15.4131 7.76535C15.0503 7.68487 14.6851 7.91272 14.6028 8.27895C14.4317 9.04441 14.3455 9.82639 14.3457 10.6107C14.3457 11.3195 14.4135 12.0219 14.5479 12.6988C14.5783 12.8528 14.6612 12.9915 14.7824 13.0912C14.9036 13.191 15.0557 13.2456 15.2127 13.2457C15.2559 13.2457 15.3004 13.2413 15.345 13.2325C15.4324 13.2152 15.5156 13.1809 15.5897 13.1314C15.6638 13.082 15.7275 13.0185 15.7771 12.9445C15.8266 12.8704 15.8611 12.7874 15.8785 12.7C15.896 12.6126 15.896 12.5227 15.8787 12.4353ZM34.1752 14.4227C34.0954 14.383 34.0085 14.3594 33.9196 14.3533C33.8306 14.3472 33.7414 14.3587 33.6569 14.3871C33.5724 14.4155 33.4943 14.4603 33.4271 14.5189C33.3599 14.5775 33.305 14.6488 33.2653 14.7286C31.6879 17.9027 28.5077 19.8755 24.9654 19.8764C21.4232 19.8757 18.2434 17.9027 16.666 14.7285C16.4989 14.3928 16.0908 14.2557 15.7562 14.4227C15.4208 14.5894 15.2838 14.9628 15.4503 15.2986C17.2583 18.9363 20.9012 21.1661 24.9603 21.1661H24.971C29.0297 21.1661 32.6734 18.9363 34.4809 15.2986C34.6471 14.9628 34.5105 14.5894 34.1751 14.4227H34.1752ZM35.3796 12.7C35.5163 12.012 35.5852 11.3122 35.5852 10.6107C35.5852 9.82215 35.4978 9.03454 35.326 8.2704C35.2437 7.90461 34.8806 7.67412 34.5152 7.75724C34.3397 7.79676 34.187 7.90438 34.0908 8.05643C33.9945 8.20848 33.9626 8.39252 34.0021 8.56809C34.287 9.83957 34.3028 11.1566 34.0483 12.4345C34.0287 12.533 34.0311 12.6347 34.0555 12.7321C34.0799 12.8296 34.1257 12.9204 34.1894 12.998C34.2532 13.0756 34.3334 13.1381 34.4243 13.1809C34.5151 13.2238 34.6143 13.2459 34.7148 13.2457C34.8715 13.2454 35.0234 13.1909 35.1445 13.0915C35.2657 12.992 35.3487 12.8537 35.3796 12.7ZM31.5204 23.5784H18.3085C17.9017 23.5784 17.4335 24.0594 17.4335 24.4689V52.4671C17.4335 52.8745 17.9021 53.1837 18.3085 53.1837H31.5204C31.9273 53.1837 32.2362 52.8745 32.2362 52.4671V24.4689C32.2362 24.0594 31.9273 23.5784 31.5204 23.5784Z" fill="white"/>
<path d="M19.7746 10.0061L22.1953 11.808C22.3748 11.9383 22.4497 12.191 22.3812 12.4016L21.4565 15.2585C21.3036 15.73 21.8433 16.1276 22.2442 15.8364L24.665 14.0798C24.7526 14.0163 24.858 13.9823 24.9661 13.9825C25.0742 13.9827 25.1795 14.0173 25.2668 14.0811L27.6876 15.8407C28.0889 16.1323 28.6286 15.7404 28.4753 15.2688L27.5505 12.4231C27.5172 12.3203 27.5172 12.2096 27.5506 12.1067C27.584 12.0039 27.6491 11.9143 27.7365 11.8508L30.1578 10.0061C30.5591 9.71446 30.3526 8.9944 29.8567 8.9944H26.8644C26.6425 8.9944 26.4459 8.93738 26.3775 8.7263L25.4527 5.92334C25.2998 5.45141 24.6326 5.47323 24.4791 5.94483L23.5547 8.71567C23.4859 8.9263 23.2894 8.9944 23.0679 8.9944H20.0752C19.5796 8.9944 19.3736 9.71446 19.7745 10.0061H19.7746ZM14.8026 38.6819C14.8026 38.4856 14.7247 38.2973 14.5859 38.1585C14.4471 38.0197 14.2588 37.9418 14.0625 37.9418H0.740132C0.543854 37.9418 0.355633 38.0198 0.216844 38.1586C0.0780547 38.2974 5.81304e-05 38.4856 0 38.6819V52.5525C5.81304e-05 52.7488 0.0780547 52.937 0.216844 53.0758C0.355633 53.2146 0.543854 53.2926 0.740132 53.2926H14.0625C14.2588 53.2926 14.4471 53.2147 14.5859 53.0759C14.7247 52.9371 14.8026 52.7488 14.8026 52.5525V38.6819ZM5.9386 29.7614C5.99412 29.8017 6.03546 29.8585 6.05669 29.9238C6.07793 29.989 6.07796 30.0593 6.0568 30.1245L5.73684 31.1084C5.64002 31.4078 5.98224 31.6562 6.23673 31.4716L7.07357 30.8634C7.12903 30.8231 7.19582 30.8014 7.26436 30.8014C7.33291 30.8014 7.3997 30.8231 7.45515 30.8634L8.29221 31.4716C8.5466 31.6562 8.88882 31.4078 8.792 31.1084L8.47204 30.1245C8.451 30.0593 8.45106 29.9891 8.4722 29.9239C8.49334 29.8587 8.53449 29.8019 8.5898 29.7614L9.42719 29.1265C9.68125 28.942 9.55055 28.5119 9.23618 28.5119H8.20175C8.0614 28.5119 7.93629 28.4486 7.89298 28.3149L7.57346 27.3448C7.47621 27.0455 7.05307 27.0523 6.95581 27.3512L6.63629 28.3115C6.59265 28.4452 6.46798 28.5119 6.32708 28.5119H5.29309C4.97873 28.5119 4.8477 28.942 5.10208 29.1266L5.9386 29.7614Z" fill="white"/>
<path d="M7.26477 35.53C10.5687 35.53 13.2564 32.8422 13.2564 29.5385C13.2564 26.235 10.5687 23.5469 7.26477 23.5469C3.96105 23.5469 1.27344 26.235 1.27344 29.5385C1.27344 32.8423 3.96116 35.5299 7.26467 35.5299L7.26477 35.53ZM7.26477 24.9038C9.82475 24.9038 11.8996 26.979 11.8996 29.5387C11.8996 32.0983 9.82475 34.173 7.26477 34.173C4.70556 34.173 2.63035 32.0982 2.63035 29.5385C2.63035 26.9789 4.70556 24.9038 7.26477 24.9038ZM50.0005 38.6819C50.0005 38.4856 49.9225 38.2973 49.7837 38.1585C49.6449 38.0197 49.4567 37.9417 49.2604 37.9417H35.938C35.7417 37.9418 35.5535 38.0198 35.4147 38.1586C35.2759 38.2974 35.1979 38.4856 35.1979 38.6819V52.5525C35.1979 52.7487 35.2759 52.937 35.4147 53.0758C35.5535 53.2145 35.7417 53.2925 35.938 53.2926H49.2604C49.4567 53.2926 49.6449 53.2146 49.7837 53.0758C49.9225 52.937 50.0005 52.7488 50.0005 52.5525V38.6819ZM41.2405 29.7613C41.296 29.8017 41.3373 29.8586 41.3585 29.9238C41.3797 29.989 41.3798 30.0592 41.3587 30.1245L41.0392 31.1084C40.942 31.4077 41.2842 31.6562 41.5387 31.4715L42.3756 30.8633C42.4311 30.823 42.4979 30.8013 42.5664 30.8013C42.635 30.8013 42.7018 30.823 42.7572 30.8633L43.5942 31.4715C43.8485 31.6562 44.1908 31.4077 44.0939 31.1084L43.7744 30.1245C43.7532 30.0593 43.7531 29.9891 43.7742 29.9239C43.7953 29.8587 43.8364 29.8018 43.8917 29.7613L44.7291 29.1265C44.9832 28.9419 44.8525 28.5119 44.5381 28.5119H43.5034C43.3628 28.5119 43.2382 28.4485 43.1949 28.3149L42.8754 27.3448C42.7782 27.0455 42.355 27.0522 42.2578 27.3512L41.9382 28.3115C41.8946 28.4451 41.7699 28.5119 41.6295 28.5119H40.595C40.2807 28.5119 40.1496 28.9419 40.404 29.1266L41.2405 29.7613Z" fill="white"/>
<path d="M42.5654 35.53C45.8695 35.53 48.5576 32.8422 48.5576 29.5385C48.5576 26.235 45.8695 23.5469 42.5654 23.5469C39.2617 23.5469 36.5742 26.235 36.5742 29.5385C36.5742 32.8423 39.2617 35.5299 42.5654 35.5299V35.53ZM42.5654 24.9038C45.1251 24.9038 47.2006 26.979 47.2006 29.5387C47.2006 32.0983 45.125 34.173 42.5654 34.173C40.0062 34.173 37.931 32.0982 37.931 29.5385C37.931 26.9789 40.0062 24.9038 42.5654 24.9038Z" fill="white"/>
</svg>
