<svg width="50" height="53" viewBox="0 0 50 53" fill="none" xmlns="http://www.w3.org/2000/svg">
<path d="M24.9994 11.9129C25.9602 11.9129 26.7391 11.134 26.7391 10.1732C26.7391 9.21246 25.9602 8.43359 24.9994 8.43359C24.0386 8.43359 23.2598 9.21246 23.2598 10.1732C23.2598 11.134 24.0386 11.9129 24.9994 11.9129Z" fill="white"/>
<path d="M24.9993 16.3105C23.0773 16.3105 21.5137 17.8742 21.5137 19.7962V21.9013H28.4849V19.7962C28.4849 17.8742 26.9213 16.3105 24.9993 16.3105Z" fill="white"/>
<path d="M4.94704 52.9903C7.67491 52.9903 9.89407 50.7712 9.89407 48.0433C9.89407 45.7243 8.28782 43.7782 6.13101 43.2454V36.687H23.816V43.2454C21.6592 43.7782 20.053 45.7243 20.053 48.0433C20.053 50.7712 22.2721 52.9903 25 52.9903C27.7279 52.9903 29.947 50.7712 29.947 48.0433C29.947 45.7243 28.3408 43.7782 26.184 43.2454V36.687H43.869V43.2454C41.7122 43.7782 40.1059 45.7243 40.1059 48.0433C40.1059 50.7712 42.3251 52.9903 45.053 52.9903C47.7808 52.9903 50 50.7712 50 48.0433C50 45.7243 48.3937 43.7782 46.2369 43.2454V35.503C46.2369 35.189 46.1122 34.8879 45.8902 34.6658C45.6681 34.4438 45.367 34.3191 45.053 34.3191H26.184V30.2841C33.9954 29.6775 40.1675 23.1321 40.1675 15.1675C40.1675 6.8043 33.3636 0 25 0C16.6364 0 9.83251 6.8043 9.83251 15.1675C9.83251 23.1317 16.0042 29.6775 23.816 30.2841V34.3191H4.94704C4.63303 34.3191 4.33188 34.4438 4.10984 34.6658C3.8878 34.8879 3.76306 35.189 3.76306 35.503V43.2454C1.60626 43.7782 0 45.7243 0 48.0433C0 50.7712 2.21916 52.9903 4.94704 52.9903ZM20.3304 24.2695C20.0164 24.2695 19.7153 24.1448 19.4932 23.9227C19.2712 23.7007 19.1464 23.3995 19.1464 23.0855V19.7964C19.1464 17.0003 21.1181 14.6592 23.7434 14.0822C22.0918 13.5498 20.8924 11.9996 20.8924 10.1731C20.8924 7.90816 22.7351 6.0655 25 6.0655C27.2649 6.0655 29.1076 7.90816 29.1076 10.1731C29.1076 11.9996 27.9082 13.5502 26.2566 14.0822C28.8819 14.6592 30.8536 17.0003 30.8536 19.7964V23.0855C30.8536 23.3995 30.7288 23.7007 30.5068 23.9227C30.2848 24.1448 29.9836 24.2695 29.6696 24.2695H20.3304Z" fill="white"/>
</svg>
