<svg width="50" height="50" viewBox="0 0 50 50" fill="none" xmlns="http://www.w3.org/2000/svg">
<g clip-path="url(#clip0_1517_1205)">
<path d="M43.9453 8.30078C43.9453 5.33916 41.5358 2.92969 38.5742 2.92969H37.5V7.32422C37.5 8.1332 36.8441 8.78906 36.0352 8.78906C35.2262 8.78906 34.5703 8.1332 34.5703 7.32422V2.92969H28.125V7.32422C28.125 8.1332 27.4691 8.78906 26.6602 8.78906C25.8512 8.78906 25.1953 8.1332 25.1953 7.32422V2.92969H18.75V7.32422C18.75 8.1332 18.0941 8.78906 17.2852 8.78906C16.4762 8.78906 15.8203 8.1332 15.8203 7.32422V2.92969H9.375V7.32422C9.375 8.1332 8.71914 8.78906 7.91016 8.78906C7.10117 8.78906 6.44531 8.1332 6.44531 7.32422V2.92969H5.37109C2.40947 2.92969 0 5.33916 0 8.30078V12.6953H43.9453V8.30078ZM9.375 1.46484C9.375 0.655859 8.71914 0 7.91016 0C7.10117 0 6.44531 0.655859 6.44531 1.46484V2.92969H9.375V1.46484ZM37.5 1.46484C37.5 0.655859 36.8441 0 36.0352 0C35.2262 0 34.5703 0.655859 34.5703 1.46484V2.92969H37.5V1.46484ZM28.125 1.46484C28.125 0.655859 27.4691 0 26.6602 0C25.8512 0 25.1953 0.655859 25.1953 1.46484V2.92969H28.125V1.46484ZM18.75 1.46484C18.75 0.655859 18.0941 0 17.2852 0C16.4762 0 15.8203 0.655859 15.8203 1.46484V2.92969H18.75V1.46484ZM39.2578 25.5859C40.9037 25.5859 42.4826 25.8784 43.9453 26.4139V15.625H0V37.5977C0 40.0208 1.97139 41.9922 4.39453 41.9922H25.8608C25.6777 41.0923 25.5856 40.1762 25.5859 39.2578C25.5859 31.7191 31.7191 25.5859 39.2578 25.5859ZM33.7891 20.752H36.2305C37.0395 20.752 37.6953 21.4078 37.6953 22.2168C37.6953 23.0258 37.0395 23.6816 36.2305 23.6816H33.7891C32.9801 23.6816 32.3242 23.0258 32.3242 22.2168C32.3242 21.4078 32.9801 20.752 33.7891 20.752ZM25.0977 20.752H27.5391C28.348 20.752 29.0039 21.4078 29.0039 22.2168C29.0039 23.0258 28.348 23.6816 27.5391 23.6816H25.0977C24.2887 23.6816 23.6328 23.0258 23.6328 22.2168C23.6328 21.4078 24.2887 20.752 25.0977 20.752ZM10.1562 36.8652H7.71484C6.90586 36.8652 6.25 36.2094 6.25 35.4004C6.25 34.5914 6.90586 33.9355 7.71484 33.9355H10.1562C10.9652 33.9355 11.6211 34.5914 11.6211 35.4004C11.6211 36.2094 10.9652 36.8652 10.1562 36.8652ZM10.1562 30.2734H7.71484C6.90586 30.2734 6.25 29.6176 6.25 28.8086C6.25 27.9996 6.90586 27.3438 7.71484 27.3438H10.1562C10.9652 27.3438 11.6211 27.9996 11.6211 28.8086C11.6211 29.6176 10.9652 30.2734 10.1562 30.2734ZM18.8477 36.8652H16.4062C15.5973 36.8652 14.9414 36.2094 14.9414 35.4004C14.9414 34.5914 15.5973 33.9355 16.4062 33.9355H18.8477C19.6566 33.9355 20.3125 34.5914 20.3125 35.4004C20.3125 36.2094 19.6566 36.8652 18.8477 36.8652ZM18.8477 30.2734H16.4062C15.5973 30.2734 14.9414 29.6176 14.9414 28.8086C14.9414 27.9996 15.5973 27.3438 16.4062 27.3438H18.8477C19.6566 27.3438 20.3125 27.9996 20.3125 28.8086C20.3125 29.6176 19.6566 30.2734 18.8477 30.2734ZM18.8477 23.6816H16.4062C15.5973 23.6816 14.9414 23.0258 14.9414 22.2168C14.9414 21.4078 15.5973 20.752 16.4062 20.752H18.8477C19.6566 20.752 20.3125 21.4078 20.3125 22.2168C20.3125 23.0258 19.6566 23.6816 18.8477 23.6816ZM23.6328 28.8086C23.6328 27.9996 24.2887 27.3438 25.0977 27.3438H27.5391C28.348 27.3438 29.0039 27.9996 29.0039 28.8086C29.0039 29.6176 28.348 30.2734 27.5391 30.2734H25.0977C24.2887 30.2734 23.6328 29.6176 23.6328 28.8086Z" fill="white"/>
<path d="M39.2578 28.5156C33.3346 28.5156 28.5156 33.3346 28.5156 39.2578C28.5156 45.1811 33.3346 50 39.2578 50C45.1811 50 50 45.1811 50 39.2578C50 33.3346 45.1811 28.5156 39.2578 28.5156ZM44.1406 40.7227H39.2578C38.4488 40.7227 37.793 40.0668 37.793 39.2578V34.375C37.793 33.566 38.4488 32.9102 39.2578 32.9102C40.0668 32.9102 40.7227 33.566 40.7227 34.375V37.793H44.1406C44.9496 37.793 45.6055 38.4488 45.6055 39.2578C45.6055 40.0668 44.9496 40.7227 44.1406 40.7227Z" fill="white"/>
</g>
<defs>
<clipPath id="clip0_1517_1205">
<rect width="50" height="50" fill="white"/>
</clipPath>
</defs>
</svg>
