<svg width="46" height="56" viewBox="0 0 46 56" fill="none" xmlns="http://www.w3.org/2000/svg">
<path d="M22.6522 26.9753C26.3008 26.9753 29.4604 25.646 32.0419 23.0236C34.6235 20.4017 35.9321 17.1935 35.9321 13.4873C35.9321 9.7821 34.6235 6.5736 32.0415 3.9507C29.4595 1.32911 26.3004 0 22.6522 0C19.003 0 15.8442 1.32911 13.2627 3.95114C10.6813 6.57317 9.37211 9.78177 9.37211 13.4873C9.37211 17.1935 10.6812 20.4021 13.2632 23.0241C15.8452 25.6457 19.0043 26.9753 22.6522 26.9753ZM45.8885 43.0609C45.814 41.9698 45.6635 40.7794 45.4418 39.5226C45.218 38.2561 44.9299 37.059 44.5849 35.9648C44.2287 34.8339 43.7441 33.7172 43.1451 32.6469C42.5233 31.5361 41.7931 30.5688 40.9736 29.7728C40.1167 28.9402 39.0677 28.2707 37.8545 27.7822C36.6456 27.2966 35.3057 27.0505 33.8726 27.0505C33.3097 27.0505 32.7655 27.285 31.7142 27.9802C30.967 28.4744 30.2175 28.9651 29.4659 29.4524C28.7436 29.9198 27.7652 30.3578 26.5566 30.7543C25.3775 31.1418 24.1804 31.3383 22.9987 31.3383C21.8172 31.3383 20.6203 31.1418 19.44 30.7543C18.2328 30.3581 17.2544 29.9203 16.5329 29.4528C15.6961 28.9098 14.9391 28.4142 14.2824 27.9797C13.2325 27.2846 12.6877 27.05 12.1249 27.05C10.6913 27.05 9.35198 27.2965 8.14341 27.7828C6.93107 28.2703 5.88155 28.9397 5.02382 29.7733C4.20486 30.5696 3.47421 31.5364 2.85328 32.6469C2.25476 33.7171 1.77017 34.8335 1.4134 35.9653C1.0688 37.0595 0.78074 38.2561 0.556967 39.5226C0.33524 40.7777 0.184693 41.9685 0.110174 43.0622C0.0360444 44.1629 -0.000698689 45.2658 1.00595e-05 46.3691C1.00595e-05 49.2923 0.914918 51.6587 2.71911 53.404C4.501 55.1263 6.8587 56 9.72586 56H36.2741C39.1413 56 41.4981 55.1268 43.2805 53.4041C45.0851 51.66 46 49.2932 46 46.3686C45.9996 45.2403 45.9622 44.1273 45.8885 43.0609Z" fill="white"/>
</svg>
