<svg width="36" height="36" viewBox="0 0 36 36" fill="none" xmlns="http://www.w3.org/2000/svg">
<path d="M18 22.125C20.2782 22.125 22.125 20.2782 22.125 18C22.125 15.7218 20.2782 13.875 18 13.875C15.7218 13.875 13.875 15.7218 13.875 18C13.875 20.2782 15.7218 22.125 18 22.125Z" fill="black"/>
<path d="M12.2398 26.4149C11.8889 26.4147 11.5492 26.2916 11.2798 26.0669C10.0968 25.0815 9.14498 23.848 8.49178 22.4538C7.83859 21.0596 7.5 19.5388 7.5 17.9991C7.5 16.4595 7.83859 14.9387 8.49178 13.5445C9.14498 12.1503 10.0968 10.9168 11.2798 9.93138C11.5855 9.67677 11.9799 9.55405 12.3761 9.59019C12.7723 9.62634 13.1379 9.8184 13.3925 10.1241C13.6471 10.4299 13.7699 10.8242 13.7337 11.2204C13.6976 11.6166 13.5055 11.9823 13.1998 12.2369C12.3547 12.9407 11.6747 13.8218 11.2081 14.8178C10.7414 15.8137 10.4996 16.9001 10.4996 17.9999C10.4996 19.0997 10.7414 20.1861 11.2081 21.182C11.6747 22.1779 12.3547 23.059 13.1998 23.7629C13.4364 23.9602 13.6066 24.2257 13.6871 24.5232C13.7675 24.8207 13.7544 25.1357 13.6495 25.4254C13.5446 25.7152 13.3531 25.9656 13.1008 26.1427C12.8486 26.3197 12.5479 26.4147 12.2398 26.4149Z" fill="black"/>
<path d="M12.24 26.04C11.9769 26.0411 11.7219 25.9492 11.52 25.7805C10.3792 24.8301 9.46132 23.6405 8.83142 22.296C8.20152 20.9514 7.875 19.4848 7.875 18C7.875 16.5152 8.20152 15.0486 8.83142 13.704C9.46132 12.3594 10.3792 11.1698 11.52 10.2195C11.6336 10.1249 11.7646 10.0537 11.9057 10.0098C12.0468 9.96588 12.1952 9.95021 12.3424 9.96365C12.4895 9.97709 12.6326 10.0194 12.7634 10.0881C12.8942 10.1569 13.0102 10.2507 13.1048 10.3642C13.1993 10.4778 13.2706 10.6089 13.3145 10.75C13.3584 10.8911 13.374 11.0394 13.3606 11.1866C13.3471 11.3337 13.3049 11.4768 13.2361 11.6076C13.1674 11.7384 13.0736 11.8544 12.96 11.949C12.0727 12.688 11.3588 13.6132 10.8688 14.6589C10.3789 15.7046 10.1249 16.8452 10.1249 18C10.1249 19.1548 10.3789 20.2954 10.8688 21.3411C11.3588 22.3868 12.0727 23.3119 12.96 24.051C13.1375 24.199 13.2651 24.3981 13.3255 24.6212C13.3858 24.8443 13.376 25.0806 13.2973 25.2979C13.2187 25.5152 13.075 25.703 12.8858 25.8358C12.6966 25.9686 12.4711 26.0399 12.24 26.04Z" fill="black"/>
<path d="M8.40096 31.0205C8.04974 31.0209 7.70968 30.8971 7.44096 30.671C5.58172 29.1241 4.08568 27.187 3.05896 24.9972C2.03224 22.8073 1.5 20.4183 1.5 17.9997C1.5 15.5811 2.03224 13.1922 3.05896 11.0023C4.08568 8.81246 5.58172 6.87538 7.44096 5.32848C7.59169 5.19756 7.76704 5.09804 7.95674 5.03577C8.14643 4.9735 8.34664 4.94972 8.54565 4.96583C8.74465 4.98194 8.93843 5.03762 9.11564 5.1296C9.29284 5.22158 9.4499 5.34801 9.57761 5.50147C9.70531 5.65494 9.8011 5.83236 9.85934 6.02333C9.91759 6.21429 9.93713 6.41497 9.91681 6.61359C9.89649 6.8122 9.83673 7.00477 9.74102 7.17998C9.64532 7.3552 9.51559 7.50955 9.35946 7.63399C7.83881 8.89978 6.61526 10.4846 5.77556 12.2761C4.93586 14.0676 4.50058 16.0219 4.50058 18.0005C4.50058 19.979 4.93586 21.9333 5.77556 23.7248C6.61526 25.5164 7.83881 27.1012 9.35946 28.367C9.59661 28.5641 9.76723 28.8296 9.8481 29.1272C9.92896 29.4248 9.91614 29.74 9.81137 30.0301C9.7066 30.3201 9.51497 30.5708 9.26259 30.7481C9.01021 30.9253 8.70935 31.0204 8.40096 31.0205Z" fill="black"/>
<path d="M8.39968 30.6459C8.13693 30.6462 7.88249 30.5538 7.68118 30.3849C5.86412 28.8731 4.40202 26.9799 3.39859 24.8397C2.39516 22.6995 1.875 20.3647 1.875 18.0009C1.875 15.6372 2.39516 13.3024 3.39859 11.1622C4.40202 9.02194 5.86412 7.12877 7.68118 5.61693C7.79504 5.52247 7.92638 5.45137 8.06772 5.40768C8.20905 5.36398 8.35761 5.34856 8.50491 5.36228C8.6522 5.376 8.79536 5.41859 8.92619 5.48764C9.05703 5.55668 9.17298 5.65082 9.26743 5.76468C9.36189 5.87853 9.43299 6.00988 9.47668 6.15121C9.52037 6.29255 9.5358 6.4411 9.52208 6.5884C9.50836 6.7357 9.46576 6.87885 9.39672 7.00968C9.32768 7.14052 9.23354 7.25647 9.11968 7.35093C7.55654 8.65205 6.2988 10.2811 5.43563 12.1227C4.57247 13.9642 4.12502 15.9731 4.12502 18.0069C4.12502 20.0407 4.57247 22.0496 5.43563 23.8912C6.2988 25.7327 7.55654 27.3618 9.11968 28.6629C9.29489 28.8115 9.42041 29.0102 9.47938 29.2322C9.53835 29.4542 9.52793 29.689 9.44953 29.9049C9.37113 30.1208 9.2285 30.3076 9.04082 30.4401C8.85314 30.5725 8.6294 30.6444 8.39968 30.6459ZM23.7597 26.4159C23.4515 26.4158 23.1509 26.3207 22.8986 26.1437C22.6464 25.9667 22.4548 25.7163 22.3499 25.4265C22.245 25.1367 22.2319 24.8217 22.3124 24.5242C22.3929 24.2268 22.563 23.9613 22.7997 23.7639C23.6448 23.0601 24.3247 22.179 24.7914 21.183C25.258 20.1871 25.4999 19.1007 25.4999 18.0009C25.4999 16.9011 25.258 15.8147 24.7914 14.8188C24.3247 13.8229 23.6448 12.9418 22.7997 12.2379C22.643 12.1136 22.5128 11.9592 22.4166 11.7838C22.3205 11.6084 22.2604 11.4156 22.2399 11.2166C22.2194 11.0176 22.2389 10.8166 22.2973 10.6253C22.3556 10.434 22.4517 10.2563 22.5797 10.1026C22.7077 9.94895 22.8652 9.82245 23.0429 9.73056C23.2205 9.63867 23.4148 9.58323 23.6142 9.56752C23.8136 9.5518 24.0141 9.57612 24.2039 9.63904C24.3938 9.70197 24.5691 9.80223 24.7197 9.93393C25.9027 10.9193 26.8545 12.1528 27.5077 13.547C28.1609 14.9412 28.4995 16.462 28.4995 18.0017C28.4995 19.5413 28.1609 21.0621 27.5077 22.4563C26.8545 23.8505 25.9027 25.084 24.7197 26.0694C24.45 26.2936 24.1103 26.4162 23.7597 26.4159Z" fill="black"/>
<path d="M23.762 26.04C23.5309 26.0399 23.3054 25.9686 23.1162 25.8358C22.927 25.7031 22.7833 25.5152 22.7047 25.2979C22.626 25.0806 22.6162 24.8443 22.6765 24.6212C22.7369 24.3981 22.8645 24.199 23.042 24.051C23.9293 23.3119 24.6432 22.3868 25.1331 21.3411C25.6231 20.2954 25.877 19.1548 25.877 18C25.877 16.8452 25.6231 15.7046 25.1331 14.6589C24.6432 13.6132 23.9293 12.688 23.042 11.949C22.8126 11.758 22.6685 11.4838 22.6414 11.1866C22.6142 10.8894 22.7063 10.5936 22.8972 10.3642C23.0882 10.1349 23.3624 9.9908 23.6596 9.96365C23.9568 9.93651 24.2526 10.0285 24.482 10.2195C25.6228 11.1698 26.5407 12.3594 27.1706 13.704C27.8005 15.0486 28.127 16.5152 28.127 18C28.127 19.4848 27.8005 20.9514 27.1706 22.296C26.5407 23.6405 25.6228 24.8301 24.482 25.7805C24.2801 25.9492 24.0251 26.0411 23.762 26.04Z" fill="black"/>
<path d="M27.6004 31.0205C27.292 31.0205 26.9911 30.9253 26.7387 30.7481C26.4864 30.5709 26.2947 30.3202 26.19 30.0301C26.0852 29.7401 26.0724 29.4248 26.1532 29.1272C26.2341 28.8296 26.4047 28.5642 26.6419 28.367C28.1625 27.1012 29.3861 25.5164 30.2258 23.7249C31.0655 21.9334 31.5008 19.9791 31.5008 18.0005C31.5008 16.022 31.0655 14.0677 30.2258 12.2762C29.3861 10.4847 28.1625 8.89983 26.6419 7.63403C26.4852 7.50971 26.355 7.35531 26.2588 7.17991C26.1627 7.00452 26.1026 6.81167 26.0821 6.61271C26.0616 6.41375 26.0811 6.2127 26.1395 6.02138C26.1978 5.83007 26.2938 5.65236 26.4219 5.49871C26.5499 5.34505 26.7074 5.21856 26.8851 5.12667C27.0627 5.03477 27.257 4.97934 27.4564 4.96362C27.6557 4.94791 27.8563 4.97223 28.0461 5.03515C28.236 5.09808 28.4113 5.19834 28.5619 5.33003C30.4224 6.87689 31.9196 8.81439 32.9471 11.005C33.9747 13.1955 34.5073 15.5854 34.5073 18.005C34.5073 20.4246 33.9747 22.8145 32.9471 25.0051C31.9196 27.1957 30.4224 29.1332 28.5619 30.68C28.2915 30.9033 27.951 31.0239 27.6004 31.0205Z" fill="black"/>
<path d="M27.6015 30.6447C27.3704 30.6446 27.1449 30.5733 26.9557 30.4405C26.7666 30.3077 26.6229 30.1199 26.5442 29.9026C26.4655 29.6853 26.4557 29.449 26.5161 29.2259C26.5764 29.0028 26.704 28.8037 26.8815 28.6557C28.4447 27.3545 29.7024 25.7255 30.5656 23.8839C31.4287 22.0424 31.8762 20.0335 31.8762 17.9997C31.8762 15.9659 31.4287 13.957 30.5656 12.1154C29.7024 10.2739 28.4447 8.64479 26.8815 7.34367C26.6524 7.15291 26.5084 6.87894 26.4812 6.58202C26.4541 6.2851 26.546 5.98957 26.7368 5.76042C26.9275 5.53127 27.2015 5.38729 27.4984 5.36014C27.7953 5.333 28.0909 5.42491 28.32 5.61567C30.1371 7.12751 31.5992 9.02069 32.6026 11.1609C33.606 13.3011 34.1262 15.6359 34.1262 17.9997C34.1262 20.3634 33.606 22.6982 32.6026 24.8384C31.5992 26.9787 30.1371 28.8718 28.32 30.3837C28.1187 30.5525 27.8643 30.645 27.6015 30.6447Z" fill="black"/>
</svg>
