<svg width="53" height="53" viewBox="0 0 53 53" fill="none" xmlns="http://www.w3.org/2000/svg">
<path d="M42.4758 28.3219C40.0163 25.8127 35.7597 28.7111 37.2089 31.9242C38.2201 34.127 40.6457 35.6425 42.4758 37.0917C44.306 35.6425 46.7407 34.127 47.7427 31.9242C49.1919 28.7194 44.9519 25.7961 42.4758 28.3219ZM42.5089 12.5792C43.0307 11.66 43.395 10.658 43.5938 9.61453C43.8008 8.50484 42.9147 7.43656 41.7802 7.45312C41.4821 8.95203 40.9272 10.3847 40.1322 11.6848L39.7182 12.3631C39.4697 12.7771 39.1964 13.1746 38.9149 13.5639V20.8431C39.5931 20.959 40.2896 21.0087 40.9769 21.0087H45.7295C46.4169 21.0087 46.8889 20.2717 46.5991 19.6506C46.5445 19.5315 46.5381 19.3959 46.5814 19.2722C46.6246 19.1485 46.714 19.0464 46.8309 18.9872C47.3692 18.7231 47.5688 18.0266 47.2367 17.5215C47.169 17.4124 47.1451 17.2819 47.1697 17.1559C47.1942 17.03 47.2655 16.918 47.3692 16.8424C47.8578 16.4863 47.9655 15.7576 47.5762 15.2855C47.4955 15.1834 47.4573 15.054 47.4697 14.9244C47.482 14.7948 47.5439 14.675 47.6425 14.5899C48.4201 13.9108 47.9241 12.5776 46.8806 12.5776H42.5089V12.5792ZM33.0104 14.4591V20.4804C33.0104 20.7859 33.2671 21.0435 33.5735 21.0435H37.2586V13.8877H33.5735C33.4234 13.8898 33.2801 13.951 33.1748 14.0579C33.0694 14.1648 33.0103 14.3089 33.0104 14.4591ZM18.4768 17.5894L31.1968 35.7419C31.8013 36.6197 33.1594 35.6673 32.5466 34.797L19.8349 16.637C19.2221 15.7592 17.8639 16.7116 18.4768 17.5894ZM25.3005 21.5561L29.7981 27.9741C31.5777 24.8603 28.8532 20.9433 25.3005 21.5561ZM25.6732 4.96875C22.9818 4.96875 20.7375 7.21297 20.7375 9.90438C20.7375 12.5958 22.9818 14.84 25.6732 14.84C28.3646 14.84 30.6088 12.5958 30.6088 9.90438C30.6088 7.21297 28.3646 4.96875 25.6732 4.96875ZM22.8493 8.30609C23.5118 7.93344 24.3316 7.93344 24.9941 8.30609C25.9216 8.83609 25.1109 10.277 24.1751 9.7462C24.0971 9.70543 24.0105 9.68413 23.9225 9.68413C23.8345 9.68413 23.7479 9.70543 23.6699 9.7462C22.7333 10.277 21.9218 8.83609 22.8493 8.30609ZM27.288 12.7614C26.286 13.3245 25.0603 13.3245 24.0583 12.7614C23.1308 12.2397 23.9507 10.7987 24.8782 11.3205C25.375 11.602 25.9796 11.602 26.4764 11.3205C27.4039 10.7987 28.2155 12.2397 27.288 12.7614ZM27.6855 9.74703C27.6061 9.7062 27.5181 9.68491 27.4288 9.68491C27.3395 9.68491 27.2515 9.7062 27.1721 9.74703C26.2454 10.2779 25.4256 8.83609 26.3613 8.30692C27.0238 7.93427 27.8354 7.93427 28.4979 8.30692C29.4328 8.83609 28.613 10.277 27.6855 9.74703ZM28.4143 34.6736L18.5347 20.5623L12.8041 29.6966L17.8722 36.9344L28.4143 34.6736ZM21.8141 47.0127C23.7022 48.0064 25.2434 45.0748 23.3544 44.0819C21.0013 42.8453 18.9445 41.1131 17.3257 39.0047L14.6011 40.9011C16.5307 43.4434 18.9902 45.5303 21.8141 47.0127ZM8.15004 40.3711C8.33621 40.6385 8.57332 40.8665 8.84778 41.0421C9.12225 41.2177 9.42867 41.3374 9.74948 41.3943C10.0703 41.4512 10.3992 41.4443 10.7173 41.3739C11.0354 41.3034 11.3365 41.1709 11.6033 40.9839L16.3568 37.654L11.6033 30.8725L6.85816 34.2016C6.59077 34.3877 6.36274 34.6248 6.18716 34.8993C6.01158 35.1738 5.8919 35.4802 5.83497 35.801C5.77804 36.1218 5.78498 36.4507 5.8554 36.7688C5.92582 37.0869 6.05834 37.388 6.24535 37.6548L8.15004 40.3711ZM13.3672 37.7294L10.6593 39.6258C9.78062 40.2386 8.8291 38.8813 9.70691 38.2677L12.4232 36.3712C13.2927 35.7584 14.245 37.1083 13.3672 37.7294ZM7.81051 35.5514L10.5193 33.655C11.3971 33.043 12.3495 34.4003 11.4708 35.014L8.7554 36.9104C7.88504 37.5223 6.93269 36.1642 7.81051 35.5514Z" fill="black"/>
</svg>
