<svg width="18" height="41" viewBox="0 0 18 41" fill="none" xmlns="http://www.w3.org/2000/svg">
<path d="M9.00391 11.2422C9.62523 11.2422 10.1289 10.7385 10.1289 10.1172C10.1289 9.49587 9.62523 8.99219 9.00391 8.99219C8.38259 8.99219 7.87891 9.49587 7.87891 10.1172C7.87891 10.7385 8.38259 11.2422 9.00391 11.2422Z" fill="black"/>
<path d="M5.43556 5.91141C7.56181 3.99891 10.4981 4.05516 12.5681 5.91141C13.6706 6.91266 12.1743 8.57766 11.0606 7.58766C9.84556 6.49641 8.20306 6.45141 6.94306 7.58766C5.85181 8.56641 4.31056 6.92391 5.43556 5.91141Z" fill="black"/>
<path d="M2.62306 2.53561C6.43681 -0.895639 11.6681 -0.794389 15.3806 2.53561C16.4831 3.53686 14.9868 5.20186 13.8731 4.21186C11.0156 1.63561 7.06681 1.56811 4.13056 4.21186C3.03931 5.19061 1.49806 3.54811 2.62306 2.53561Z" fill="black"/>
<path d="M13.5 13.4922H4.5C3.2625 13.4922 2.25 14.5047 2.25 15.7422H15.75C15.75 14.5047 14.7375 13.4922 13.5 13.4922Z" fill="black"/>
<path d="M4.5 40.4922H13.5C14.7375 40.4922 15.75 39.4797 15.75 38.2422H2.25C2.25 39.4797 3.2625 40.4922 4.5 40.4922Z" fill="black"/>
<path d="M15.75 17.9922H2.25C1.0125 17.9922 0 19.0047 0 20.2422V33.7422C0 34.9797 1.0125 35.9922 2.25 35.9922H15.75C16.9875 35.9922 18 34.9797 18 33.7422V20.2422C18 19.0047 16.9875 17.9922 15.75 17.9922ZM12.375 28.1172H12.06L11.1938 30.7272C10.8563 31.7509 9.405 31.7509 9.05625 30.7272L7.875 27.1834L7.81875 27.3522C7.66125 27.8134 7.23375 28.1172 6.75 28.1172H5.625C4.14 28.1172 4.14 25.8672 5.625 25.8672H5.94L6.80625 23.2572C7.14375 22.2334 8.595 22.2334 8.94375 23.2572L10.125 26.8009C10.3612 26.0922 10.8112 25.8784 11.205 25.8672C11.2162 25.8672 11.2275 25.8672 11.25 25.8672H12.375C13.86 25.8672 13.86 28.1172 12.375 28.1172Z" fill="black"/>
</svg>
