<svg width="27" height="46" viewBox="0 0 27 46" fill="none" xmlns="http://www.w3.org/2000/svg">
<path d="M13.4166 17.25C9.1885 17.25 5.75 20.6885 5.75 24.9166V38.3333C5.75 42.5614 9.1885 45.9999 13.4166 45.9999C17.6448 45.9999 21.0833 42.5614 21.0833 38.3333V24.9166C21.0833 20.6885 17.6448 17.25 13.4166 17.25Z" fill="black"/>
<path d="M13.4171 21.0834C11.303 21.0834 9.58371 22.8026 9.58371 24.9167C9.58371 27.0308 11.303 28.7501 13.4171 28.7501C15.5312 28.7501 17.2504 27.0308 17.2504 24.9167C17.2503 22.8026 15.5311 21.0834 13.4171 21.0834ZM13.4171 26.8334C12.3591 26.8334 11.5004 25.9747 11.5004 24.9167C11.5004 23.8587 12.3591 23 13.4171 23C14.4751 23 15.3337 23.8586 15.3337 24.9166C15.3337 25.9746 14.4751 26.8334 13.4171 26.8334ZM26.5653 5.6235C23.0541 1.99714 18.3851 0 13.4171 0C8.44907 0 3.78007 1.99714 0.270596 5.62539C-0.0992903 6.00489 -0.0877903 6.61052 0.29171 6.9805C0.67121 7.35039 1.28457 7.33889 1.64682 6.9575C4.79396 3.70686 8.97421 1.91664 13.4171 1.91664C17.8599 1.91664 22.0402 3.70677 25.1873 6.9575C25.3732 7.15111 25.6243 7.24886 25.8754 7.24886C26.115 7.24886 26.3565 7.15875 26.5424 6.97861C26.9218 6.61061 26.9333 6.003 26.5653 5.6235Z" fill="#00ECD4"/>
<path d="M13.4159 5.75586C9.93144 5.75586 6.65969 7.15122 4.20256 9.69075C3.83456 10.0702 3.84606 10.6759 4.22556 11.0459C4.60694 11.4139 5.21644 11.4042 5.58067 11.0229C7.67178 8.86275 10.4548 7.6725 13.416 7.6725C16.3773 7.6725 19.1603 8.86275 21.2514 11.0229C21.4393 11.2184 21.6884 11.3142 21.9395 11.3142C22.1791 11.3142 22.4206 11.2241 22.6065 11.044C22.986 10.676 22.9975 10.0684 22.6295 9.68886C20.1722 7.15122 16.9004 5.75586 13.4159 5.75586Z" fill="black"/>
<path d="M9.51808 15.0903C11.6034 12.9341 15.2336 12.9341 17.3189 15.0903C17.5068 15.2858 17.7578 15.3817 18.0071 15.3817C18.2467 15.3817 18.4882 15.2916 18.6741 15.1115C19.0536 14.7435 19.0651 14.1358 18.6971 13.7563C15.8853 10.8468 10.9518 10.8468 8.14006 13.7563C7.77205 14.1377 7.78356 14.7435 8.16306 15.1133C8.54256 15.4833 9.15206 15.4698 9.51808 15.0903Z" fill="black"/>
</svg>
