<svg width="30" height="30" viewBox="0 0 30 30" fill="none" xmlns="http://www.w3.org/2000/svg">
<path d="M1.75439 1.75439H6.49123V0H0V6.49123H1.75439V1.75439ZM23.5088 0V1.75439H28.2456V6.49123H30V0H23.5088ZM1.75439 23.4503H0V29.9415H6.49123V28.1871H1.75439V23.4503ZM28.2456 28.1871H23.5088V29.9415H30V23.4503H28.2456V28.1871ZM28.1871 15.848V14.0936H24.8474C24.4275 9.32456 20.617 5.51404 15.848 5.09415V1.75439H14.0936V5.09415C9.32456 5.51404 5.51404 9.32456 5.09415 14.0936H1.75439V15.848H5.09415C5.51404 20.617 9.32456 24.4275 14.0936 24.8474V28.1871H15.848V24.8474C20.617 24.4275 24.4275 20.617 24.8474 15.848H28.1871ZM15.848 23.0848V19.9825C15.281 20.0836 14.6605 20.0836 14.0936 19.9825V23.0848C10.293 22.6766 7.26491 19.6485 6.85673 15.848H9.95906C9.85789 15.281 9.85789 14.6605 9.95906 14.0936H6.85673C7.26491 10.293 10.293 7.26491 14.0936 6.85673V9.95906C14.6605 9.85789 15.281 9.85789 15.848 9.95906V6.85673C19.6485 7.26491 22.6766 10.293 23.0848 14.0936H19.9825C20.0836 14.6605 20.0836 15.281 19.9825 15.848H23.0848C22.6766 19.6485 19.6485 22.6766 15.848 23.0848Z" fill="black"/>
</svg>
