<svg width="29" height="45" viewBox="0 0 29 45" fill="none" xmlns="http://www.w3.org/2000/svg">
<path fill-rule="evenodd" clip-rule="evenodd" d="M18.582 7.81185L18.582 1.56184C18.582 1.14745 18.4174 0.750016 18.1244 0.45699C17.8314 0.163964 17.4339 -0.000655481 17.0195 -0.000655445C16.6051 -0.000655409 16.2077 0.163964 15.9147 0.45699C15.6216 0.750016 15.457 1.14745 15.457 1.56184L15.457 7.81185C15.457 8.22625 15.6216 8.62368 15.9147 8.9167C16.2077 9.20973 16.6051 9.37435 17.0195 9.37435C17.4339 9.37435 17.8314 9.20973 18.1244 8.9167C18.4174 8.62368 18.582 8.22625 18.582 7.81185ZM21.707 34.8952L21.707 43.2285C21.707 43.6429 21.8717 44.0403 22.1647 44.3334C22.4577 44.6264 22.8551 44.791 23.2695 44.791C23.6839 44.791 24.0814 44.6264 24.3744 44.3334C24.6674 44.0403 24.832 43.6429 24.832 43.2285L24.832 34.8952C24.832 34.4808 24.6674 34.0834 24.3744 33.7903C24.0814 33.4973 23.6839 33.3327 23.2695 33.3327C22.8551 33.3327 22.4577 33.4973 22.1647 33.7903C21.8717 34.0834 21.707 34.4808 21.707 34.8952ZM9.20703 34.8952L9.20703 43.2285C9.20703 43.6429 9.37165 44.0403 9.66468 44.3334C9.9577 44.6264 10.3551 44.791 10.7695 44.791C11.1839 44.791 11.5814 44.6264 11.8744 44.3334C12.1674 44.0403 12.332 43.6429 12.332 43.2285L12.332 34.8952C12.332 34.4808 12.1674 34.0834 11.8744 33.7903C11.5814 33.4973 11.1839 33.3327 10.7695 33.3327C10.3551 33.3327 9.9577 33.4973 9.66468 33.7903C9.37165 34.0834 9.20703 34.4808 9.20703 34.8952Z" fill="black"/>
<path fill-rule="evenodd" clip-rule="evenodd" d="M5.04166 18.2279L5.04166 32.8112C5.04166 33.7781 5.42578 34.7055 6.10951 35.3892C6.79323 36.0729 7.72056 36.457 8.6875 36.457L25.3542 36.457C26.3211 36.457 27.2484 36.0729 27.9322 35.3892C28.6159 34.7055 29 33.7781 29 32.8112L29 18.2279C29 16.7091 28.3958 15.2508 27.3229 14.1758C26.2475 13.1024 24.7903 12.4993 23.2708 12.4987L10.7708 12.4987C9.25208 12.4987 7.79375 13.1029 6.71875 14.1758C5.6454 15.2512 5.0423 16.7084 5.04166 18.2279ZM18.4708 30.2674L20.5562 25.0591C20.6497 24.822 20.6839 24.5657 20.656 24.3123C20.6281 24.059 20.5389 23.8163 20.3961 23.6052C20.2533 23.3941 20.0612 23.2209 19.8365 23.1007C19.6118 22.9805 19.3611 22.9169 19.1062 22.9154L17.2458 22.9154L18.4729 19.8508C18.5492 19.6602 18.5873 19.4565 18.5849 19.2512C18.5825 19.046 18.5397 18.8432 18.4589 18.6545C18.3782 18.4658 18.261 18.2948 18.1142 18.1514C17.9673 18.0079 17.7937 17.8948 17.6031 17.8185C17.2183 17.6643 16.788 17.6694 16.4068 17.8325C16.0257 17.9956 15.725 18.3034 15.5708 18.6883L13.4854 23.8966C13.392 24.1337 13.3578 24.3901 13.3857 24.6434C13.4136 24.8967 13.5028 25.1394 13.6456 25.3506C13.7883 25.5617 13.9804 25.7348 14.2052 25.855C14.4299 25.9752 14.6806 26.0388 14.9354 26.0404L16.7958 26.0404L15.5687 29.1049C15.4146 29.4898 15.4196 29.9201 15.5827 30.3012C15.7459 30.6824 16.0537 30.9831 16.4385 31.1372C16.8234 31.2914 17.2537 31.2864 17.6348 31.1232C18.016 30.9601 18.3167 30.6523 18.4708 30.2674ZM23.7917 10.432L23.7917 9.89453C23.7917 7.87995 22.1583 6.2487 20.1458 6.2487L13.8958 6.2487C12.9289 6.2487 12.0016 6.63282 11.3178 7.31654C10.6341 8.00027 10.25 8.9276 10.25 9.89453L10.25 10.432C10.4234 10.4212 10.5971 10.4157 10.7708 10.4154L23.2708 10.4154C23.4458 10.4154 23.6187 10.4216 23.7917 10.432Z" fill="black"/>
<circle cx="8" cy="10" r="8" fill="white"/>
<g clip-path="url(#clip0_1687_269)">
<path d="M11.7949 12.4903L5.52527 6.2207C5.25183 5.94727 4.80852 5.94727 4.5355 6.2207L4.20508 6.55062C3.93164 6.82414 3.93164 7.26746 4.20508 7.54045L10.4747 13.8101C10.7482 14.0835 11.1915 14.0835 11.4645 13.8101L11.7944 13.4802C12.0684 13.2072 12.0684 12.7638 11.7949 12.4903Z" fill="#F44336"/>
<path d="M10.4747 6.22064L4.20508 12.4903C3.93164 12.7637 3.93164 13.2071 4.20508 13.4801L4.53499 13.81C4.80852 14.0835 5.25183 14.0835 5.52483 13.81L11.7949 7.54083C12.0684 7.26739 12.0684 6.82408 11.7949 6.55108L11.465 6.22116C11.1915 5.9472 10.7482 5.9472 10.4747 6.22064Z" fill="#F44336"/>
</g>
<defs>
<clipPath id="clip0_1687_269">
<rect width="8" height="8" fill="white" transform="translate(4 6)"/>
</clipPath>
</defs>
</svg>
