<svg width="34" height="34" viewBox="0 0 34 34" fill="none" xmlns="http://www.w3.org/2000/svg">
<path d="M31.8769 4.38477H20.3135C20.844 5.05933 20.844 6.01497 20.2605 6.63332L20.1014 6.80197H20.3666C21.2153 6.80197 21.9048 7.53275 21.9048 8.43217V10.2872H32.9378V28.1071H17.4492V20.7992L16.8657 21.4176C16.7597 21.53 16.6005 21.6425 16.4414 21.7549V31.4237C16.4414 32.6042 17.3962 33.616 18.5101 33.616H31.9299C33.0438 33.616 33.9986 32.6604 33.9986 31.4237V6.57711C33.9456 5.39662 33.0438 4.38477 31.8769 4.38477ZM26.8378 31.4237H23.8144C23.5492 31.4237 23.2839 31.1988 23.2839 30.8615C23.2839 30.5805 23.4961 30.2994 23.8144 30.2994H26.8378C27.103 30.2994 27.3682 30.5243 27.3682 30.8615C27.3682 31.1426 27.103 31.4237 26.8378 31.4237Z" fill="black"/>
<path d="M19.5728 16.1896L18.2998 14.8967C18.4059 14.6718 18.512 14.447 18.565 14.1659H20.3154C20.5807 14.1659 20.8459 13.9411 20.8459 13.6038V8.37588C20.8459 8.09481 20.6337 7.81374 20.3154 7.81374H18.565C18.4589 7.58889 18.4059 7.30782 18.2998 7.08296L19.5198 5.73383C19.732 5.50897 19.732 5.17169 19.5198 4.94683L16.019 1.23671C15.8068 1.01185 15.4885 1.01185 15.2764 1.23671L14.0564 2.58584C13.8442 2.47341 13.579 2.36099 13.3668 2.30477V0.56214C13.3668 0.28107 13.1546 0 12.8364 0H7.95644C7.69123 0 7.42601 0.224856 7.42601 0.56214V2.4172C7.21384 2.52963 6.94862 2.58584 6.73645 2.69827L5.46342 1.40535C5.25125 1.18049 4.93299 1.18049 4.72082 1.40535L1.21999 5.11547C1.00782 5.34033 1.00782 5.67761 1.21999 5.90247L2.43997 7.19539C2.33389 7.42024 2.2278 7.70131 2.17476 7.92617H0.530429C0.265215 7.92617 0 8.15103 0 8.48831V13.7162C0 13.9973 0.212172 14.2783 0.530429 14.2783H2.28085C2.38693 14.5032 2.43997 14.7843 2.54606 15.0091L1.32607 16.2458C1.1139 16.4707 1.1139 16.808 1.32607 17.0328L4.82691 20.743C5.03908 20.9678 5.35734 20.9678 5.56951 20.743L6.78949 19.45C7.00167 19.5625 7.26688 19.6749 7.47905 19.7873V21.6424C7.47905 21.9235 7.69123 22.2045 8.00948 22.2045H12.9425C13.2077 22.2045 13.4729 21.9797 13.4729 21.6424V19.7873C13.6851 19.6749 13.9503 19.6187 14.1625 19.5063L15.4355 20.7992C15.6477 21.024 15.9659 20.9678 16.1251 20.7992L19.6259 17.089C19.785 16.808 19.8381 16.4145 19.5728 16.1896ZM10.4495 16.6955C7.5321 16.6955 5.14516 14.1659 5.14516 11.0742C5.14516 7.98238 7.5321 5.45276 10.4495 5.45276C13.3668 5.45276 15.7538 7.98238 15.7538 11.0742C15.7538 14.1659 13.3668 16.6955 10.4495 16.6955Z" fill="black"/>
</svg>
