<svg width="32" height="53" viewBox="0 0 32 53" fill="none" xmlns="http://www.w3.org/2000/svg">
<path d="M16.0017 11C14.1837 11.002 12.4407 11.7251 11.1552 13.0107C9.86968 14.2962 9.14657 16.0391 9.14453 17.8571V29.8571C9.14606 31.2206 9.68839 32.5279 10.6525 33.492C11.6167 34.4561 12.9239 34.9985 14.2874 35H17.716C19.0795 34.9985 20.3867 34.4561 21.3508 33.492C22.315 32.5279 22.8573 31.2206 22.8588 29.8571V17.8571C22.8568 16.0391 22.1337 14.2962 20.8481 13.0107C19.5626 11.7251 17.8197 11.002 16.0017 11Z" fill="black"/>
<path d="M24.5714 19.7578V29.8577C24.5694 31.6757 23.8463 33.4187 22.5608 34.7042C21.2752 35.9897 19.5323 36.7128 17.7143 36.7149H14.2857C12.4677 36.7128 10.7248 35.9897 9.43924 34.7042C8.15372 33.4187 7.43061 31.6757 7.42857 29.8577V19.8133C5.22735 22.1002 3.99838 25.1514 4 28.3256V52.1435H28V28.1435C28.0013 25.0067 26.7699 21.9951 24.5714 19.7578ZM21.1429 48.7149H10.8571V47.0006H21.1429V48.7149ZM21.1429 45.2863H10.8571V43.572H21.1429V45.2863Z" fill="black"/>
<path d="M1 6H31" stroke="black" stroke-linecap="round"/>
<path d="M31 11L31 1" stroke="black" stroke-linecap="round"/>
<path d="M1 11L1 1" stroke="black" stroke-linecap="round"/>
</svg>
