<svg width="25" height="30" viewBox="0 0 25 30" fill="none" xmlns="http://www.w3.org/2000/svg">
<path d="M13.9916 29.7215C14.1932 29.9105 14.4432 30 14.6932 30C14.8787 30 15.0722 29.9503 15.2416 29.8409C15.6448 29.5823 15.9029 29.065 15.9029 28.508V1.49359C15.9029 0.936592 15.6448 0.419378 15.2416 0.160772C14.8464 -0.0878885 14.3545 -0.0481029 13.9916 0.280129L5.47569 7.76977H1.20965C0.540311 7.76977 0 8.44613 0 9.26174V20.7399C0 21.5555 0.540311 22.2319 1.20965 22.2319H5.47569L13.9916 29.7215ZM24.6446 11.0789C24.4178 10.7996 24.1104 10.6426 23.7898 10.6426C23.4692 10.6426 23.1618 10.7996 22.935 11.0789L21.4657 12.8912L19.9963 11.0789C19.8847 10.9364 19.7513 10.8228 19.6037 10.7446C19.4561 10.6664 19.2974 10.6252 19.1368 10.6235C18.9761 10.6218 18.8169 10.6596 18.6682 10.7346C18.5195 10.8096 18.3845 10.9204 18.2709 11.0605C18.1573 11.2005 18.0675 11.3671 18.0067 11.5505C17.9459 11.7338 17.9152 11.9303 17.9166 12.1284C17.918 12.3265 17.9514 12.5223 18.0148 12.7043C18.0782 12.8863 18.1704 13.051 18.2859 13.1886L19.7552 15.0008L18.2859 16.8121C18.1684 16.9491 18.0744 17.1137 18.0094 17.2963C17.9443 17.4789 17.9097 17.6757 17.9074 17.8751C17.9051 18.0745 17.9352 18.2724 17.996 18.4572C18.0568 18.642 18.1471 18.8099 18.2614 18.9509C18.3757 19.092 18.5117 19.2033 18.6615 19.2784C18.8113 19.3535 18.9718 19.3907 19.1335 19.388C19.2951 19.3853 19.4547 19.3426 19.6028 19.2625C19.7508 19.1824 19.8844 19.0665 19.9955 18.9217L21.4657 17.1104L22.9342 18.9217C23.1705 19.2131 23.4801 19.3593 23.7898 19.3593C24.0995 19.3593 24.4091 19.2131 24.6446 18.9217C24.8711 18.6419 24.9984 18.2627 24.9984 17.8674C24.9984 17.472 24.8711 17.0928 24.6446 16.8131L23.1769 15.0008L24.6462 13.1886C24.8728 12.9088 25 12.5296 25 12.1343C25 11.7389 24.8728 11.3597 24.6462 11.0799L24.6446 11.0789Z" fill="black"/>
</svg>
