<svg width="34" height="31" viewBox="0 0 34 31" fill="none" xmlns="http://www.w3.org/2000/svg">
<path d="M14.0363 12.196C18.1584 14.3982 23.4925 11.2233 23.4198 6.44977C23.4186 4.73953 22.7388 3.09966 21.5294 1.89034C20.3201 0.681012 18.6802 0.00112373 16.97 0C10.1681 0.0878716 8.09436 9.09016 14.0363 12.196ZM20.6861 20.4341H18.8492L18.2796 18.6821C18.1863 18.4089 18.0099 18.1718 17.7751 18.0039C17.5404 17.836 17.2589 17.7457 16.9703 17.7457C16.6816 17.7457 16.4002 17.836 16.1654 18.0039C15.9307 18.1718 15.7543 18.4089 15.661 18.6821L15.0914 20.4335H13.2545C13.0164 20.4346 12.7826 20.497 12.5757 20.6149C12.3688 20.7327 12.1958 20.9019 12.0734 21.1061C11.9509 21.3103 11.8832 21.5426 11.8767 21.7806C11.8703 22.0186 11.9253 22.2543 12.0365 22.4648C12.1922 22.8642 13.163 23.4047 13.4727 23.6768L13.9272 24.0101L13.3576 25.7555C13.2688 26.0328 13.2698 26.3311 13.3606 26.6077C13.4515 26.8844 13.6273 27.1253 13.8632 27.296C14.0991 27.4668 14.3829 27.5587 14.6741 27.5585C14.9652 27.5584 15.2489 27.4663 15.4847 27.2953L16.97 26.2166L18.4547 27.2953C18.6904 27.4667 18.9742 27.5591 19.2655 27.5595C19.5569 27.5599 19.8409 27.4681 20.077 27.2974C20.3131 27.1266 20.4891 26.8856 20.58 26.6088C20.6709 26.332 20.672 26.0335 20.583 25.7561L20.0134 24.0108C20.4776 23.6053 21.6272 22.9945 21.9041 22.4648C22.0152 22.2543 22.0701 22.0187 22.0635 21.7808C22.057 21.5428 21.9893 21.3106 21.8668 21.1065C21.7444 20.9024 21.5714 20.7333 21.3646 20.6155C21.1578 20.4977 20.9241 20.4352 20.6861 20.4341ZM9.3991 22.883H7.39926L7.26594 22.4648L6.78053 20.9795C6.67277 20.6479 6.4477 20.367 6.14755 20.1896C5.8474 20.0122 5.49282 19.9504 5.15036 20.0159C4.8962 20.0593 4.65906 20.1723 4.46531 20.3425C4.27156 20.5126 4.12879 20.7331 4.05287 20.9795L3.43474 22.8824H1.43369C1.13083 22.8825 0.835788 22.9785 0.590836 23.1566C0.345884 23.3348 0.163594 23.5858 0.0700836 23.8739C-0.0234269 24.162 -0.0233596 24.4722 0.0702761 24.7603C0.163912 25.0483 0.34631 25.2993 0.59134 25.4773L2.20939 26.653L1.59126 28.5564C1.49733 28.8445 1.49701 29.1548 1.59033 29.443C1.68365 29.7312 1.86583 29.9825 2.11074 30.1608C2.35566 30.3391 2.65074 30.4353 2.95369 30.4356C3.25664 30.4359 3.55189 30.3402 3.79714 30.1624L5.41579 28.9867L7.03445 30.1624C7.27968 30.3405 7.57502 30.4363 7.8781 30.4362C8.18118 30.436 8.47643 30.3399 8.72148 30.1615C8.96653 29.9832 9.14879 29.7318 9.24211 29.4434C9.33543 29.1551 9.33502 28.8445 9.24093 28.5564L8.6228 26.6536L10.2408 25.4773C10.4819 25.2972 10.6605 25.0462 10.7516 24.7594C10.8427 24.4727 10.8417 24.1646 10.7488 23.8785C10.6558 23.5923 10.4757 23.3424 10.2335 23.1639C9.99133 22.9853 9.69994 22.8871 9.3991 22.883ZM32.5063 22.883H30.5058L29.8877 20.9795C29.7934 20.6921 29.6108 20.4418 29.3658 20.2643C29.1208 20.0868 28.8261 19.9913 28.5236 19.9913C28.2211 19.9913 27.9263 20.0868 27.6814 20.2643C27.4364 20.4418 27.2537 20.6921 27.1595 20.9795C27.0595 21.2886 26.6298 22.5957 26.5413 22.8824H24.5415C24.2378 22.8809 23.9415 22.9766 23.6961 23.1556C23.4507 23.3345 23.2689 23.5872 23.1774 23.8768C23.0787 24.1639 23.0761 24.4753 23.1702 24.764C23.2642 25.0526 23.4497 25.3028 23.6985 25.4767L25.3166 26.653L24.6984 28.5564C24.5992 28.8444 24.5964 29.1569 24.6904 29.4466C24.7844 29.7363 24.9702 29.9875 25.2196 30.1624C25.4636 30.3426 25.7589 30.4399 26.0623 30.4399C26.3656 30.4399 26.661 30.3426 26.9049 30.1624L28.5236 28.9867L30.1416 30.1624C30.3869 30.3407 30.6823 30.4368 30.9855 30.4367C31.2887 30.4367 31.5841 30.3406 31.8293 30.1622C32.0745 29.9838 32.2568 29.7323 32.3502 29.4438C32.4435 29.1553 32.443 28.8446 32.3487 28.5564L31.7306 26.6536L33.3486 25.4773C33.5893 25.297 33.7676 25.046 33.8584 24.7594C33.9493 24.4727 33.9482 24.1649 33.8553 23.8789C33.7625 23.5929 33.5825 23.3431 33.3406 23.1645C33.0987 22.9859 32.8069 22.8875 32.5063 22.883Z" fill="black"/>
<path d="M25.6581 21.6702L26.0102 20.6036C26.1966 20.0312 26.5727 19.5396 27.0764 19.21C27.5801 18.8804 28.1812 18.7326 28.7803 18.791C28.7146 17.6943 28.3222 16.6424 27.6536 15.7706C26.9849 14.8988 26.0707 14.2471 25.0285 13.8993L21.4094 12.6994C20.1114 13.6166 18.5615 14.1098 16.9722 14.1114C15.3813 14.1138 13.8296 13.6179 12.535 12.6934L8.91648 13.8993C7.87419 14.247 6.95981 14.8987 6.29106 15.7705C5.62231 16.6423 5.2298 17.6943 5.16406 18.791C5.76222 18.7333 6.36224 18.8806 6.86569 19.2087C7.36913 19.5369 7.7461 20.0264 7.93474 20.597L8.28623 21.6702H9.40129C9.84565 21.6694 10.2832 21.7798 10.6739 21.9914C10.6469 21.6366 10.6938 21.28 10.8116 20.9442C10.9294 20.6084 11.1155 20.3007 11.3582 20.0404C11.6009 19.7802 11.8949 19.5731 12.2217 19.4322C12.5484 19.2913 12.9009 19.2197 13.2567 19.2219H14.2142L14.5112 18.3062C14.6844 17.7907 15.0151 17.3425 15.4566 17.0251C15.8982 16.7076 16.4283 16.5368 16.9722 16.5368C17.516 16.5368 18.0462 16.7076 18.4877 17.0251C18.9293 17.3425 19.26 17.7907 19.4332 18.3062L19.7301 19.2213H20.6876C21.0429 19.2194 21.3947 19.2911 21.721 19.4317C22.0472 19.5724 22.3409 19.779 22.5834 20.0385C22.826 20.2981 23.0122 20.6051 23.1305 20.9401C23.2487 21.2751 23.2964 21.631 23.2705 21.9853C23.9128 21.5975 24.9176 21.6666 25.6581 21.6702Z" fill="black"/>
</svg>
