<svg width="50" height="45" viewBox="0 0 50 45" fill="none" xmlns="http://www.w3.org/2000/svg">
<path fill-rule="evenodd" clip-rule="evenodd" d="M25.0725 0.168672L26.3353 3.49461C26.3529 3.54281 26.3845 3.58467 26.426 3.61484C26.4676 3.64501 26.5171 3.66212 26.5684 3.66399L30.1218 3.83722C30.3634 3.84899 30.4624 4.15347 30.2737 4.30503L27.5008 6.53378C27.4604 6.56545 27.4304 6.60843 27.4145 6.65724C27.3987 6.70605 27.3977 6.75848 27.4118 6.80784L28.3451 10.2408C28.4085 10.4742 28.1497 10.6624 27.9472 10.5298L24.9706 8.58139C24.928 8.55277 24.8779 8.53749 24.8265 8.53749C24.7752 8.53749 24.7251 8.55277 24.6825 8.58139L21.7059 10.5299C21.5035 10.6624 21.2446 10.4743 21.308 10.2409L22.2413 6.80784C22.2554 6.75848 22.2545 6.70604 22.2386 6.65723C22.2227 6.60841 22.1927 6.56543 22.1523 6.53378L19.3794 4.30503C19.1907 4.15347 19.2897 3.84899 19.5313 3.83722L23.0847 3.66399C23.136 3.66213 23.1855 3.64503 23.2271 3.61486C23.2686 3.58469 23.3002 3.54282 23.3178 3.49461L24.5805 0.168672C24.666 -0.056224 24.9872 -0.056224 25.0725 0.168672ZM41.5616 27.536C46.222 27.536 50 31.314 50 35.9744C50 40.6348 46.222 44.4129 41.5616 44.4129C36.9011 44.4129 33.1232 40.6348 33.1232 35.9744C33.1232 31.3139 36.9011 27.536 41.5616 27.536ZM40.4532 36.7187L38.5677 34.8332C38.0791 34.3445 37.2863 34.3445 36.7976 34.8332C36.3089 35.3218 36.3089 36.1145 36.7976 36.6032L39.5708 39.3764C40.0595 39.8651 40.8522 39.8651 41.3408 39.3764C43.0124 37.7048 44.665 36.0144 46.3288 34.3352C46.8141 33.8456 46.8125 33.0554 46.3234 32.569C45.8343 32.0825 45.042 32.084 44.5562 32.5745L40.4532 36.7187ZM24.8266 13.5667C28.2877 13.5667 31.0934 16.3724 31.0934 19.8335C31.0934 23.2945 28.2877 26.1003 24.8266 26.1003C21.3656 26.1003 18.5599 23.2945 18.5599 19.8335C18.5599 16.3724 21.3656 13.5667 24.8266 13.5667ZM13.723 38.203L31.7036 38.2029C31.5392 37.4714 31.4563 36.724 31.4565 35.9743C31.4565 33.8972 32.0836 31.9667 33.1582 30.3611C30.9574 28.3612 28.0347 27.1419 24.8266 27.1419C18.8704 27.1419 13.8958 31.3435 12.704 36.9444C12.671 37.0963 12.6726 37.2537 12.7085 37.4049C12.7444 37.5561 12.8139 37.6973 12.9117 37.8181C13.0095 37.9389 13.1331 38.0362 13.2736 38.1028C13.414 38.1694 13.5676 38.2036 13.723 38.203ZM49.5936 14.61L47.3447 17.3666C47.3117 17.406 47.2913 17.4542 47.2859 17.5053C47.2806 17.5563 47.2905 17.6078 47.3146 17.6532L48.9412 20.8171C49.0519 21.0323 48.8377 21.2701 48.6122 21.1826L45.2955 19.8956C45.2479 19.8764 45.1957 19.8719 45.1455 19.8826C45.0952 19.8932 45.0494 19.9186 45.0136 19.9555L42.5073 22.4802C42.3369 22.6519 42.0445 22.5218 42.058 22.2801L42.2572 18.7282C42.2607 18.677 42.2488 18.6259 42.2232 18.5814C42.1975 18.537 42.1592 18.5012 42.1131 18.4786L38.9374 16.8751C38.7215 16.7661 38.7549 16.4477 38.9887 16.386L42.4284 15.4777C42.4782 15.4652 42.5231 15.4382 42.5575 15.4C42.5918 15.3619 42.614 15.3144 42.6212 15.2636L43.1649 11.7478C43.2019 11.5087 43.515 11.4421 43.646 11.6456L45.5727 14.6363C45.6 14.6798 45.6396 14.7142 45.6864 14.735C45.7333 14.7559 45.7854 14.7623 45.8359 14.7535L49.3476 14.1841C49.5852 14.1456 49.7457 14.4237 49.5936 14.61ZM39.2679 4.10409C39.3064 3.8667 39.0283 3.70607 38.8419 3.85815L36.0853 6.10711C36.0459 6.14005 35.9977 6.16051 35.9466 6.16587C35.8956 6.17123 35.8441 6.16126 35.7987 6.13722L32.6348 4.51055C32.4197 4.39993 32.1818 4.61409 32.2693 4.83972L33.5563 8.15628C33.5755 8.2039 33.58 8.25614 33.5693 8.30634C33.5587 8.35654 33.5333 8.40243 33.4964 8.43816L30.9717 10.9446C30.7999 11.115 30.9301 11.4074 31.1717 11.3939L34.7236 11.1947C34.7748 11.1912 34.8259 11.2031 34.8704 11.2287C34.9148 11.2544 34.9506 11.2927 34.9732 11.3388L36.5768 14.5145C36.6858 14.7306 37.0042 14.697 37.0659 14.4632L37.9742 11.0235C37.9867 10.9737 38.0137 10.9288 38.0519 10.8944C38.09 10.8601 38.1375 10.8379 38.1883 10.8307L41.7041 10.287C41.9432 10.25 42.0098 9.93691 41.8063 9.80587L38.8157 7.8792C38.7723 7.85192 38.7379 7.81232 38.717 7.76544C38.6961 7.71856 38.6897 7.66652 38.6985 7.61597L39.2679 4.10409ZM0.30538 14.184L3.81715 14.7534C3.86771 14.7622 3.91974 14.7558 3.96662 14.7349C4.01351 14.714 4.05311 14.6797 4.08038 14.6362L6.00705 11.6456C6.13809 11.4421 6.45122 11.5087 6.4882 11.7478L7.03184 15.2637C7.03907 15.3145 7.06127 15.362 7.09561 15.4001C7.12995 15.4383 7.17488 15.4653 7.22466 15.4778L10.6643 16.3861C10.8983 16.4478 10.9317 16.7662 10.7158 16.8752L7.54007 18.4788C7.49399 18.5014 7.45568 18.5372 7.43003 18.5816C7.40437 18.6261 7.39253 18.6772 7.39601 18.7284L7.59518 22.2804C7.60872 22.5219 7.31632 22.6521 7.14591 22.4805L4.63934 19.9554C4.60361 19.9185 4.55773 19.8931 4.50753 19.8825C4.45733 19.8718 4.40509 19.8763 4.35747 19.8955L1.0409 21.1825C0.815381 21.27 0.60111 21.0322 0.711839 20.817L2.33851 17.6531C2.38747 17.558 2.37601 17.4493 2.3084 17.3665L0.0594427 14.6099C-0.0926407 14.4236 0.0679844 14.1455 0.30538 14.184ZM10.8112 3.85815C10.6249 3.70607 10.3467 3.8667 10.3853 4.10409L10.9547 7.61576C10.9635 7.66631 10.957 7.71835 10.9362 7.76523C10.9153 7.81211 10.8809 7.85172 10.8375 7.87899L7.84674 9.80566C7.6433 9.9367 7.70986 10.2498 7.94903 10.2868L11.4649 10.8305C11.5157 10.8377 11.5632 10.8599 11.6013 10.8942C11.6395 10.9286 11.6665 10.9735 11.679 11.0233L12.5873 14.463C12.649 14.6969 12.9674 14.7303 13.0764 14.5143L14.6799 11.3386C14.7025 11.2925 14.7383 11.2542 14.7827 11.2285C14.8272 11.2029 14.8782 11.191 14.9295 11.1945L18.4814 11.3937C18.723 11.4072 18.8532 11.1148 18.6814 10.9443L16.1566 8.43795C16.1198 8.40223 16.0944 8.35634 16.0837 8.30614C16.0731 8.25594 16.0776 8.20369 16.0967 8.15607L17.3838 4.8394C17.4713 4.61388 17.2335 4.39961 17.0183 4.51034L13.8545 6.13701C13.8091 6.16102 13.7576 6.17098 13.7066 6.16562C13.6555 6.16026 13.6073 6.13982 13.5679 6.10691L10.8112 3.85815Z" fill="black"/>
</svg>
