<svg width="30" height="30" viewBox="0 0 30 30" fill="none" xmlns="http://www.w3.org/2000/svg">
<path fill-rule="evenodd" clip-rule="evenodd" d="M3.04206 12.2015L8.92319 7.05423C8.83959 6.82554 8.79696 6.58391 8.79725 6.34042C8.79725 5.19367 9.72688 4.26411 10.8736 4.26411C11.9984 4.26411 12.9142 5.15848 12.9489 6.27486L17.5971 7.90223C17.9779 7.45517 18.5449 7.17161 19.1782 7.17161C19.5228 7.17108 19.8622 7.25674 20.1653 7.4208L25.5239 2.84236C25.446 2.62072 25.4062 2.38744 25.4064 2.15248C25.4064 1.0058 26.3361 0.0761719 27.4827 0.0761719C28.6296 0.0761719 29.5592 1.0058 29.5592 2.15248C29.5592 3.2993 28.6296 4.22892 27.4827 4.22892C27.1381 4.22945 26.7988 4.14379 26.4958 3.97973L21.1371 8.55817C21.215 8.77981 21.2548 9.01309 21.2546 9.24805C21.2546 10.3947 20.3249 11.3244 19.1781 11.3244C18.0534 11.3244 17.1376 10.43 17.1029 9.31367L12.4547 7.6863C12.0738 8.13336 11.5069 8.41692 10.8736 8.41692C10.5371 8.41739 10.2056 8.33572 9.90788 8.17898L4.02675 13.3262C4.11035 13.5549 4.15298 13.7966 4.15269 14.04C4.15269 15.1869 3.22306 16.1164 2.07625 16.1164C0.929625 16.1162 0 15.1867 0 14.0399C0 12.8931 0.929625 11.9636 2.07631 11.9636C2.41279 11.9631 2.7443 12.0448 3.04206 12.2015ZM25.9032 8.32936C25.3869 8.32936 24.9657 8.75048 24.9657 9.26686V28.3999C24.9657 28.9162 25.3869 29.3374 25.9032 29.3374H29.0625C29.5789 29.3374 30.0001 28.9162 30.0001 28.3999V9.26686C30.0001 8.75048 29.579 8.32936 29.0625 8.32936H25.9032ZM17.5986 15.975C17.0822 15.975 16.6611 16.3961 16.6611 16.9125V28.5959C16.6611 29.1123 17.0823 29.5334 17.5986 29.5334H20.7579C21.2743 29.5334 21.6954 29.1122 21.6954 28.5959V16.9125C21.6954 16.3961 21.2743 15.975 20.7579 15.975H17.5986ZM9.294 13.2302C8.77756 13.2302 8.35644 13.6513 8.35644 14.1677V28.7919C8.35644 29.3082 8.7775 29.7294 9.294 29.7294H12.4532C12.9696 29.7294 13.3907 29.3082 13.3907 28.7919V14.1677C13.3907 13.6513 12.9696 13.2302 12.4532 13.2302H9.294ZM0.989375 21.3H4.14856C4.66494 21.3 5.08612 21.7211 5.08612 22.2375V28.9878C5.08612 29.5042 4.66494 29.9253 4.14856 29.9253H0.989375C0.473 29.9253 0.0518125 29.5042 0.0518125 28.9878V22.2375C0.051875 21.721 0.473063 21.3 0.989375 21.3Z" fill="black"/>
</svg>
