<svg width="30" height="37" viewBox="0 0 30 37" fill="none" xmlns="http://www.w3.org/2000/svg">
<path d="M25.905 10.7164L28.0605 8.56087L25.9395 6.43912L23.6336 8.745C21.5271 7.25218 19.069 6.33214 16.5 6.075V3H19.5V0H10.5V3H13.5V6.075C10.931 6.33214 8.47288 7.25218 6.36638 8.745L4.06051 6.43912L1.93951 8.56087L4.09501 10.7164C2.08298 12.8467 0.738969 15.5196 0.228956 18.4052C-0.281056 21.2907 0.065264 24.2624 1.22515 26.9534C2.38503 29.6443 4.30768 31.9366 6.75566 33.5471C9.20364 35.1577 12.0697 36.0159 15 36.0159C17.9303 36.0159 20.7964 35.1577 23.2443 33.5471C25.6923 31.9366 27.615 29.6443 28.7749 26.9534C29.9347 24.2624 30.2811 21.2907 29.771 18.4052C29.261 15.5196 27.917 12.8467 25.905 10.7164ZM15 33C12.6266 33 10.3065 32.2962 8.33316 30.9776C6.35977 29.659 4.8217 27.7849 3.91345 25.5922C3.0052 23.3995 2.76756 20.9867 3.23058 18.6589C3.69361 16.3311 4.83649 14.1929 6.51472 12.5147C8.19295 10.8365 10.3311 9.69359 12.6589 9.23057C14.9867 8.76755 17.3995 9.00519 19.5922 9.91344C21.7849 10.8217 23.6591 12.3598 24.9776 14.3331C26.2962 16.3065 27 18.6266 27 21C26.9964 24.1815 25.731 27.2317 23.4813 29.4813C21.2317 31.731 18.1815 32.9964 15 33Z" fill="black"/>
<path d="M15 12V21H6C6 22.78 6.52784 24.5201 7.51677 26.0001C8.5057 27.4802 9.91131 28.6337 11.5558 29.3149C13.2004 29.9961 15.01 30.1743 16.7558 29.8271C18.5016 29.4798 20.1053 28.6226 21.364 27.364C22.6226 26.1053 23.4798 24.5016 23.8271 22.7558C24.1743 21.01 23.9961 19.2004 23.3149 17.5558C22.6337 15.9113 21.4802 14.5057 20.0001 13.5168C18.5201 12.5278 16.78 12 15 12Z" fill="black"/>
</svg>
