<svg width="48" height="48" viewBox="0 0 48 48" fill="none" xmlns="http://www.w3.org/2000/svg">
<g clip-path="url(#clip0_1687_242)">
<path d="M23.3546 22.1806C22.8906 22.7141 22.0267 22.6591 21.6763 22.0521L18.5672 16.667L14.2678 19.1493C13.4888 19.599 13.5918 20.7303 14.4352 20.9922C14.9159 21.141 15.3186 21.4608 15.566 21.8903C16.1214 22.8524 15.7636 24.1033 14.7685 24.6778C13.7734 25.2523 12.5113 24.9368 11.9558 23.9747C11.7074 23.5443 11.6318 23.0369 11.7434 22.5463C11.9383 21.685 11.0101 21.0301 10.2311 21.4799L6.77402 23.4758C5.28098 24.3378 4.74441 26.2134 5.57786 27.657L11.6237 38.1286C12.4571 39.5722 14.3497 40.0453 15.8427 39.1833L17.708 38.1064C18.8194 40.0314 21.3423 40.6621 23.3334 39.5126C25.3245 38.363 26.0397 35.8628 24.9283 33.9377L27.6359 32.3745L24.5269 26.9895C24.1811 26.3906 24.5881 25.607 25.2547 25.4718C26.5988 25.2105 27.381 23.5977 26.7117 22.4365C26.0407 21.2741 24.2541 21.1454 23.3546 22.1806Z" fill="black"/>
<path d="M32.1639 8.81651L30.2987 9.89341C29.1872 7.96832 26.6643 7.33766 24.6732 8.4872C22.6822 9.63674 21.9669 12.137 23.0784 14.0621L20.3707 15.6253L22.8898 19.9885C24.8809 18.8389 27.4038 19.4696 28.5152 21.3947C29.6267 23.3198 28.9114 25.82 26.9203 26.9696L29.4394 31.3327L41.2326 24.5239C42.7257 23.6619 43.2622 21.7864 42.4288 20.3428L36.383 9.87117C35.5495 8.4276 33.657 7.9545 32.1639 8.81651Z" fill="black"/>
</g>
<defs>
<clipPath id="clip0_1687_242">
<rect width="35.5725" height="34.3939" fill="white" transform="translate(0 18) rotate(-30)"/>
</clipPath>
</defs>
</svg>
