<svg width="40" height="40" viewBox="0 0 40 40" fill="none" xmlns="http://www.w3.org/2000/svg">
<g clip-path="url(#clip0_1687_263)">
<path fill-rule="evenodd" clip-rule="evenodd" d="M14.1402 3.86773C14.319 3.8676 14.4939 3.9205 14.6427 4.01977C14.7914 4.11903 14.9074 4.26019 14.976 4.42539C15.0445 4.59059 15.0625 4.7724 15.0277 4.94783C14.9929 5.12327 14.9068 5.28443 14.7804 5.41095C14.654 5.53747 14.4929 5.62365 14.3175 5.65859C14.1421 5.69353 13.9603 5.67567 13.795 5.60726C13.6298 5.53885 13.4885 5.42296 13.3891 5.27426C13.2898 5.12556 13.2367 4.95073 13.2367 4.77188C13.2373 4.53237 13.3326 4.30283 13.5019 4.13341C13.6712 3.964 13.9007 3.86848 14.1402 3.86773ZM14.1402 6.98195C14.5774 6.98225 15.0048 6.85287 15.3685 6.61019C15.7321 6.36751 16.0156 6.02243 16.1831 5.6186C16.3506 5.21477 16.3946 4.77033 16.3095 4.3415C16.2244 3.91267 16.014 3.51872 15.705 3.20948C15.3959 2.90024 15.0021 2.6896 14.5733 2.60421C14.1445 2.51882 13.7001 2.56251 13.2961 2.72976C12.8922 2.89701 12.5469 3.1803 12.304 3.5438C12.0611 3.9073 11.9315 4.33468 11.9315 4.77188C11.9322 5.35755 12.1651 5.91905 12.5791 6.33332C12.9931 6.74759 13.5545 6.98084 14.1402 6.98195ZM9.85797 6.08352L10.5436 6.25648L10.1802 6.87047C10.1062 6.99483 10.0759 7.14032 10.094 7.28387C10.112 7.42742 10.1775 7.56083 10.28 7.66297L11.2434 8.62852C11.346 8.73105 11.4797 8.79658 11.6235 8.81476C11.7674 8.83295 11.9132 8.80278 12.038 8.72898L12.6466 8.36617L12.8223 9.0582C12.8582 9.19827 12.9401 9.32224 13.0548 9.41028C13.1695 9.49832 13.3105 9.54534 13.4551 9.54383H14.8175C14.962 9.54529 15.1028 9.49823 15.2175 9.41019C15.3321 9.32215 15.4138 9.19821 15.4497 9.0582L15.6245 8.36617L16.2366 8.73453C16.3613 8.80823 16.5071 8.83835 16.6509 8.82015C16.7947 8.80194 16.9283 8.73645 17.0308 8.63398L17.9942 7.66852C18.0967 7.56632 18.162 7.43284 18.18 7.28925C18.1979 7.14567 18.1674 7.00021 18.0933 6.87594L17.7322 6.26758L18.4218 6.08898C18.5629 6.05488 18.6883 5.97397 18.7775 5.85944C18.8667 5.74491 18.9145 5.60353 18.913 5.45836V4.09656C18.9121 3.95135 18.8636 3.81045 18.7748 3.69551C18.6861 3.58056 18.5621 3.49794 18.4218 3.46031L17.7362 3.28727L18.0996 2.67336C18.1735 2.54898 18.2038 2.4035 18.1857 2.25995C18.1676 2.1164 18.1022 1.98299 17.9997 1.88086L17.0364 0.920859C16.9339 0.818326 16.8001 0.752802 16.6563 0.7346C16.5124 0.716398 16.3666 0.74655 16.2417 0.820312L15.6333 1.18305L15.4576 0.491016C15.4209 0.351003 15.3391 0.226994 15.2248 0.138217C15.1105 0.0494395 14.9701 0.000855992 14.8254 0L13.4628 0C13.318 0.000821606 13.1776 0.0494099 13.0633 0.138223C12.949 0.227035 12.8671 0.351105 12.8305 0.491172L12.6558 1.17766L12.0438 0.814844C11.9191 0.741063 11.7733 0.71089 11.6295 0.72908C11.4857 0.74727 11.352 0.812788 11.2495 0.915312L10.2857 1.875C10.1832 1.97716 10.1178 2.1106 10.0997 2.25417C10.0817 2.39775 10.1121 2.54324 10.1861 2.66758L10.5473 3.28148L9.85773 3.45445C9.71706 3.49135 9.59256 3.57378 9.50366 3.68888C9.41476 3.80398 9.36647 3.94527 9.36633 4.0907V5.44695C9.36473 5.59282 9.41236 5.73497 9.50153 5.85042C9.5907 5.96587 9.7162 6.04788 9.85773 6.0832L9.85797 6.08352ZM10.3036 14.6562C10.0019 14.6566 9.70702 14.7463 9.45628 14.9142C9.20553 15.082 9.01015 15.3203 8.8948 15.5991C8.77944 15.8779 8.7493 16.1847 8.80817 16.4806C8.86704 16.7765 9.01229 17.0483 9.22557 17.2618C9.43885 17.4752 9.71059 17.6206 10.0065 17.6797C10.3024 17.7387 10.6091 17.7088 10.888 17.5936C11.1669 17.4785 11.4053 17.2832 11.5733 17.0326C11.7413 16.782 11.8313 16.4872 11.8318 16.1855C11.832 15.9847 11.7927 15.7858 11.716 15.6002C11.6393 15.4146 11.5268 15.246 11.3848 15.104C11.2429 14.9619 11.0743 14.8493 10.8888 14.7724C10.7033 14.6956 10.5044 14.6561 10.3036 14.6562ZM10.3036 19.0151C9.74332 19.0149 9.1957 18.8485 8.72999 18.537C8.26428 18.2255 7.90142 17.7829 7.68729 17.2652C7.47316 16.7474 7.41739 16.1778 7.52703 15.6284C7.63667 15.0789 7.9068 14.5744 8.30325 14.1785C8.69969 13.7826 9.20465 13.5131 9.75424 13.4042C10.3038 13.2954 10.8734 13.3519 11.3908 13.5668C11.9083 13.7816 12.3504 14.1451 12.6612 14.6112C12.972 15.0773 13.1377 15.6252 13.1371 16.1855C13.1352 16.936 12.8359 17.6552 12.3048 18.1856C11.7738 18.7159 11.0541 19.0142 10.3036 19.0151ZM4.36516 17.7651C4.22486 17.7295 4.10041 17.6481 4.01146 17.534C3.9225 17.4198 3.87411 17.2792 3.87391 17.1345V15.2204C3.87345 15.0761 3.92171 14.9359 4.01086 14.8225C4.10002 14.709 4.22486 14.629 4.36516 14.5954L5.4768 14.3047C5.50578 14.2321 5.53648 14.154 5.56898 14.087L4.98625 13.0989C4.91228 12.9746 4.88193 12.8291 4.90001 12.6855C4.9181 12.5419 4.98359 12.4085 5.08609 12.3064L6.43703 10.9558C6.53955 10.8532 6.67327 10.7877 6.81713 10.7695C6.961 10.7513 7.10683 10.7815 7.23164 10.8553L8.21203 11.4412C8.28657 11.4047 8.3634 11.373 8.44203 11.3463L8.72242 10.2469C8.7571 10.1058 8.83838 9.98052 8.95312 9.89137C9.06785 9.80223 9.20932 9.75443 9.35461 9.7557H11.2649C11.4102 9.75439 11.5518 9.80217 11.6665 9.89132C11.7813 9.98046 11.8626 10.1057 11.8973 10.2469L12.1775 11.3463C12.2582 11.3729 12.3371 11.4046 12.4138 11.4412L13.3846 10.8608C13.5097 10.7865 13.6562 10.7566 13.8004 10.7758C13.9445 10.7951 14.078 10.8623 14.1793 10.9668L15.5298 12.3119C15.6323 12.4152 15.6976 12.5496 15.7157 12.694C15.7337 12.8384 15.7034 12.9847 15.6295 13.11L15.0509 14.0866C15.0855 14.1591 15.1183 14.2428 15.149 14.3209L16.2421 14.6055C16.3824 14.6392 16.5073 14.7192 16.5965 14.8326C16.6857 14.946 16.7341 15.0862 16.7337 15.2305V17.1446C16.7334 17.2894 16.6849 17.4299 16.5959 17.5441C16.5069 17.6583 16.3824 17.7396 16.2421 17.7752L15.14 18.0599C15.1093 18.1324 15.077 18.2105 15.043 18.2887L15.6212 19.2652C15.6951 19.3896 15.7254 19.5351 15.7073 19.6786C15.6893 19.8221 15.6239 19.9555 15.5215 20.0577L14.1706 21.4091C14.0681 21.5117 13.9343 21.5772 13.7904 21.5954C13.6465 21.6136 13.5006 21.5834 13.3758 21.5096L12.3914 20.9292C12.3171 20.9571 12.2419 20.985 12.1663 21.0129L11.885 22.1235C11.8491 22.2635 11.7673 22.3874 11.6527 22.4755C11.5381 22.5635 11.3973 22.6106 11.2528 22.6091H9.34258C9.19805 22.6106 9.0572 22.5636 8.94257 22.4755C8.82795 22.3875 8.74616 22.2635 8.71031 22.1235L8.42586 21.0073C8.35104 20.9807 8.27811 20.949 8.20758 20.9124L7.22266 21.4984C7.09832 21.5736 6.95224 21.6046 6.80806 21.5865C6.66389 21.5683 6.53005 21.5021 6.4282 21.3984L5.07766 20.053C4.97516 19.9497 4.90978 19.8153 4.89176 19.6709C4.87374 19.5265 4.90408 19.3802 4.97805 19.2548L5.56555 18.2614C5.5343 18.1945 5.50391 18.1163 5.47555 18.0494L4.36516 17.7647V17.7651ZM27.1152 9.56086C26.5905 9.56035 26.0775 9.71554 25.6411 10.0068C25.2046 10.298 24.8645 10.7122 24.6636 11.1969C24.4627 11.6816 24.4101 12.215 24.5126 12.7295C24.615 13.2441 24.8679 13.7167 25.2391 14.0875C25.6103 14.4583 26.0832 14.7106 26.5978 14.8124C27.1125 14.9143 27.6459 14.8612 28.1303 14.6597C28.6148 14.4583 29.0286 14.1177 29.3193 13.6809C29.6101 13.2442 29.7647 12.731 29.7636 12.2063C29.7621 11.5047 29.4824 10.8322 28.986 10.3363C28.4896 9.84046 27.8168 9.5616 27.1152 9.56086ZM27.1152 16.1633C26.334 16.1629 25.5704 15.931 24.9209 15.4969C24.2715 15.0627 23.7653 14.4458 23.4663 13.7241C23.1673 13.0024 23.089 12.2082 23.2412 11.442C23.3934 10.6757 23.7693 9.97182 24.3215 9.41916C24.8736 8.8665 25.5771 8.4899 26.3432 8.33695C27.1093 8.18399 27.9035 8.26155 28.6256 8.55983C29.3476 8.8581 29.965 9.3637 30.3998 10.0127C30.8345 10.6618 31.0672 11.4251 31.0683 12.2063C31.0676 13.2549 30.651 14.2604 29.9099 15.0022C29.1688 15.7441 28.1637 16.1616 27.1152 16.1633ZM20.3269 9.01352L19.3552 7.37828C19.2812 7.25297 19.2508 7.10665 19.2689 6.96222C19.2869 6.8178 19.3523 6.68343 19.4548 6.58016L21.4995 4.53742C21.6013 4.4337 21.7351 4.36736 21.8793 4.34914C22.0235 4.33092 22.1696 4.36189 22.294 4.43703L23.9291 5.40812C24.1399 5.3056 24.3569 5.21614 24.5788 5.14023L25.0466 3.3043C25.0821 3.16371 25.1637 3.03903 25.2782 2.95006C25.3927 2.86108 25.5336 2.81292 25.6787 2.8132H28.5693C28.7144 2.81287 28.8555 2.861 28.9701 2.94997C29.0848 3.03894 29.1664 3.16364 29.2021 3.3043L29.6695 5.14023C29.893 5.22398 30.113 5.30766 30.3284 5.41367L31.9491 4.45375C32.0733 4.37906 32.2188 4.34785 32.3628 4.36502C32.5067 4.38219 32.6408 4.44678 32.744 4.54859L34.7879 6.59133C34.8903 6.69466 34.9556 6.82899 34.9737 6.97335C34.9918 7.11771 34.9615 7.26399 34.8877 7.38937L33.9222 9.01352C34.0237 9.23117 34.1147 9.45445 34.1951 9.67211L36.0199 10.1409C36.1614 10.1762 36.2869 10.2582 36.376 10.3736C36.4652 10.4891 36.5128 10.6312 36.5112 10.777V13.6677C36.5117 13.8119 36.4634 13.9522 36.3743 14.0656C36.2851 14.179 36.1602 14.259 36.0199 14.2927L34.1825 14.767C34.1018 14.9902 34.0106 15.2023 33.9095 15.42L34.8745 17.0448C34.9486 17.1691 34.9791 17.3146 34.961 17.4582C34.9429 17.6018 34.8774 17.7352 34.7748 17.8373L32.7306 19.8855C32.6275 19.9874 32.4935 20.052 32.3496 20.0691C32.2057 20.0863 32.0602 20.0551 31.936 19.9804L30.2964 19.0093C30.0865 19.1077 29.8718 19.1952 29.653 19.2716L29.1837 21.1134C29.1483 21.2546 29.0669 21.3801 28.9523 21.4701C28.8377 21.56 28.6965 21.6092 28.5509 21.6101H25.6602C25.5146 21.6092 25.3734 21.56 25.2588 21.4701C25.1442 21.3801 25.0628 21.2546 25.0274 21.1134L24.5541 19.2605C24.3403 19.1767 24.1291 19.093 23.9221 18.9926L22.2803 19.9691C22.1558 20.0425 22.0106 20.0729 21.867 20.0558C21.7235 20.0386 21.5896 19.9749 21.4858 19.8743L19.4417 17.826C19.3391 17.7228 19.2737 17.5884 19.2557 17.444C19.2377 17.2995 19.2681 17.1532 19.3421 17.0279L20.3208 15.3873C20.2242 15.1752 20.1372 14.9631 20.0596 14.7509L18.2093 14.2766C18.0682 14.2424 17.9428 14.1615 17.8536 14.047C17.7644 13.9325 17.7167 13.7911 17.7181 13.6459V10.7553C17.7175 10.6104 17.7656 10.4694 17.8546 10.355C17.9437 10.2407 18.0686 10.1595 18.2093 10.1246L20.0616 9.65023C20.1397 9.43258 20.228 9.22049 20.3264 9.01398L20.3269 9.01352ZM39.0792 22.5703C39.3115 22.3423 39.4453 22.0325 39.4521 21.7071C39.4589 21.3817 39.3381 21.0665 39.1156 20.829L39.0289 20.7341C38.8186 20.5036 38.5296 20.3602 38.2188 20.3323C37.908 20.3044 37.598 20.394 37.35 20.5834L29.3862 26.5608C29.7154 27.1087 29.8195 27.7628 29.6766 28.3858L29.6635 28.436C29.5174 29.0707 29.1286 29.6229 28.5804 29.9744C28.0322 30.3259 27.3681 30.4489 26.7304 30.3169L18.8277 28.6423C18.659 28.6055 18.5118 28.5036 18.4181 28.3586C18.3244 28.2137 18.2918 28.0375 18.3276 27.8687C18.3633 27.6999 18.4645 27.552 18.6089 27.4575C18.7533 27.363 18.9292 27.3294 19.0983 27.3642L27.001 29.0385C27.3026 29.1012 27.6168 29.0435 27.8764 28.8777C28.1361 28.7119 28.3206 28.4512 28.3905 28.1512L28.4037 28.0953C28.4378 27.9446 28.4419 27.7887 28.4157 27.6364C28.3895 27.4842 28.3335 27.3386 28.251 27.208C28.1699 27.0767 28.0633 26.9632 27.9374 26.874C27.8115 26.7848 27.669 26.7219 27.5183 26.6889L16.4245 24.1663C14.9434 23.8258 13.5616 24.0993 12.3174 24.9699L6.91453 28.7595L11.1355 35.1111L13.9683 32.9565C14.0356 32.902 14.1137 32.8624 14.1974 32.8403C14.2811 32.8182 14.3686 32.814 14.454 32.8281L25.8975 34.4188C26.242 34.4716 26.5942 34.4415 26.9248 34.3308C27.2553 34.2202 27.5547 34.0322 27.7979 33.7825L39.0792 22.5703ZM6.31524 40L0.546875 31.3101L5.05664 28.3186L10.8251 37.0028L6.31524 40Z" fill="black"/>
</g>
<defs>
<clipPath id="clip0_1687_263">
<rect width="40" height="40" fill="white"/>
</clipPath>
</defs>
</svg>
