<svg width="44" height="44" viewBox="0 0 44 44" fill="none" xmlns="http://www.w3.org/2000/svg">
<path d="M32.6022 0H11.4016C10.0818 0 9 1.08209 9 2.39985V41.6001C9 42.9178 10.0821 43.9999 11.4016 43.9999H32.6021C33.9198 43.9999 35.0019 42.9199 35.0019 41.6001V2.39985C35.002 1.08209 33.922 0 32.6022 0ZM22.0002 41.5966C20.7862 41.5966 19.8003 40.6111 19.8003 39.3967C19.8003 38.1824 20.7859 37.1968 22.0002 37.1968C23.2142 37.1968 24.2001 38.1824 24.2001 39.3967C24.2001 40.6111 23.2141 41.5966 22.0002 41.5966ZM32.2508 34.7991H11.753V5.39819H32.2509V34.7991H32.2508ZM20.4481 14.1328H13.998V8.88181H20.4481V14.1328ZM29.1487 14.1328H22.6969V8.88181H29.1487V14.1328ZM20.4481 22.5995H13.998V17.3506H20.4481V22.5995ZM29.1487 22.5995H22.6969V17.3506H29.1487V22.5995ZM20.4481 31.2304H13.998V25.9815H20.4481V31.2304ZM29.1487 31.2304H22.6969V25.9815H29.1487V31.2304Z" fill="#010002"/>
</svg>
