<svg width="50" height="54" viewBox="0 0 50 54" fill="none" xmlns="http://www.w3.org/2000/svg">
<path fill-rule="evenodd" clip-rule="evenodd" d="M18.3038 33.4814C18.3038 29.7893 15.3001 26.7851 11.6076 26.7851C7.91511 26.7851 4.91094 29.7893 4.91094 33.4814C4.91094 37.1738 7.91521 40.178 11.6076 40.178C15.3 40.178 18.3038 37.1738 18.3038 33.4814ZM11.6072 40.178C5.19675 40.178 0 45.3748 0 51.7852C0 52.6484 0.699673 53.3481 1.56293 53.3481H21.6518C22.5152 53.3481 23.2148 52.6484 23.2148 51.7852C23.2148 45.3748 18.0181 40.178 11.6072 40.178ZM38.3928 26.7851C34.7003 26.7851 31.6962 29.7893 31.6962 33.4814C31.6962 37.1738 34.7003 40.178 38.3928 40.178C42.0853 40.178 45.089 37.1738 45.089 33.4814C45.089 29.7893 42.0852 26.7851 38.3928 26.7851ZM38.3928 40.178C31.9823 40.178 26.7851 45.3748 26.7851 51.7852C26.7851 52.6484 27.4853 53.3481 28.3481 53.3481H48.4371C49.3003 53.3481 50 52.6484 50 51.7852C50 45.3748 44.8032 40.178 38.3928 40.178ZM38.3928 23.2148C41.1007 23.2148 43.3039 21.0117 43.3039 18.3038V4.91105C43.3039 2.17456 41.0836 0 38.3928 0H11.6076C8.86933 0 6.69623 2.22187 6.69623 4.91105V18.3038C6.69623 21.0117 8.89934 23.2149 11.6076 23.2149H19.4455L23.6024 31.5281C23.7321 31.7878 23.9316 32.0062 24.1785 32.1589C24.4254 32.3115 24.71 32.3924 25.0003 32.3924C25.2905 32.3924 25.5751 32.3115 25.822 32.1589C26.0689 32.0062 26.2684 31.7878 26.3981 31.5281L30.5545 23.2149L38.3928 23.2148ZM28.3481 6.69633C29.211 6.69633 29.911 7.39674 29.911 8.25927C29.911 9.12201 29.211 9.8222 28.3481 9.8222C27.4856 9.8222 26.7851 9.12201 26.7851 8.25927C26.7851 7.39674 27.4856 6.69633 28.3481 6.69633ZM21.6519 6.69633C22.5148 6.69633 23.2149 7.39674 23.2149 8.25927C23.2149 9.12201 22.5148 9.8222 21.6519 9.8222C20.7891 9.8222 20.089 9.12201 20.089 8.25927C20.089 7.39674 20.7891 6.69633 21.6519 6.69633ZM25.0001 17.3555C22.5445 17.3555 20.1992 16.1829 18.7271 14.2191C18.2094 13.5283 18.3499 12.5488 19.0405 12.031C19.7313 11.5133 20.7109 11.6533 21.2282 12.344C22.1134 13.5248 23.5234 14.2297 25.0001 14.2297C26.4767 14.2297 27.8866 13.5248 28.7718 12.344C29.2896 11.6532 30.2691 11.5129 30.9599 12.031C31.6506 12.5488 31.7906 13.5283 31.2729 14.2191C29.8007 16.1829 27.4555 17.3555 25.0001 17.3555Z" fill="#011826"/>
</svg>
