<svg width="40" height="40" viewBox="0 0 40 40" fill="none" xmlns="http://www.w3.org/2000/svg">
<g clip-path="url(#clip0_1558_180)">
<path d="M38.709 2.20673L37.7993 1.2906C36.1606 -0.341658 33.5025 -0.341658 31.8702 1.2906L25.6767 7.48415H25.6702L23.2251 9.92931H23.2315L10.6057 22.5551C10.3025 22.8583 10.1348 23.2648 10.1348 23.6971V28.2583C10.1348 29.1487 10.8573 29.8712 11.7477 29.8712H16.309C16.7348 29.8712 17.1477 29.7035 17.4509 29.4003L30.0702 16.7745L32.5154 14.3293L38.709 8.13576C40.3477 6.49705 40.3477 3.83899 38.709 2.20673ZM15.638 26.6454H13.3541V24.3616L30.2638 7.45189L32.5477 9.73576L15.638 26.6454ZM36.4315 5.85189L34.838 7.44544L32.5541 5.16157L34.1477 3.56802C34.5219 3.19383 35.1412 3.19383 35.5154 3.56802L36.4251 4.4777C36.8057 4.86479 36.8057 5.4777 36.4315 5.85189Z" fill="#061A26"/>
<path d="M27.2587 32.541C24.6135 35.1862 21.0974 36.6442 17.3555 36.6442V39.9346C21.9748 39.9346 26.3168 38.1346 29.5813 34.87L27.62 32.9023L27.2587 32.541Z" fill="#061A26"/>
<path d="M31.3552 22.6387C31.3552 26.3806 29.8971 29.8967 27.252 32.5419L29.581 34.8709C32.8455 31.6064 34.6455 27.2645 34.6455 22.6451H31.3552V22.6387Z" fill="#061A26"/>
<path d="M17.3553 36.6442C13.6134 36.6442 10.0972 35.1862 7.45208 32.541L5.12305 34.87C8.39401 38.1346 12.736 39.9346 17.3553 39.9346V36.6442Z" fill="#061A26"/>
<path d="M31 19.4967C31.2323 20.5225 31.3548 21.5741 31.3548 22.6451H34.6452C34.6452 20.6516 34.3032 18.6967 33.6516 16.8516L31 19.4967Z" fill="#061A26"/>
<path d="M17.3555 8.63857C18.4264 8.63857 19.4845 8.76115 20.5103 8.99341L23.1619 6.3418C21.3103 5.68373 19.3555 5.3418 17.3619 5.3418V8.63857H17.3555Z" fill="#061A26"/>
<path d="M7.45149 12.7412C10.0966 10.096 13.6128 8.63798 17.3547 8.63798V5.34766C12.7354 5.34766 8.39342 7.14766 5.12891 10.4122L7.45149 12.7412Z" fill="#061A26"/>
<path d="M7.45155 32.5419C4.80639 29.8967 3.34832 26.3806 3.34832 22.6387H0.0644531C0.0644531 27.258 1.86445 31.6 5.12897 34.8645L7.45155 32.5419Z" fill="#061A26"/>
<path d="M7.45155 12.7411L5.12252 10.4121C1.86445 13.6766 0.0644531 18.025 0.0644531 22.6379H3.35478C3.35478 18.9024 4.80639 15.3863 7.45155 12.7411Z" fill="#061A26"/>
</g>
<defs>
<clipPath id="clip0_1558_180">
<rect width="40" height="40" fill="white"/>
</clipPath>
</defs>
</svg>
