<svg width="40" height="40" viewBox="0 0 40 40" fill="none" xmlns="http://www.w3.org/2000/svg">
<path d="M0 30.9094V36.364H5.45455C5.45455 33.2731 3.09091 30.9094 0 30.9094ZM0 23.6367V27.2731C5.09091 27.2731 9.09091 31.2731 9.09091 36.364H12.7273C12.7273 29.2731 7.09091 23.6367 0 23.6367ZM32.7273 10.9094H7.27273V13.8185C14.5455 16.1822 20.1818 21.8185 22.5455 29.0913H32.7273V10.9094ZM0 16.364V20.0004C9.09091 20.0004 16.3636 27.2731 16.3636 36.364H20C20 25.2731 11.0909 16.364 0 16.364ZM36.3636 3.63672H3.63636C1.63636 3.63672 0 5.27308 0 7.27308V12.7276H3.63636V7.27308H36.3636V32.7276H23.6364V36.364H36.3636C38.3636 36.364 40 34.7276 40 32.7276V7.27308C40 5.27308 38.3636 3.63672 36.3636 3.63672Z" fill="#061A26"/>
</svg>
