<svg width="47" height="40" viewBox="0 0 47 40" fill="none" xmlns="http://www.w3.org/2000/svg">
<path d="M35.7032 12.5491C37.6525 12.5491 39.2327 10.9689 39.2327 9.01965C39.2327 7.07041 37.6525 5.49023 35.7032 5.49023C33.754 5.49023 32.1738 7.07041 32.1738 9.01965C32.1738 10.9689 33.754 12.5491 35.7032 12.5491Z" fill="#061A26"/>
<path d="M20.4076 4.70588C21.7071 4.70588 22.7606 3.65243 22.7606 2.35294C22.7606 1.05345 21.7071 0 20.4076 0C19.1081 0 18.0547 1.05345 18.0547 2.35294C18.0547 3.65243 19.1081 4.70588 20.4076 4.70588Z" fill="#061A26"/>
<path d="M43.6163 22.6967C35.1253 24.3908 35.6351 24.3123 35.3104 24.3123C34.9088 24.3126 34.5139 24.2096 34.1637 24.0132C33.8134 23.8168 33.5196 23.5336 33.3104 23.1908L30.4633 18.5712L27.7653 22.6182L33.2241 25.3476C33.6788 25.5752 34.0475 25.9439 34.2751 26.3986L38.1967 34.2418C38.3531 34.5195 38.4516 34.8261 38.4859 35.1431C38.5203 35.46 38.4899 35.7806 38.3966 36.0854C38.3033 36.3903 38.1491 36.673 37.9432 36.9163C37.7373 37.1597 37.4841 37.3588 37.199 37.5013C36.9139 37.6439 36.6027 37.727 36.2845 37.7457C35.9662 37.7644 35.6475 37.7182 35.3477 37.6099C35.0478 37.5016 34.7731 37.3336 34.5402 37.1159C34.3073 36.8983 34.121 36.6356 33.9927 36.3437L30.4163 29.2065L24.33 26.1555L17.5378 29.5516C17.178 29.7337 16.7771 29.8193 16.3743 29.8001C15.9715 29.7808 15.5806 29.6574 15.2398 29.4418L8.96528 25.5202C8.68768 25.3643 8.44461 25.1536 8.2508 24.901C8.05699 24.6484 7.91646 24.359 7.83774 24.0505C7.75901 23.742 7.74372 23.4207 7.79279 23.1061C7.84186 22.7915 7.95427 22.4902 8.12321 22.2203C8.29216 21.9504 8.51412 21.7176 8.77566 21.536C9.0372 21.3544 9.33287 21.2278 9.64478 21.1638C9.95668 21.0998 10.2783 21.0998 10.5902 21.1638C10.9022 21.2277 11.1978 21.3543 11.4594 21.5359L16.6123 24.7516C20.2986 22.9116 18.8869 23.6167 22.7221 21.7006C22.77 21.6222 22.4869 22.0488 27.7496 14.1633C27.697 14.0849 28.0908 14.1163 22.9496 14.1163L19.7182 17.3476C19.3627 17.7026 18.9029 17.9344 18.4061 18.0092C17.9094 18.084 17.4017 17.9978 16.9574 17.7633H16.9496V17.7555C16.6264 17.5823 16.3481 17.336 16.137 17.0361C15.9259 16.7363 15.7878 16.3913 15.7337 16.0286C15.6796 15.666 15.711 15.2957 15.8255 14.9473C15.9399 14.5989 16.1341 14.2821 16.3927 14.0222L20.3143 10.1006C20.7579 9.66334 21.3542 9.41582 21.977 9.41039H29.0359C29.4384 9.4108 29.8341 9.51405 30.1855 9.71034C30.5369 9.90663 30.8323 10.1894 31.0437 10.532L36.4555 19.332L42.6908 18.0849C42.9976 18.0136 43.3156 18.0046 43.626 18.0584C43.9364 18.1123 44.2327 18.228 44.4976 18.3985C44.7624 18.5691 44.9903 18.7911 45.1677 19.0514C45.3452 19.3117 45.4685 19.6049 45.5305 19.9138C45.5925 20.2226 45.5918 20.5408 45.5286 20.8493C45.4653 21.1579 45.3407 21.4507 45.1622 21.7102C44.9836 21.9697 44.7548 22.1908 44.4893 22.3602C44.2237 22.5297 43.9269 22.6441 43.6163 22.6967ZM20.0947 8.32804C19.7675 8.50449 19.4687 8.72924 19.2084 8.9947L17.5143 10.6888L16.4947 9.03392L14.5339 11.9829L15.6633 12.5398L15.2869 12.9163C14.5703 13.6367 14.16 14.6062 14.1418 15.6222L12.0241 14.5633L7.07509 17.0418C6.81182 17.1728 6.51943 17.2344 6.22568 17.2206C5.93193 17.2069 5.64655 17.1183 5.39665 16.9633L0.824106 14.1006C0.630069 13.9825 0.461398 13.8271 0.327872 13.6434C0.194345 13.4597 0.0986203 13.2513 0.0462467 13.0302C-0.00612688 12.8092 -0.0141071 12.58 0.0227688 12.3559C0.0596446 12.1318 0.140643 11.9172 0.261067 11.7247C0.381492 11.5321 0.538947 11.3653 0.724303 11.2341C0.909659 11.1028 1.11923 11.0096 1.34086 10.96C1.56249 10.9103 1.79178 10.9051 2.01543 10.9448C2.23907 10.9844 2.45263 11.068 2.64371 11.1908L6.40058 13.5437L10.8476 11.3163L14.5182 5.81823L14.5025 5.77902H11.0202L8.66724 8.1398C8.34586 8.46222 7.90957 8.64377 7.45433 8.6445C6.99909 8.64524 6.56221 8.4651 6.23979 8.14372C5.91737 7.82234 5.73583 7.38604 5.73509 6.93081C5.73435 6.47557 5.91449 6.03869 6.23587 5.71627L9.09862 2.85353C9.42168 2.53227 9.8587 2.35183 10.3143 2.35156H15.4594C15.7521 2.35109 16.04 2.42587 16.2954 2.56871C16.5509 2.71155 16.7654 2.91766 16.9182 3.16725L20.0947 8.32804Z" fill="#061A26"/>
<path d="M21.9367 20.0481L21.6465 20.4873L18.9799 21.8206L17.874 19.601C17.9336 19.6073 17.994 19.6104 18.0544 19.6088C18.5694 19.6111 19.0797 19.5102 19.5552 19.3122C20.0307 19.1142 20.4618 18.8231 20.823 18.4559L21.0348 18.2441L21.9367 20.0481ZM45.5054 40.001H19.623C19.415 40.001 19.2155 39.9184 19.0684 39.7713C18.9213 39.6242 18.8387 39.4247 18.8387 39.2167C18.8387 39.0087 18.9213 38.8092 19.0684 38.6621C19.2155 38.515 19.415 38.4324 19.623 38.4324H45.5054C45.7134 38.4324 45.9129 38.515 46.06 38.6621C46.207 38.8092 46.2897 39.0087 46.2897 39.2167C46.2897 39.4247 46.207 39.6242 46.06 39.7713C45.9129 39.9184 45.7134 40.001 45.5054 40.001ZM16.4858 40.001H14.9171C14.7091 40.001 14.5096 39.9184 14.3625 39.7713C14.2154 39.6242 14.1328 39.4247 14.1328 39.2167C14.1328 39.0087 14.2154 38.8092 14.3625 38.6621C14.5096 38.515 14.7091 38.4324 14.9171 38.4324H16.4858C16.6938 38.4324 16.8933 38.515 17.0403 38.6621C17.1874 38.8092 17.2701 39.0087 17.2701 39.2167C17.2701 39.4247 17.1874 39.6242 17.0403 39.7713C16.8933 39.9184 16.6938 40.001 16.4858 40.001Z" fill="#061A26"/>
</svg>
