<svg width="40" height="40" viewBox="0 0 40 40" fill="none" xmlns="http://www.w3.org/2000/svg">
<path d="M39.8386 19.265L34.1429 5.92166C34.0138 5.61695 33.8074 5.36599 33.5519 5.20288C33.2963 5.03977 33.0038 4.97242 32.7143 5.00999L23.8571 6.15999C23.3626 4.98057 22.4903 4.0754 21.4286 3.64V1.66666C21.4286 1.22464 21.2781 0.800715 21.0102 0.488155C20.7422 0.175595 20.3789 0 20 0C19.6211 0 19.2578 0.175595 18.9898 0.488155C18.7219 0.800715 18.5714 1.22464 18.5714 1.66666V3.64C17.8976 3.91938 17.2945 4.39102 16.8169 5.01195C16.3393 5.63287 16.0025 6.38335 15.8371 7.19499L6.98 8.34332C6.74266 8.37384 6.51567 8.47327 6.31977 8.63253C6.12386 8.79179 5.9653 9.0058 5.85857 9.25499L0.158572 22.5883C0.0556323 22.8184 0.00126765 23.0738 0 23.3333C0 25.1014 0.602039 26.7971 1.67368 28.0473C2.74531 29.2976 4.19876 30 5.71429 30H8.57143C10.087 30 11.5404 29.2976 12.612 28.0473C13.6837 26.7971 14.2857 25.1014 14.2857 23.3333C14.2849 23.0865 14.236 22.8432 14.1429 22.6216C14.1429 22.6083 9.34286 11.3917 9.34286 11.3917L16.1643 10.5067C16.6538 11.6812 17.5177 12.5857 18.5714 13.0267V35H10C9.23425 35.0002 8.48253 35.2398 7.82304 35.6938C7.16355 36.1478 6.62037 36.7997 6.25 37.5816C6.1397 37.8363 6.08728 38.1197 6.09777 38.4048C6.10826 38.6898 6.1813 38.967 6.3099 39.2097C6.4385 39.4524 6.61835 39.6525 6.83223 39.7909C7.04612 39.9292 7.28687 40.0012 7.53143 40H32.4686C32.7135 40.0021 32.9548 39.9307 33.1693 39.7927C33.3837 39.6547 33.5642 39.4547 33.6933 39.2118C33.8224 38.969 33.8958 38.6915 33.9065 38.406C33.9172 38.1206 33.8648 37.8367 33.7543 37.5816C33.3836 36.7989 32.8397 36.1466 32.1794 35.6925C31.5191 35.2385 30.7665 34.9993 30 35H21.4286V13.0267C22.1024 12.7473 22.7055 12.2756 23.1831 11.6547C23.6607 11.0338 23.9975 10.2833 24.1629 9.47165L30.4043 8.66666L25.8586 19.3016C25.7667 19.5191 25.7175 19.7576 25.7143 20C25.7143 21.7681 26.3163 23.4638 27.388 24.714C28.4596 25.9643 29.913 26.6666 31.4286 26.6666H34.2857C35.8012 26.6666 37.2547 25.9643 38.3263 24.714C39.398 23.4638 40 21.7681 40 20C39.9965 19.7436 39.9412 19.4918 39.8386 19.265ZM10.5457 21.6666H3.74L7.14286 13.7267L10.5457 21.6666ZM20 9.99999C19.7175 9.99999 19.4413 9.90224 19.2063 9.7191C18.9714 9.53597 18.7883 9.27567 18.6802 8.97113C18.572 8.66659 18.5438 8.33147 18.5989 8.00817C18.654 7.68487 18.7901 7.3879 18.9898 7.15481C19.1896 6.92173 19.4442 6.76299 19.7213 6.69868C19.9984 6.63437 20.2857 6.66738 20.5467 6.79353C20.8077 6.91967 21.0308 7.13329 21.1878 7.40737C21.3448 7.68146 21.4286 8.00369 21.4286 8.33332C21.4286 8.77535 21.2781 9.19927 21.0102 9.51183C20.7422 9.82439 20.3789 9.99999 20 9.99999ZM32.8571 10.395L36.26 18.3333H29.4543L32.8571 10.395Z" fill="#061A26"/>
</svg>
