<svg width="40" height="40" viewBox="0 0 40 40" fill="none" xmlns="http://www.w3.org/2000/svg">
<g clip-path="url(#clip0_1558_198)">
<path d="M39.9367 0.858125C39.7972 0.366641 39.3645 0 38.8281 0H34.1406C33.4928 0 32.9687 0.524141 32.9687 1.17188C32.9687 1.81961 33.4928 2.34375 34.1406 2.34375H36.8813L31.2849 8.66234C23.7399 17.1973 12.6364 21.7086 1.27245 20.721C0.648776 20.6558 0.0604948 21.1422 0.00447916 21.7876C-0.0516146 22.4319 0.425651 22.9995 1.07104 23.0555C2.16737 23.1505 3.09245 23.1974 4.18542 23.1974C15.1363 23.1974 25.7335 18.479 33.0406 10.2141L37.6562 5.00469V5.85938C37.6562 6.50711 38.1803 7.03125 38.8281 7.03125C39.4758 7.03125 39.9999 6.50711 39.9999 5.85938V2.32828L39.9367 0.858125Z" fill="#061A26"/>
<path d="M38.8281 37.6564H37.5781V11.3095C37.5781 10.8174 37.2703 10.378 36.808 10.2086C36.3468 10.0427 35.8284 10.1777 35.5102 10.5542L34.7904 11.4091C33.6002 12.8212 32.3036 14.1637 30.9348 15.3962C30.8127 15.506 30.715 15.6403 30.6482 15.7903C30.5814 15.9404 30.5468 16.1028 30.5469 16.267V37.6564H28.2031V19.9235C28.203 19.7111 28.1452 19.5027 28.036 19.3205C27.9267 19.1384 27.7702 18.9892 27.5829 18.889C27.2018 18.6876 26.736 18.7082 26.3778 18.9508C24.9164 19.9318 23.3939 20.8186 21.8196 21.6058C21.6249 21.703 21.4611 21.8527 21.3467 22.0378C21.2323 22.223 21.1717 22.4364 21.1719 22.6541V37.6564H18.8281V24.6522C18.8281 24.4644 18.7829 24.2794 18.6965 24.1127C18.6101 23.946 18.4849 23.8025 18.3315 23.6943C18.0213 23.4757 17.6208 23.423 17.2626 23.549C15.7701 24.081 14.2482 24.5265 12.7044 24.8834C12.4464 24.9433 12.2162 25.0887 12.0514 25.2961C11.8866 25.5035 11.7969 25.7606 11.7969 26.0255V37.6564H9.45312V26.8334C9.45305 26.6684 9.41814 26.5052 9.3507 26.3545C9.28325 26.2039 9.18478 26.0691 9.06172 25.9591C8.81109 25.7371 8.47117 25.6238 8.14852 25.6696C6.63596 25.8418 5.11497 25.9292 3.59266 25.9316C2.94609 25.9328 2.42195 26.457 2.42195 27.1035V37.6564H1.17188C0.524141 37.6564 0 38.1805 0 38.8283C0 39.476 0.524141 40.0002 1.17188 40.0002H38.8281C39.4759 40.0002 40 39.476 40 38.8283C40 38.1805 39.4759 37.6564 38.8281 37.6564Z" fill="#061A26"/>
</g>
<defs>
<clipPath id="clip0_1558_198">
<rect width="40" height="40" fill="white"/>
</clipPath>
</defs>
</svg>
