<svg width="50" height="48" viewBox="0 0 50 48" fill="none" xmlns="http://www.w3.org/2000/svg">
<path d="M2.50605 17.3412C2.05786 16.8458 2.09627 16.0807 2.59173 15.6327L14.2887 5.05272C14.5107 4.85195 14.7992 4.74059 15.0985 4.74018C15.3978 4.73977 15.6867 4.85034 15.9092 5.0505L22.5512 11.0257L31.1577 2.41935H30.8341C30.166 2.41935 29.6244 1.87772 29.6244 1.20968C29.6244 0.541633 30.166 0 30.8341 0H34.0781C34.7462 0 35.2878 0.541633 35.2878 1.20968V4.45081C35.2878 5.11885 34.7462 5.66048 34.0781 5.66048C33.4101 5.66048 32.8684 5.11885 32.8684 4.45081V4.13014L23.4506 13.5479C22.9958 14.0027 22.2645 14.0222 21.7862 13.5918L15.1023 7.57893L4.21462 17.4268C3.99255 17.6283 3.70336 17.7397 3.40353 17.7394C3.23438 17.7396 3.06708 17.7043 2.91247 17.6357C2.75786 17.5671 2.61939 17.4668 2.50605 17.3412ZM46.2119 35.823H36.7086V26.3167C36.7086 26.1563 36.6448 26.0025 36.5314 25.889C36.418 25.7756 36.2641 25.7119 36.1037 25.7119C30.195 25.7119 25.3878 30.5191 25.3878 36.4278C25.3878 42.3366 30.195 47.1438 36.1037 47.1438C42.0125 47.1438 46.8167 42.3366 46.8167 36.4278C46.8167 36.2674 46.753 36.1136 46.6396 36.0001C46.5262 35.8867 46.3723 35.823 46.2119 35.823ZM39.287 22.5286C39.1266 22.5286 38.9727 22.5924 38.8593 22.7058C38.7459 22.8192 38.6822 22.9731 38.6822 23.1335V33.2446C38.6822 33.405 38.7459 33.5588 38.8593 33.6722C38.9727 33.7857 39.1266 33.8494 39.287 33.8494H49.3952C49.5556 33.8494 49.7094 33.7857 49.8228 33.6722C49.9363 33.5588 50 33.405 50 33.2446C50 27.3358 45.1942 22.5286 39.287 22.5286ZM29.0196 12.0703C28.8591 12.0703 28.7053 12.134 28.5919 12.2474C28.4784 12.3608 28.4147 12.5147 28.4147 12.6751V25.7849C30.2158 24.48 32.3594 23.6206 34.683 23.3696V12.6751C34.683 12.5147 34.6192 12.3608 34.5058 12.2474C34.3924 12.134 34.2385 12.0703 34.0781 12.0703H29.0196ZM26.1431 27.8745V19.8662C26.1431 19.7058 26.0794 19.552 25.966 19.4385C25.8526 19.3251 25.6987 19.2614 25.5383 19.2614H20.4798C20.3194 19.2614 20.1656 19.3251 20.0522 19.4385C19.9387 19.552 19.875 19.7058 19.875 19.8662V35.218H17.6034V16.1274C17.6034 15.967 17.5397 15.8132 17.4263 15.6997C17.3128 15.5863 17.159 15.5226 16.9986 15.5226H11.94C11.7796 15.5226 11.6258 15.5863 11.5123 15.6997C11.3989 15.8132 11.3352 15.967 11.3352 16.1274V35.218H9.06361V23.7324C9.06361 23.5719 8.99988 23.4181 8.88646 23.3047C8.77303 23.1912 8.61918 23.1275 8.45877 23.1275H3.40323C3.24281 23.1275 3.08897 23.1912 2.97554 23.3047C2.86211 23.4181 2.79839 23.5719 2.79839 23.7324V35.218H1.20968C0.541633 35.218 0 35.7597 0 36.4277C0 37.0958 0.541633 37.6374 1.20968 37.6374H23.0246C22.9874 37.2352 22.9687 36.8316 22.9683 36.4277C22.9683 33.1637 24.1655 30.1743 26.1431 27.8745Z" fill="#011826"/>
</svg>
