<svg width="40" height="31" viewBox="0 0 40 31" fill="none" xmlns="http://www.w3.org/2000/svg">
<path d="M2.35578 6.65492H6.71227C6.43328 5.92227 6.27922 5.12852 6.27922 4.29914C6.27922 3.46977 6.43336 2.67609 6.71227 1.94336H2.35578C1.05469 1.94336 0 2.99805 0 4.29914C0 5.60023 1.05469 6.65492 2.35578 6.65492ZM37.6442 6.65492C38.9453 6.65492 40 5.60023 40 4.29914C40 2.99805 38.9453 1.94336 37.6442 1.94336H19.1302C19.4091 2.67602 19.5633 3.46977 19.5633 4.29914C19.5633 5.12852 19.4091 5.92219 19.1302 6.65492H37.6442Z" fill="#011826"/>
<path d="M12.9214 8.59672C15.2953 8.59672 17.2198 6.67228 17.2198 4.29836C17.2198 1.92444 15.2953 0 12.9214 0C10.5475 0 8.62305 1.92444 8.62305 4.29836C8.62305 6.67228 10.5475 8.59672 12.9214 8.59672Z" fill="#011826"/>
<path d="M37.6442 12.8809H31.6302C31.9091 13.6135 32.0633 14.4073 32.0633 15.2366C32.0633 16.066 31.9091 16.8597 31.6302 17.5924H37.6442C38.9453 17.5924 40 16.5377 40 15.2366C40 13.9355 38.9453 12.8809 37.6442 12.8809ZM2.35578 17.5924H19.2123C18.9333 16.8598 18.7792 16.066 18.7792 15.2366C18.7792 14.4073 18.9334 13.6136 19.2123 12.8809H2.35578C1.05469 12.8809 0 13.9355 0 15.2366C0 16.5377 1.05469 17.5924 2.35578 17.5924Z" fill="#011826"/>
<path d="M25.4214 19.5342C27.7953 19.5342 29.7198 17.6098 29.7198 15.2359C29.7198 12.8619 27.7953 10.9375 25.4214 10.9375C23.0475 10.9375 21.123 12.8619 21.123 15.2359C21.123 17.6098 23.0475 19.5342 25.4214 19.5342Z" fill="#011826"/>
<path d="M37.6442 23.8184H23.8177C24.0966 24.551 24.2508 25.3448 24.2508 26.1741C24.2508 27.0035 24.0966 27.7972 23.8177 28.5299H37.6442C38.9453 28.5299 40 27.4752 40 26.1741C40 24.873 38.9453 23.8184 37.6442 23.8184ZM2.35578 23.8184C1.05469 23.8184 0 24.873 0 26.1741C0 27.4752 1.05469 28.5299 2.35578 28.5299H11.3998C11.1208 27.7973 10.9667 27.0035 10.9667 26.1741C10.9667 25.3448 11.1209 24.5511 11.3998 23.8184H2.35578Z" fill="#011826"/>
<path d="M17.6089 30.4717C19.9828 30.4717 21.9073 28.5473 21.9073 26.1734C21.9073 23.7994 19.9828 21.875 17.6089 21.875C15.235 21.875 13.3105 23.7994 13.3105 26.1734C13.3105 28.5473 15.235 30.4717 17.6089 30.4717Z" fill="#011826"/>
</svg>
